<?xml version="1.0" encoding="UTF-8" standalone="no"?>
<!DOCTYPE svg PUBLIC "-//W3C//DTD SVG 1.1//EN"
 "http://www.w3.org/Graphics/SVG/1.1/DTD/svg11.dtd">
<!-- Generated by graphviz version 2.28.0 (20130109.1153)
 -->
<!-- Title: DasArchive Pages: 1 -->
<svg width="901pt" height="721pt"
 viewBox="0.00 0.00 901.29 720.91" xmlns="http://www.w3.org/2000/svg" xmlns:xlink="http://www.w3.org/1999/xlink">
<g id="graph1" class="graph" transform="scale(1 1) rotate(0) translate(4 716.911)">
<title>DasArchive</title>
<polygon fill="white" stroke="white" points="-4,5 -4,-716.911 898.286,-716.911 898.286,5 -4,5"/>
<!-- n0 -->
<g id="node2" class="node"><title>n0</title>
<ellipse fill="grey" stroke="black" cx="305.881" cy="-299.385" rx="24.0718" ry="24.0958"/>
<text text-anchor="middle" x="305.881" y="-295.685" font-family="Times,serif" font-size="14.00">dox</text>
</g>
<!-- depart -->
<g id="node5" class="node"><title>depart</title>
<ellipse fill="lightgreen" stroke="black" cx="313.647" cy="-151.795" rx="34.1708" ry="18"/>
<text text-anchor="middle" x="313.647" y="-148.095" font-family="Times,serif" font-size="14.00">Отдел</text>
</g>
<!-- n0&#45;&#45;depart -->
<g id="edge44" class="edge"><title>n0&#45;&#45;depart</title>
<path fill="none" stroke="black" stroke-dasharray="5,2" d="M307.146,-275.344C308.694,-245.938 311.279,-196.803 312.678,-170.221"/>
</g>
<!-- doer -->
<g id="node6" class="node"><title>doer</title>
<ellipse fill="lightgreen" stroke="black" cx="187.079" cy="-254.561" rx="60.1672" ry="18"/>
<text text-anchor="middle" x="187.079" y="-250.861" font-family="Times,serif" font-size="14.00">Исполнитель</text>
</g>
<!-- n0&#45;&#45;doer -->
<g id="edge45" class="edge"><title>n0&#45;&#45;doer</title>
<path fill="none" stroke="black" stroke-dasharray="5,2" d="M283.256,-290.849C266.694,-284.6 243.845,-275.979 224.573,-268.707"/>
</g>
<!-- partner -->
<g id="node7" class="node"><title>partner</title>
<ellipse fill="lightgreen" stroke="black" cx="187.915" cy="-373.004" rx="54.3924" ry="18"/>
<text text-anchor="middle" x="187.915" y="-369.304" font-family="Times,serif" font-size="14.00">Контрагент</text>
</g>
<!-- n0&#45;&#45;partner -->
<g id="edge46" class="edge"><title>n0&#45;&#45;partner</title>
<path fill="none" stroke="black" stroke-dasharray="5,2" d="M285.333,-312.209C265.397,-324.65 235.086,-343.566 213.575,-356.99"/>
</g>
<!-- doctype -->
<g id="node11" class="node"><title>doctype</title>
<ellipse fill="lightyellow" stroke="black" cx="434.626" cy="-401.871" rx="27" ry="18"/>
<text text-anchor="middle" x="434.626" y="-398.171" font-family="Times,serif" font-size="14.00">Тип</text>
</g>
<!-- n0&#45;&#45;doctype -->
<g id="edge47" class="edge"><title>n0&#45;&#45;doctype</title>
<path fill="none" stroke="black" stroke-dasharray="5,2" d="M324.878,-314.507C349.779,-334.329 393.11,-368.823 417.204,-388.002"/>
</g>
<!-- depart1 -->
<g id="node21" class="node"><title>depart1</title>
<polygon fill="white" stroke="white" points="347.626,-36 317.626,-36 305.626,-24 305.626,-12 317.626,-0 347.626,-0 359.626,-12 359.626,-24 347.626,-36"/>
<path fill="white" stroke="white" d="M317.626,-36C311.626,-36 305.626,-30 305.626,-24"/>
<path fill="white" stroke="white" d="M305.626,-12C305.626,-6 311.626,-0 317.626,-0"/>
<path fill="white" stroke="white" d="M347.626,-0C353.626,-0 359.626,-6 359.626,-12"/>
<path fill="white" stroke="white" d="M359.626,-24C359.626,-30 353.626,-36 347.626,-36"/>
<polyline fill="none" stroke="black" points="347.626,-36 317.626,-36 "/>
<path fill="none" stroke="black" d="M317.626,-36C311.626,-36 305.626,-30 305.626,-24"/>
<polyline fill="none" stroke="black" points="305.626,-24 305.626,-12 "/>
<path fill="none" stroke="black" d="M305.626,-12C305.626,-6 311.626,-0 317.626,-0"/>
<polyline fill="none" stroke="black" points="317.626,-0 347.626,-0 "/>
<path fill="none" stroke="black" d="M347.626,-0C353.626,-0 359.626,-6 359.626,-12"/>
<polyline fill="none" stroke="black" points="359.626,-12 359.626,-24 "/>
<path fill="none" stroke="black" d="M359.626,-24C359.626,-30 353.626,-36 347.626,-36"/>
<text text-anchor="middle" x="332.626" y="-14.3" font-family="Times,serif" font-size="14.00">Юр</text>
</g>
<!-- depart&#45;&#45;depart1 -->
<g id="edge20" class="edge"><title>depart&#45;&#45;depart1</title>
<path fill="none" stroke="black" d="M316.207,-133.75C319.829,-108.215 326.413,-61.798 330.047,-36.1855"/>
</g>
<!-- depart2 -->
<g id="node22" class="node"><title>depart2</title>
<polygon fill="white" stroke="white" points="409.626,-69.5858 379.626,-69.5858 367.626,-57.5858 367.626,-45.5858 379.626,-33.5858 409.626,-33.5858 421.626,-45.5858 421.626,-57.5858 409.626,-69.5858"/>
<path fill="white" stroke="white" d="M379.626,-69.5858C373.626,-69.5858 367.626,-63.5858 367.626,-57.5858"/>
<path fill="white" stroke="white" d="M367.626,-45.5858C367.626,-39.5858 373.626,-33.5858 379.626,-33.5858"/>
<path fill="white" stroke="white" d="M409.626,-33.5858C415.626,-33.5858 421.626,-39.5858 421.626,-45.5858"/>
<path fill="white" stroke="white" d="M421.626,-57.5858C421.626,-63.5858 415.626,-69.5858 409.626,-69.5858"/>
<polyline fill="none" stroke="black" points="409.626,-69.5858 379.626,-69.5858 "/>
<path fill="none" stroke="black" d="M379.626,-69.5858C373.626,-69.5858 367.626,-63.5858 367.626,-57.5858"/>
<polyline fill="none" stroke="black" points="367.626,-57.5858 367.626,-45.5858 "/>
<path fill="none" stroke="black" d="M367.626,-45.5858C367.626,-39.5858 373.626,-33.5858 379.626,-33.5858"/>
<polyline fill="none" stroke="black" points="379.626,-33.5858 409.626,-33.5858 "/>
<path fill="none" stroke="black" d="M409.626,-33.5858C415.626,-33.5858 421.626,-39.5858 421.626,-45.5858"/>
<polyline fill="none" stroke="black" points="421.626,-45.5858 421.626,-57.5858 "/>
<path fill="none" stroke="black" d="M421.626,-57.5858C421.626,-63.5858 415.626,-69.5858 409.626,-69.5858"/>
<text text-anchor="middle" x="394.626" y="-47.8858" font-family="Times,serif" font-size="14.00">Бух</text>
</g>
<!-- depart&#45;&#45;depart2 -->
<g id="edge21" class="edge"><title>depart&#45;&#45;depart2</title>
<path fill="none" stroke="black" d="M327.384,-134.795C342.004,-116.703 365.048,-88.1876 380,-69.6857"/>
</g>
<!-- depart3 -->
<g id="node23" class="node"><title>depart3</title>
<polygon fill="white" stroke="white" points="219.932,-98.6179 189.932,-98.6179 177.932,-86.6179 177.932,-74.6179 189.932,-62.6179 219.932,-62.6179 231.932,-74.6179 231.932,-86.6179 219.932,-98.6179"/>
<path fill="white" stroke="white" d="M189.932,-98.6179C183.932,-98.6179 177.932,-92.6179 177.932,-86.6179"/>
<path fill="white" stroke="white" d="M177.932,-74.6179C177.932,-68.6179 183.932,-62.6179 189.932,-62.6179"/>
<path fill="white" stroke="white" d="M219.932,-62.6179C225.932,-62.6179 231.932,-68.6179 231.932,-74.6179"/>
<path fill="white" stroke="white" d="M231.932,-86.6179C231.932,-92.6179 225.932,-98.6179 219.932,-98.6179"/>
<polyline fill="none" stroke="black" points="219.932,-98.6179 189.932,-98.6179 "/>
<path fill="none" stroke="black" d="M189.932,-98.6179C183.932,-98.6179 177.932,-92.6179 177.932,-86.6179"/>
<polyline fill="none" stroke="black" points="177.932,-86.6179 177.932,-74.6179 "/>
<path fill="none" stroke="black" d="M177.932,-74.6179C177.932,-68.6179 183.932,-62.6179 189.932,-62.6179"/>
<polyline fill="none" stroke="black" points="189.932,-62.6179 219.932,-62.6179 "/>
<path fill="none" stroke="black" d="M219.932,-62.6179C225.932,-62.6179 231.932,-68.6179 231.932,-74.6179"/>
<polyline fill="none" stroke="black" points="231.932,-74.6179 231.932,-86.6179 "/>
<path fill="none" stroke="black" d="M231.932,-86.6179C231.932,-92.6179 225.932,-98.6179 219.932,-98.6179"/>
<text text-anchor="middle" x="204.932" y="-76.9179" font-family="Times,serif" font-size="14.00">ОК</text>
</g>
<!-- depart&#45;&#45;depart3 -->
<g id="edge22" class="edge"><title>depart&#45;&#45;depart3</title>
<path fill="none" stroke="black" d="M292.168,-137.732C274.966,-126.47 250.725,-110.599 232.161,-98.4453"/>
</g>
<!-- depart4 -->
<g id="node24" class="node"><title>depart4</title>
<polygon fill="white" stroke="white" points="272.967,-48.3559 242.967,-48.3559 230.967,-36.3559 230.967,-24.3559 242.967,-12.3559 272.967,-12.3559 284.967,-24.3559 284.967,-36.3559 272.967,-48.3559"/>
<path fill="white" stroke="white" d="M242.967,-48.3559C236.967,-48.3559 230.967,-42.3559 230.967,-36.3559"/>
<path fill="white" stroke="white" d="M230.967,-24.3559C230.967,-18.3559 236.967,-12.3559 242.967,-12.3559"/>
<path fill="white" stroke="white" d="M272.967,-12.3559C278.967,-12.3559 284.967,-18.3559 284.967,-24.3559"/>
<path fill="white" stroke="white" d="M284.967,-36.3559C284.967,-42.3559 278.967,-48.3559 272.967,-48.3559"/>
<polyline fill="none" stroke="black" points="272.967,-48.3559 242.967,-48.3559 "/>
<path fill="none" stroke="black" d="M242.967,-48.3559C236.967,-48.3559 230.967,-42.3559 230.967,-36.3559"/>
<polyline fill="none" stroke="black" points="230.967,-36.3559 230.967,-24.3559 "/>
<path fill="none" stroke="black" d="M230.967,-24.3559C230.967,-18.3559 236.967,-12.3559 242.967,-12.3559"/>
<polyline fill="none" stroke="black" points="242.967,-12.3559 272.967,-12.3559 "/>
<path fill="none" stroke="black" d="M272.967,-12.3559C278.967,-12.3559 284.967,-18.3559 284.967,-24.3559"/>
<polyline fill="none" stroke="black" points="284.967,-24.3559 284.967,-36.3559 "/>
<path fill="none" stroke="black" d="M284.967,-36.3559C284.967,-42.3559 278.967,-48.3559 272.967,-48.3559"/>
<text text-anchor="middle" x="257.967" y="-26.6559" font-family="Times,serif" font-size="14.00">ИТ</text>
</g>
<!-- depart&#45;&#45;depart4 -->
<g id="edge23" class="edge"><title>depart&#45;&#45;depart4</title>
<path fill="none" stroke="black" d="M305.551,-134.136C295.055,-111.244 276.844,-71.5269 266.255,-48.432"/>
</g>
<!-- doer1 -->
<g id="node25" class="node"><title>doer1</title>
<polygon fill="white" stroke="white" points="73.1981,-309.705 38.6981,-309.705 26.6981,-297.705 26.6981,-285.705 38.6981,-273.705 73.1981,-273.705 85.1981,-285.705 85.1981,-297.705 73.1981,-309.705"/>
<path fill="white" stroke="white" d="M38.6981,-309.705C32.6981,-309.705 26.6981,-303.705 26.6981,-297.705"/>
<path fill="white" stroke="white" d="M26.6981,-285.705C26.6981,-279.705 32.6981,-273.705 38.6981,-273.705"/>
<path fill="white" stroke="white" d="M73.1981,-273.705C79.1981,-273.705 85.1981,-279.705 85.1981,-285.705"/>
<path fill="white" stroke="white" d="M85.1981,-297.705C85.1981,-303.705 79.1981,-309.705 73.1981,-309.705"/>
<polyline fill="none" stroke="black" points="73.1981,-309.705 38.6981,-309.705 "/>
<path fill="none" stroke="black" d="M38.6981,-309.705C32.6981,-309.705 26.6981,-303.705 26.6981,-297.705"/>
<polyline fill="none" stroke="black" points="26.6981,-297.705 26.6981,-285.705 "/>
<path fill="none" stroke="black" d="M26.6981,-285.705C26.6981,-279.705 32.6981,-273.705 38.6981,-273.705"/>
<polyline fill="none" stroke="black" points="38.6981,-273.705 73.1981,-273.705 "/>
<path fill="none" stroke="black" d="M73.1981,-273.705C79.1981,-273.705 85.1981,-279.705 85.1981,-285.705"/>
<polyline fill="none" stroke="black" points="85.1981,-285.705 85.1981,-297.705 "/>
<path fill="none" stroke="black" d="M85.1981,-297.705C85.1981,-303.705 79.1981,-309.705 73.1981,-309.705"/>
<text text-anchor="middle" x="55.9481" y="-288.005" font-family="Times,serif" font-size="14.00">Иванов</text>
</g>
<!-- doer&#45;&#45;doer1 -->
<g id="edge26" class="edge"><title>doer&#45;&#45;doer1</title>
<path fill="none" stroke="black" d="M143.049,-267.033C124.151,-272.386 102.567,-278.5 85.6128,-283.302"/>
</g>
<!-- doer2 -->
<g id="node26" class="node"><title>doer2</title>
<polygon fill="white" stroke="white" points="81.4036,-225.299 46.9036,-225.299 34.9036,-213.299 34.9036,-201.299 46.9036,-189.299 81.4036,-189.299 93.4036,-201.299 93.4036,-213.299 81.4036,-225.299"/>
<path fill="white" stroke="white" d="M46.9036,-225.299C40.9036,-225.299 34.9036,-219.299 34.9036,-213.299"/>
<path fill="white" stroke="white" d="M34.9036,-201.299C34.9036,-195.299 40.9036,-189.299 46.9036,-189.299"/>
<path fill="white" stroke="white" d="M81.4036,-189.299C87.4036,-189.299 93.4036,-195.299 93.4036,-201.299"/>
<path fill="white" stroke="white" d="M93.4036,-213.299C93.4036,-219.299 87.4036,-225.299 81.4036,-225.299"/>
<polyline fill="none" stroke="black" points="81.4036,-225.299 46.9036,-225.299 "/>
<path fill="none" stroke="black" d="M46.9036,-225.299C40.9036,-225.299 34.9036,-219.299 34.9036,-213.299"/>
<polyline fill="none" stroke="black" points="34.9036,-213.299 34.9036,-201.299 "/>
<path fill="none" stroke="black" d="M34.9036,-201.299C34.9036,-195.299 40.9036,-189.299 46.9036,-189.299"/>
<polyline fill="none" stroke="black" points="46.9036,-189.299 81.4036,-189.299 "/>
<path fill="none" stroke="black" d="M81.4036,-189.299C87.4036,-189.299 93.4036,-195.299 93.4036,-201.299"/>
<polyline fill="none" stroke="black" points="93.4036,-201.299 93.4036,-213.299 "/>
<path fill="none" stroke="black" d="M93.4036,-213.299C93.4036,-219.299 87.4036,-225.299 81.4036,-225.299"/>
<text text-anchor="middle" x="64.1536" y="-203.599" font-family="Times,serif" font-size="14.00">Петров</text>
</g>
<!-- doer&#45;&#45;doer2 -->
<g id="edge27" class="edge"><title>doer&#45;&#45;doer2</title>
<path fill="none" stroke="black" d="M149.864,-240.252C131.915,-233.352 110.681,-225.188 93.8381,-218.712"/>
</g>
<!-- doer3 -->
<g id="node27" class="node"><title>doer3</title>
<polygon fill="white" stroke="white" points="140.911,-159.52 96.9109,-159.52 84.9109,-147.52 84.9109,-135.52 96.9109,-123.52 140.911,-123.52 152.911,-135.52 152.911,-147.52 140.911,-159.52"/>
<path fill="white" stroke="white" d="M96.9109,-159.52C90.9109,-159.52 84.9109,-153.52 84.9109,-147.52"/>
<path fill="white" stroke="white" d="M84.9109,-135.52C84.9109,-129.52 90.9109,-123.52 96.9109,-123.52"/>
<path fill="white" stroke="white" d="M140.911,-123.52C146.911,-123.52 152.911,-129.52 152.911,-135.52"/>
<path fill="white" stroke="white" d="M152.911,-147.52C152.911,-153.52 146.911,-159.52 140.911,-159.52"/>
<polyline fill="none" stroke="black" points="140.911,-159.52 96.9109,-159.52 "/>
<path fill="none" stroke="black" d="M96.9109,-159.52C90.9109,-159.52 84.9109,-153.52 84.9109,-147.52"/>
<polyline fill="none" stroke="black" points="84.9109,-147.52 84.9109,-135.52 "/>
<path fill="none" stroke="black" d="M84.9109,-135.52C84.9109,-129.52 90.9109,-123.52 96.9109,-123.52"/>
<polyline fill="none" stroke="black" points="96.9109,-123.52 140.911,-123.52 "/>
<path fill="none" stroke="black" d="M140.911,-123.52C146.911,-123.52 152.911,-129.52 152.911,-135.52"/>
<polyline fill="none" stroke="black" points="152.911,-135.52 152.911,-147.52 "/>
<path fill="none" stroke="black" d="M152.911,-147.52C152.911,-153.52 146.911,-159.52 140.911,-159.52"/>
<text text-anchor="middle" x="118.911" y="-137.82" font-family="Times,serif" font-size="14.00">Сидоров</text>
</g>
<!-- doer&#45;&#45;doer3 -->
<g id="edge28" class="edge"><title>doer&#45;&#45;doer3</title>
<path fill="none" stroke="black" d="M176.277,-236.649C163.588,-215.607 142.652,-180.889 129.888,-159.722"/>
</g>
<!-- partner1 -->
<g id="node28" class="node"><title>partner1</title>
<polygon fill="white" stroke="white" points="92.5,-402.34 12,-402.34 0,-390.34 0,-378.34 12,-366.34 92.5,-366.34 104.5,-378.34 104.5,-390.34 92.5,-402.34"/>
<path fill="white" stroke="white" d="M12,-402.34C6,-402.34 0,-396.34 0,-390.34"/>
<path fill="white" stroke="white" d="M0,-378.34C0,-372.34 6,-366.34 12,-366.34"/>
<path fill="white" stroke="white" d="M92.5,-366.34C98.5,-366.34 104.5,-372.34 104.5,-378.34"/>
<path fill="white" stroke="white" d="M104.5,-390.34C104.5,-396.34 98.5,-402.34 92.5,-402.34"/>
<polyline fill="none" stroke="black" points="92.5,-402.34 12,-402.34 "/>
<path fill="none" stroke="black" d="M12,-402.34C6,-402.34 0,-396.34 0,-390.34"/>
<polyline fill="none" stroke="black" points="0,-390.34 0,-378.34 "/>
<path fill="none" stroke="black" d="M0,-378.34C0,-372.34 6,-366.34 12,-366.34"/>
<polyline fill="none" stroke="black" points="12,-366.34 92.5,-366.34 "/>
<path fill="none" stroke="black" d="M92.5,-366.34C98.5,-366.34 104.5,-372.34 104.5,-378.34"/>
<polyline fill="none" stroke="black" points="104.5,-378.34 104.5,-390.34 "/>
<path fill="none" stroke="black" d="M104.5,-390.34C104.5,-396.34 98.5,-402.34 92.5,-402.34"/>
<text text-anchor="middle" x="52.25" y="-380.64" font-family="Times,serif" font-size="14.00">Ромашка, ООО</text>
</g>
<!-- partner&#45;&#45;partner1 -->
<g id="edge31" class="edge"><title>partner&#45;&#45;partner1</title>
<path fill="none" stroke="black" d="M135.075,-377.419C125.254,-378.24 114.992,-379.097 105.169,-379.918"/>
</g>
<!-- partner2 -->
<g id="node29" class="node"><title>partner2</title>
<polygon fill="white" stroke="white" points="115.885,-484.833 47.8845,-484.833 35.8845,-472.833 35.8845,-460.833 47.8845,-448.833 115.885,-448.833 127.885,-460.833 127.885,-472.833 115.885,-484.833"/>
<path fill="white" stroke="white" d="M47.8845,-484.833C41.8845,-484.833 35.8845,-478.833 35.8845,-472.833"/>
<path fill="white" stroke="white" d="M35.8845,-460.833C35.8845,-454.833 41.8845,-448.833 47.8845,-448.833"/>
<path fill="white" stroke="white" d="M115.885,-448.833C121.885,-448.833 127.885,-454.833 127.885,-460.833"/>
<path fill="white" stroke="white" d="M127.885,-472.833C127.885,-478.833 121.885,-484.833 115.885,-484.833"/>
<polyline fill="none" stroke="black" points="115.885,-484.833 47.8845,-484.833 "/>
<path fill="none" stroke="black" d="M47.8845,-484.833C41.8845,-484.833 35.8845,-478.833 35.8845,-472.833"/>
<polyline fill="none" stroke="black" points="35.8845,-472.833 35.8845,-460.833 "/>
<path fill="none" stroke="black" d="M35.8845,-460.833C35.8845,-454.833 41.8845,-448.833 47.8845,-448.833"/>
<polyline fill="none" stroke="black" points="47.8845,-448.833 115.885,-448.833 "/>
<path fill="none" stroke="black" d="M115.885,-448.833C121.885,-448.833 127.885,-454.833 127.885,-460.833"/>
<polyline fill="none" stroke="black" points="127.885,-460.833 127.885,-472.833 "/>
<path fill="none" stroke="black" d="M127.885,-472.833C127.885,-478.833 121.885,-484.833 115.885,-484.833"/>
<text text-anchor="middle" x="81.8845" y="-463.133" font-family="Times,serif" font-size="14.00">Вектор, ЗАО</text>
</g>
<!-- partner&#45;&#45;partner2 -->
<g id="edge32" class="edge"><title>partner&#45;&#45;partner2</title>
<path fill="none" stroke="black" d="M168.467,-390.214C149.694,-406.826 121.383,-431.88 102.293,-448.773"/>
</g>
<!-- year -->
<g id="node9" class="node"><title>year</title>
<ellipse fill="lightyellow" stroke="black" cx="657.703" cy="-243.608" rx="27" ry="18"/>
<text text-anchor="middle" x="657.703" y="-239.908" font-family="Times,serif" font-size="14.00">Год</text>
</g>
<!-- year2010 -->
<g id="node13" class="node"><title>year2010</title>
<polygon fill="white" stroke="white" points="797.013,-228.935 767.013,-228.935 755.013,-216.935 755.013,-204.935 767.013,-192.935 797.013,-192.935 809.013,-204.935 809.013,-216.935 797.013,-228.935"/>
<path fill="white" stroke="white" d="M767.013,-228.935C761.013,-228.935 755.013,-222.935 755.013,-216.935"/>
<path fill="white" stroke="white" d="M755.013,-204.935C755.013,-198.935 761.013,-192.935 767.013,-192.935"/>
<path fill="white" stroke="white" d="M797.013,-192.935C803.013,-192.935 809.013,-198.935 809.013,-204.935"/>
<path fill="white" stroke="white" d="M809.013,-216.935C809.013,-222.935 803.013,-228.935 797.013,-228.935"/>
<polyline fill="none" stroke="black" points="797.013,-228.935 767.013,-228.935 "/>
<path fill="none" stroke="black" d="M767.013,-228.935C761.013,-228.935 755.013,-222.935 755.013,-216.935"/>
<polyline fill="none" stroke="black" points="755.013,-216.935 755.013,-204.935 "/>
<path fill="none" stroke="black" d="M755.013,-204.935C755.013,-198.935 761.013,-192.935 767.013,-192.935"/>
<polyline fill="none" stroke="black" points="767.013,-192.935 797.013,-192.935 "/>
<path fill="none" stroke="black" d="M797.013,-192.935C803.013,-192.935 809.013,-198.935 809.013,-204.935"/>
<polyline fill="none" stroke="black" points="809.013,-204.935 809.013,-216.935 "/>
<path fill="none" stroke="black" d="M809.013,-216.935C809.013,-222.935 803.013,-228.935 797.013,-228.935"/>
<text text-anchor="middle" x="782.013" y="-207.235" font-family="Times,serif" font-size="14.00">2010</text>
</g>
<!-- year&#45;&#45;year2010 -->
<g id="edge8" class="edge"><title>year&#45;&#45;year2010</title>
<path fill="none" stroke="black" d="M682.859,-236.996C703.716,-231.514 733.314,-223.735 754.737,-218.104"/>
</g>
<!-- year2011 -->
<g id="node14" class="node"><title>year2011</title>
<polygon fill="white" stroke="white" points="639.098,-140.404 609.098,-140.404 597.098,-128.404 597.098,-116.404 609.098,-104.404 639.098,-104.404 651.098,-116.404 651.098,-128.404 639.098,-140.404"/>
<path fill="white" stroke="white" d="M609.098,-140.404C603.098,-140.404 597.098,-134.404 597.098,-128.404"/>
<path fill="white" stroke="white" d="M597.098,-116.404C597.098,-110.404 603.098,-104.404 609.098,-104.404"/>
<path fill="white" stroke="white" d="M639.098,-104.404C645.098,-104.404 651.098,-110.404 651.098,-116.404"/>
<path fill="white" stroke="white" d="M651.098,-128.404C651.098,-134.404 645.098,-140.404 639.098,-140.404"/>
<polyline fill="none" stroke="black" points="639.098,-140.404 609.098,-140.404 "/>
<path fill="none" stroke="black" d="M609.098,-140.404C603.098,-140.404 597.098,-134.404 597.098,-128.404"/>
<polyline fill="none" stroke="black" points="597.098,-128.404 597.098,-116.404 "/>
<path fill="none" stroke="black" d="M597.098,-116.404C597.098,-110.404 603.098,-104.404 609.098,-104.404"/>
<polyline fill="none" stroke="black" points="609.098,-104.404 639.098,-104.404 "/>
<path fill="none" stroke="black" d="M639.098,-104.404C645.098,-104.404 651.098,-110.404 651.098,-116.404"/>
<polyline fill="none" stroke="black" points="651.098,-116.404 651.098,-128.404 "/>
<path fill="none" stroke="black" d="M651.098,-128.404C651.098,-134.404 645.098,-140.404 639.098,-140.404"/>
<text text-anchor="middle" x="624.098" y="-118.704" font-family="Times,serif" font-size="14.00">2011</text>
</g>
<!-- year&#45;&#45;year2011 -->
<g id="edge9" class="edge"><title>year&#45;&#45;year2011</title>
<path fill="none" stroke="black" d="M652.744,-225.724C646.427,-202.94 635.566,-163.766 629.187,-140.759"/>
</g>
<!-- year2012 -->
<g id="node15" class="node"><title>year2012</title>
<polygon fill="white" stroke="white" points="769.588,-164.818 739.588,-164.818 727.588,-152.818 727.588,-140.818 739.588,-128.818 769.588,-128.818 781.588,-140.818 781.588,-152.818 769.588,-164.818"/>
<path fill="white" stroke="white" d="M739.588,-164.818C733.588,-164.818 727.588,-158.818 727.588,-152.818"/>
<path fill="white" stroke="white" d="M727.588,-140.818C727.588,-134.818 733.588,-128.818 739.588,-128.818"/>
<path fill="white" stroke="white" d="M769.588,-128.818C775.588,-128.818 781.588,-134.818 781.588,-140.818"/>
<path fill="white" stroke="white" d="M781.588,-152.818C781.588,-158.818 775.588,-164.818 769.588,-164.818"/>
<polyline fill="none" stroke="black" points="769.588,-164.818 739.588,-164.818 "/>
<path fill="none" stroke="black" d="M739.588,-164.818C733.588,-164.818 727.588,-158.818 727.588,-152.818"/>
<polyline fill="none" stroke="black" points="727.588,-152.818 727.588,-140.818 "/>
<path fill="none" stroke="black" d="M727.588,-140.818C727.588,-134.818 733.588,-128.818 739.588,-128.818"/>
<polyline fill="none" stroke="black" points="739.588,-128.818 769.588,-128.818 "/>
<path fill="none" stroke="black" d="M769.588,-128.818C775.588,-128.818 781.588,-134.818 781.588,-140.818"/>
<polyline fill="none" stroke="black" points="781.588,-140.818 781.588,-152.818 "/>
<path fill="none" stroke="black" d="M781.588,-152.818C781.588,-158.818 775.588,-164.818 769.588,-164.818"/>
<text text-anchor="middle" x="754.588" y="-143.118" font-family="Times,serif" font-size="14.00">2012</text>
</g>
<!-- year&#45;&#45;year2012 -->
<g id="edge10" class="edge"><title>year&#45;&#45;year2012</title>
<path fill="none" stroke="black" d="M672.841,-228.484C689.978,-211.364 717.893,-183.477 736.251,-165.137"/>
</g>
<!-- year2013 -->
<g id="node16" class="node"><title>year2013</title>
<polygon fill="white" stroke="white" points="706.283,-128.558 676.283,-128.558 664.283,-116.558 664.283,-104.558 676.283,-92.5584 706.283,-92.5584 718.283,-104.558 718.283,-116.558 706.283,-128.558"/>
<path fill="white" stroke="white" d="M676.283,-128.558C670.283,-128.558 664.283,-122.558 664.283,-116.558"/>
<path fill="white" stroke="white" d="M664.283,-104.558C664.283,-98.5584 670.283,-92.5584 676.283,-92.5584"/>
<path fill="white" stroke="white" d="M706.283,-92.5584C712.283,-92.5584 718.283,-98.5584 718.283,-104.558"/>
<path fill="white" stroke="white" d="M718.283,-116.558C718.283,-122.558 712.283,-128.558 706.283,-128.558"/>
<polyline fill="none" stroke="black" points="706.283,-128.558 676.283,-128.558 "/>
<path fill="none" stroke="black" d="M676.283,-128.558C670.283,-128.558 664.283,-122.558 664.283,-116.558"/>
<polyline fill="none" stroke="black" points="664.283,-116.558 664.283,-104.558 "/>
<path fill="none" stroke="black" d="M664.283,-104.558C664.283,-98.5584 670.283,-92.5584 676.283,-92.5584"/>
<polyline fill="none" stroke="black" points="676.283,-92.5584 706.283,-92.5584 "/>
<path fill="none" stroke="black" d="M706.283,-92.5584C712.283,-92.5584 718.283,-98.5584 718.283,-104.558"/>
<polyline fill="none" stroke="black" points="718.283,-104.558 718.283,-116.558 "/>
<path fill="none" stroke="black" d="M718.283,-116.558C718.283,-122.558 712.283,-128.558 706.283,-128.558"/>
<text text-anchor="middle" x="691.283" y="-106.858" font-family="Times,serif" font-size="14.00">2013</text>
</g>
<!-- year&#45;&#45;year2013 -->
<g id="edge11" class="edge"><title>year&#45;&#45;year2013</title>
<path fill="none" stroke="black" d="M662.231,-225.664C668.64,-200.271 680.29,-154.112 686.718,-128.643"/>
</g>
<!-- quarter -->
<g id="node10" class="node"><title>quarter</title>
<ellipse fill="lightyellow" stroke="black" cx="737.081" cy="-386.179" rx="42.3701" ry="18"/>
<text text-anchor="middle" x="737.081" y="-382.479" font-family="Times,serif" font-size="14.00">Квартал</text>
</g>
<!-- quarter1 -->
<g id="node17" class="node"><title>quarter1</title>
<polygon fill="white" stroke="white" points="837.474,-502.979 807.474,-502.979 795.474,-490.979 795.474,-478.979 807.474,-466.979 837.474,-466.979 849.474,-478.979 849.474,-490.979 837.474,-502.979"/>
<path fill="white" stroke="white" d="M807.474,-502.979C801.474,-502.979 795.474,-496.979 795.474,-490.979"/>
<path fill="white" stroke="white" d="M795.474,-478.979C795.474,-472.979 801.474,-466.979 807.474,-466.979"/>
<path fill="white" stroke="white" d="M837.474,-466.979C843.474,-466.979 849.474,-472.979 849.474,-478.979"/>
<path fill="white" stroke="white" d="M849.474,-490.979C849.474,-496.979 843.474,-502.979 837.474,-502.979"/>
<polyline fill="none" stroke="black" points="837.474,-502.979 807.474,-502.979 "/>
<path fill="none" stroke="black" d="M807.474,-502.979C801.474,-502.979 795.474,-496.979 795.474,-490.979"/>
<polyline fill="none" stroke="black" points="795.474,-490.979 795.474,-478.979 "/>
<path fill="none" stroke="black" d="M795.474,-478.979C795.474,-472.979 801.474,-466.979 807.474,-466.979"/>
<polyline fill="none" stroke="black" points="807.474,-466.979 837.474,-466.979 "/>
<path fill="none" stroke="black" d="M837.474,-466.979C843.474,-466.979 849.474,-472.979 849.474,-478.979"/>
<polyline fill="none" stroke="black" points="849.474,-478.979 849.474,-490.979 "/>
<path fill="none" stroke="black" d="M849.474,-490.979C849.474,-496.979 843.474,-502.979 837.474,-502.979"/>
<text text-anchor="middle" x="822.474" y="-481.279" font-family="Times,serif" font-size="14.00">1</text>
</g>
<!-- quarter&#45;&#45;quarter1 -->
<g id="edge14" class="edge"><title>quarter&#45;&#45;quarter1</title>
<path fill="none" stroke="black" d="M751.955,-403.389C767.342,-421.191 791.267,-448.872 806.905,-466.966"/>
</g>
<!-- quarter2 -->
<g id="node18" class="node"><title>quarter2</title>
<polygon fill="white" stroke="white" points="840.835,-309.839 810.835,-309.839 798.835,-297.839 798.835,-285.839 810.835,-273.839 840.835,-273.839 852.835,-285.839 852.835,-297.839 840.835,-309.839"/>
<path fill="white" stroke="white" d="M810.835,-309.839C804.835,-309.839 798.835,-303.839 798.835,-297.839"/>
<path fill="white" stroke="white" d="M798.835,-285.839C798.835,-279.839 804.835,-273.839 810.835,-273.839"/>
<path fill="white" stroke="white" d="M840.835,-273.839C846.835,-273.839 852.835,-279.839 852.835,-285.839"/>
<path fill="white" stroke="white" d="M852.835,-297.839C852.835,-303.839 846.835,-309.839 840.835,-309.839"/>
<polyline fill="none" stroke="black" points="840.835,-309.839 810.835,-309.839 "/>
<path fill="none" stroke="black" d="M810.835,-309.839C804.835,-309.839 798.835,-303.839 798.835,-297.839"/>
<polyline fill="none" stroke="black" points="798.835,-297.839 798.835,-285.839 "/>
<path fill="none" stroke="black" d="M798.835,-285.839C798.835,-279.839 804.835,-273.839 810.835,-273.839"/>
<polyline fill="none" stroke="black" points="810.835,-273.839 840.835,-273.839 "/>
<path fill="none" stroke="black" d="M840.835,-273.839C846.835,-273.839 852.835,-279.839 852.835,-285.839"/>
<polyline fill="none" stroke="black" points="852.835,-285.839 852.835,-297.839 "/>
<path fill="none" stroke="black" d="M852.835,-297.839C852.835,-303.839 846.835,-309.839 840.835,-309.839"/>
<text text-anchor="middle" x="825.835" y="-288.139" font-family="Times,serif" font-size="14.00">2</text>
</g>
<!-- quarter&#45;&#45;quarter2 -->
<g id="edge15" class="edge"><title>quarter&#45;&#45;quarter2</title>
<path fill="none" stroke="black" d="M752.949,-369.313C768.705,-352.565 792.776,-326.979 808.896,-309.844"/>
</g>
<!-- quarter3 -->
<g id="node19" class="node"><title>quarter3</title>
<polygon fill="white" stroke="white" points="881.286,-369.045 851.286,-369.045 839.286,-357.045 839.286,-345.045 851.286,-333.045 881.286,-333.045 893.286,-345.045 893.286,-357.045 881.286,-369.045"/>
<path fill="white" stroke="white" d="M851.286,-369.045C845.286,-369.045 839.286,-363.045 839.286,-357.045"/>
<path fill="white" stroke="white" d="M839.286,-345.045C839.286,-339.045 845.286,-333.045 851.286,-333.045"/>
<path fill="white" stroke="white" d="M881.286,-333.045C887.286,-333.045 893.286,-339.045 893.286,-345.045"/>
<path fill="white" stroke="white" d="M893.286,-357.045C893.286,-363.045 887.286,-369.045 881.286,-369.045"/>
<polyline fill="none" stroke="black" points="881.286,-369.045 851.286,-369.045 "/>
<path fill="none" stroke="black" d="M851.286,-369.045C845.286,-369.045 839.286,-363.045 839.286,-357.045"/>
<polyline fill="none" stroke="black" points="839.286,-357.045 839.286,-345.045 "/>
<path fill="none" stroke="black" d="M839.286,-345.045C839.286,-339.045 845.286,-333.045 851.286,-333.045"/>
<polyline fill="none" stroke="black" points="851.286,-333.045 881.286,-333.045 "/>
<path fill="none" stroke="black" d="M881.286,-333.045C887.286,-333.045 893.286,-339.045 893.286,-345.045"/>
<polyline fill="none" stroke="black" points="893.286,-345.045 893.286,-357.045 "/>
<path fill="none" stroke="black" d="M893.286,-357.045C893.286,-363.045 887.286,-369.045 881.286,-369.045"/>
<text text-anchor="middle" x="866.286" y="-347.345" font-family="Times,serif" font-size="14.00">3</text>
</g>
<!-- quarter&#45;&#45;quarter3 -->
<g id="edge16" class="edge"><title>quarter&#45;&#45;quarter3</title>
<path fill="none" stroke="black" d="M772.729,-376.485C793.644,-370.798 819.663,-363.723 838.949,-358.479"/>
</g>
<!-- quarter4 -->
<g id="node20" class="node"><title>quarter4</title>
<polygon fill="white" stroke="white" points="880.477,-445.904 850.477,-445.904 838.477,-433.904 838.477,-421.904 850.477,-409.904 880.477,-409.904 892.477,-421.904 892.477,-433.904 880.477,-445.904"/>
<path fill="white" stroke="white" d="M850.477,-445.904C844.477,-445.904 838.477,-439.904 838.477,-433.904"/>
<path fill="white" stroke="white" d="M838.477,-421.904C838.477,-415.904 844.477,-409.904 850.477,-409.904"/>
<path fill="white" stroke="white" d="M880.477,-409.904C886.477,-409.904 892.477,-415.904 892.477,-421.904"/>
<path fill="white" stroke="white" d="M892.477,-433.904C892.477,-439.904 886.477,-445.904 880.477,-445.904"/>
<polyline fill="none" stroke="black" points="880.477,-445.904 850.477,-445.904 "/>
<path fill="none" stroke="black" d="M850.477,-445.904C844.477,-445.904 838.477,-439.904 838.477,-433.904"/>
<polyline fill="none" stroke="black" points="838.477,-433.904 838.477,-421.904 "/>
<path fill="none" stroke="black" d="M838.477,-421.904C838.477,-415.904 844.477,-409.904 850.477,-409.904"/>
<polyline fill="none" stroke="black" points="850.477,-409.904 880.477,-409.904 "/>
<path fill="none" stroke="black" d="M880.477,-409.904C886.477,-409.904 892.477,-415.904 892.477,-421.904"/>
<polyline fill="none" stroke="black" points="892.477,-421.904 892.477,-433.904 "/>
<path fill="none" stroke="black" d="M892.477,-433.904C892.477,-439.904 886.477,-445.904 880.477,-445.904"/>
<text text-anchor="middle" x="865.477" y="-424.204" font-family="Times,serif" font-size="14.00">4</text>
</g>
<!-- quarter&#45;&#45;quarter4 -->
<g id="edge17" class="edge"><title>quarter&#45;&#45;quarter4</title>
<path fill="none" stroke="black" d="M770.816,-397.142C791.917,-403.999 818.734,-412.714 838.434,-419.116"/>
</g>
<!-- doc1 -->
<g id="node30" class="node"><title>doc1</title>
<polygon fill="white" stroke="white" points="385.005,-444.474 345.005,-444.474 333.005,-432.474 333.005,-420.474 345.005,-408.474 385.005,-408.474 397.005,-420.474 397.005,-432.474 385.005,-444.474"/>
<path fill="white" stroke="white" d="M345.005,-444.474C339.005,-444.474 333.005,-438.474 333.005,-432.474"/>
<path fill="white" stroke="white" d="M333.005,-420.474C333.005,-414.474 339.005,-408.474 345.005,-408.474"/>
<path fill="white" stroke="white" d="M385.005,-408.474C391.005,-408.474 397.005,-414.474 397.005,-420.474"/>
<path fill="white" stroke="white" d="M397.005,-432.474C397.005,-438.474 391.005,-444.474 385.005,-444.474"/>
<polyline fill="none" stroke="black" points="385.005,-444.474 345.005,-444.474 "/>
<path fill="none" stroke="black" d="M345.005,-444.474C339.005,-444.474 333.005,-438.474 333.005,-432.474"/>
<polyline fill="none" stroke="black" points="333.005,-432.474 333.005,-420.474 "/>
<path fill="none" stroke="black" d="M333.005,-420.474C333.005,-414.474 339.005,-408.474 345.005,-408.474"/>
<polyline fill="none" stroke="black" points="345.005,-408.474 385.005,-408.474 "/>
<path fill="none" stroke="black" d="M385.005,-408.474C391.005,-408.474 397.005,-414.474 397.005,-420.474"/>
<polyline fill="none" stroke="black" points="397.005,-420.474 397.005,-432.474 "/>
<path fill="none" stroke="black" d="M397.005,-432.474C397.005,-438.474 391.005,-444.474 385.005,-444.474"/>
<text text-anchor="middle" x="365.005" y="-422.774" font-family="Times,serif" font-size="14.00">Образец</text>
</g>
<!-- doctype&#45;&#45;doc1 -->
<g id="edge35" class="edge"><title>doctype&#45;&#45;doc1</title>
<path fill="none" stroke="black" d="M410.666,-410.338C406.418,-411.839 401.931,-413.425 397.494,-414.993"/>
</g>
<!-- doc2 -->
<g id="node31" class="node"><title>doc2</title>
<polygon fill="white" stroke="white" points="519.678,-332.994 457.178,-332.994 445.178,-320.994 445.178,-308.994 457.178,-296.994 519.678,-296.994 531.678,-308.994 531.678,-320.994 519.678,-332.994"/>
<path fill="white" stroke="white" d="M457.178,-332.994C451.178,-332.994 445.178,-326.994 445.178,-320.994"/>
<path fill="white" stroke="white" d="M445.178,-308.994C445.178,-302.994 451.178,-296.994 457.178,-296.994"/>
<path fill="white" stroke="white" d="M519.678,-296.994C525.678,-296.994 531.678,-302.994 531.678,-308.994"/>
<path fill="white" stroke="white" d="M531.678,-320.994C531.678,-326.994 525.678,-332.994 519.678,-332.994"/>
<polyline fill="none" stroke="black" points="519.678,-332.994 457.178,-332.994 "/>
<path fill="none" stroke="black" d="M457.178,-332.994C451.178,-332.994 445.178,-326.994 445.178,-320.994"/>
<polyline fill="none" stroke="black" points="445.178,-320.994 445.178,-308.994 "/>
<path fill="none" stroke="black" d="M445.178,-308.994C445.178,-302.994 451.178,-296.994 457.178,-296.994"/>
<polyline fill="none" stroke="black" points="457.178,-296.994 519.678,-296.994 "/>
<path fill="none" stroke="black" d="M519.678,-296.994C525.678,-296.994 531.678,-302.994 531.678,-308.994"/>
<polyline fill="none" stroke="black" points="531.678,-308.994 531.678,-320.994 "/>
<path fill="none" stroke="black" d="M531.678,-320.994C531.678,-326.994 525.678,-332.994 519.678,-332.994"/>
<text text-anchor="middle" x="488.428" y="-311.294" font-family="Times,serif" font-size="14.00">Инструкция</text>
</g>
<!-- doctype&#45;&#45;doc2 -->
<g id="edge36" class="edge"><title>doctype&#45;&#45;doc2</title>
<path fill="none" stroke="black" d="M444.999,-385.12C454.221,-370.229 467.674,-348.507 477.158,-333.193"/>
</g>
<!-- doc3 -->
<g id="node32" class="node"><title>doc3</title>
<polygon fill="white" stroke="white" points="538.747,-463.911 468.747,-463.911 456.747,-451.911 456.747,-439.911 468.747,-427.911 538.747,-427.911 550.747,-439.911 550.747,-451.911 538.747,-463.911"/>
<path fill="white" stroke="white" d="M468.747,-463.911C462.747,-463.911 456.747,-457.911 456.747,-451.911"/>
<path fill="white" stroke="white" d="M456.747,-439.911C456.747,-433.911 462.747,-427.911 468.747,-427.911"/>
<path fill="white" stroke="white" d="M538.747,-427.911C544.747,-427.911 550.747,-433.911 550.747,-439.911"/>
<path fill="white" stroke="white" d="M550.747,-451.911C550.747,-457.911 544.747,-463.911 538.747,-463.911"/>
<polyline fill="none" stroke="black" points="538.747,-463.911 468.747,-463.911 "/>
<path fill="none" stroke="black" d="M468.747,-463.911C462.747,-463.911 456.747,-457.911 456.747,-451.911"/>
<polyline fill="none" stroke="black" points="456.747,-451.911 456.747,-439.911 "/>
<path fill="none" stroke="black" d="M456.747,-439.911C456.747,-433.911 462.747,-427.911 468.747,-427.911"/>
<polyline fill="none" stroke="black" points="468.747,-427.911 538.747,-427.911 "/>
<path fill="none" stroke="black" d="M538.747,-427.911C544.747,-427.911 550.747,-433.911 550.747,-439.911"/>
<polyline fill="none" stroke="black" points="550.747,-439.911 550.747,-451.911 "/>
<path fill="none" stroke="black" d="M550.747,-451.911C550.747,-457.911 544.747,-463.911 538.747,-463.911"/>
<text text-anchor="middle" x="503.747" y="-442.211" font-family="Times,serif" font-size="14.00">Учредиловка</text>
</g>
<!-- doctype&#45;&#45;doc3 -->
<g id="edge37" class="edge"><title>doctype&#45;&#45;doc3</title>
<path fill="none" stroke="black" d="M454.248,-414.373C460.794,-418.543 468.225,-423.278 475.302,-427.787"/>
</g>
<!-- doc4 -->
<g id="node33" class="node"><title>doc4</title>
<polygon fill="white" stroke="white" points="414.206,-572.525 365.706,-572.525 353.706,-560.525 353.706,-548.525 365.706,-536.525 414.206,-536.525 426.206,-548.525 426.206,-560.525 414.206,-572.525"/>
<path fill="white" stroke="white" d="M365.706,-572.525C359.706,-572.525 353.706,-566.525 353.706,-560.525"/>
<path fill="white" stroke="white" d="M353.706,-548.525C353.706,-542.525 359.706,-536.525 365.706,-536.525"/>
<path fill="white" stroke="white" d="M414.206,-536.525C420.206,-536.525 426.206,-542.525 426.206,-548.525"/>
<path fill="white" stroke="white" d="M426.206,-560.525C426.206,-566.525 420.206,-572.525 414.206,-572.525"/>
<polyline fill="none" stroke="black" points="414.206,-572.525 365.706,-572.525 "/>
<path fill="none" stroke="black" d="M365.706,-572.525C359.706,-572.525 353.706,-566.525 353.706,-560.525"/>
<polyline fill="none" stroke="black" points="353.706,-560.525 353.706,-548.525 "/>
<path fill="none" stroke="black" d="M353.706,-548.525C353.706,-542.525 359.706,-536.525 365.706,-536.525"/>
<polyline fill="none" stroke="black" points="365.706,-536.525 414.206,-536.525 "/>
<path fill="none" stroke="black" d="M414.206,-536.525C420.206,-536.525 426.206,-542.525 426.206,-548.525"/>
<polyline fill="none" stroke="black" points="426.206,-548.525 426.206,-560.525 "/>
<path fill="none" stroke="black" d="M426.206,-560.525C426.206,-566.525 420.206,-572.525 414.206,-572.525"/>
<text text-anchor="middle" x="389.956" y="-550.825" font-family="Times,serif" font-size="14.00">Первичка</text>
</g>
<!-- doctype&#45;&#45;doc4 -->
<g id="edge38" class="edge"><title>doctype&#45;&#45;doc4</title>
<path fill="none" stroke="black" d="M429.414,-419.681C420.853,-448.938 403.903,-506.864 395.273,-536.355"/>
</g>
<!-- doc5 -->
<g id="node34" class="node"><title>doc5</title>
<polygon fill="white" stroke="white" points="424.921,-344.713 394.921,-344.713 382.921,-332.713 382.921,-320.713 394.921,-308.713 424.921,-308.713 436.921,-320.713 436.921,-332.713 424.921,-344.713"/>
<path fill="white" stroke="white" d="M394.921,-344.713C388.921,-344.713 382.921,-338.713 382.921,-332.713"/>
<path fill="white" stroke="white" d="M382.921,-320.713C382.921,-314.713 388.921,-308.713 394.921,-308.713"/>
<path fill="white" stroke="white" d="M424.921,-308.713C430.921,-308.713 436.921,-314.713 436.921,-320.713"/>
<path fill="white" stroke="white" d="M436.921,-332.713C436.921,-338.713 430.921,-344.713 424.921,-344.713"/>
<polyline fill="none" stroke="black" points="424.921,-344.713 394.921,-344.713 "/>
<path fill="none" stroke="black" d="M394.921,-344.713C388.921,-344.713 382.921,-338.713 382.921,-332.713"/>
<polyline fill="none" stroke="black" points="382.921,-332.713 382.921,-320.713 "/>
<path fill="none" stroke="black" d="M382.921,-320.713C382.921,-314.713 388.921,-308.713 394.921,-308.713"/>
<polyline fill="none" stroke="black" points="394.921,-308.713 424.921,-308.713 "/>
<path fill="none" stroke="black" d="M424.921,-308.713C430.921,-308.713 436.921,-314.713 436.921,-320.713"/>
<polyline fill="none" stroke="black" points="436.921,-320.713 436.921,-332.713 "/>
<path fill="none" stroke="black" d="M436.921,-332.713C436.921,-338.713 430.921,-344.713 424.921,-344.713"/>
<text text-anchor="middle" x="409.921" y="-323.013" font-family="Times,serif" font-size="14.00">Отчет</text>
</g>
<!-- doctype&#45;&#45;doc5 -->
<g id="edge39" class="edge"><title>doctype&#45;&#45;doc5</title>
<path fill="none" stroke="black" d="M428.771,-384.059C424.89,-372.252 419.813,-356.805 415.906,-344.918"/>
</g>
<!-- doc6 -->
<g id="node35" class="node"><title>doc6</title>
<polygon fill="white" stroke="white" points="637.311,-400.827 576.811,-400.827 564.811,-388.827 564.811,-376.827 576.811,-364.827 637.311,-364.827 649.311,-376.827 649.311,-388.827 637.311,-400.827"/>
<path fill="white" stroke="white" d="M576.811,-400.827C570.811,-400.827 564.811,-394.827 564.811,-388.827"/>
<path fill="white" stroke="white" d="M564.811,-376.827C564.811,-370.827 570.811,-364.827 576.811,-364.827"/>
<path fill="white" stroke="white" d="M637.311,-364.827C643.311,-364.827 649.311,-370.827 649.311,-376.827"/>
<path fill="white" stroke="white" d="M649.311,-388.827C649.311,-394.827 643.311,-400.827 637.311,-400.827"/>
<polyline fill="none" stroke="black" points="637.311,-400.827 576.811,-400.827 "/>
<path fill="none" stroke="black" d="M576.811,-400.827C570.811,-400.827 564.811,-394.827 564.811,-388.827"/>
<polyline fill="none" stroke="black" points="564.811,-388.827 564.811,-376.827 "/>
<path fill="none" stroke="black" d="M564.811,-376.827C564.811,-370.827 570.811,-364.827 576.811,-364.827"/>
<polyline fill="none" stroke="black" points="576.811,-364.827 637.311,-364.827 "/>
<path fill="none" stroke="black" d="M637.311,-364.827C643.311,-364.827 649.311,-370.827 649.311,-376.827"/>
<polyline fill="none" stroke="black" points="649.311,-376.827 649.311,-388.827 "/>
<path fill="none" stroke="black" d="M649.311,-388.827C649.311,-394.827 643.311,-400.827 637.311,-400.827"/>
<text text-anchor="middle" x="607.061" y="-379.127" font-family="Times,serif" font-size="14.00">Отчетность</text>
</g>
<!-- doctype&#45;&#45;doc6 -->
<g id="edge40" class="edge"><title>doctype&#45;&#45;doc6</title>
<path fill="none" stroke="black" d="M461.569,-398.895C489.133,-395.851 532.363,-391.077 564.547,-387.522"/>
</g>
<!-- doc41 -->
<g id="node36" class="node"><title>doc41</title>
<polygon fill="white" stroke="white" points="294.31,-668.138 264.31,-668.138 252.31,-656.138 252.31,-644.138 264.31,-632.138 294.31,-632.138 306.31,-644.138 306.31,-656.138 294.31,-668.138"/>
<path fill="white" stroke="white" d="M264.31,-668.138C258.31,-668.138 252.31,-662.138 252.31,-656.138"/>
<path fill="white" stroke="white" d="M252.31,-644.138C252.31,-638.138 258.31,-632.138 264.31,-632.138"/>
<path fill="white" stroke="white" d="M294.31,-632.138C300.31,-632.138 306.31,-638.138 306.31,-644.138"/>
<path fill="white" stroke="white" d="M306.31,-656.138C306.31,-662.138 300.31,-668.138 294.31,-668.138"/>
<polyline fill="none" stroke="black" points="294.31,-668.138 264.31,-668.138 "/>
<path fill="none" stroke="black" d="M264.31,-668.138C258.31,-668.138 252.31,-662.138 252.31,-656.138"/>
<polyline fill="none" stroke="black" points="252.31,-656.138 252.31,-644.138 "/>
<path fill="none" stroke="black" d="M252.31,-644.138C252.31,-638.138 258.31,-632.138 264.31,-632.138"/>
<polyline fill="none" stroke="black" points="264.31,-632.138 294.31,-632.138 "/>
<path fill="none" stroke="black" d="M294.31,-632.138C300.31,-632.138 306.31,-638.138 306.31,-644.138"/>
<polyline fill="none" stroke="black" points="306.31,-644.138 306.31,-656.138 "/>
<path fill="none" stroke="black" d="M306.31,-656.138C306.31,-662.138 300.31,-668.138 294.31,-668.138"/>
<text text-anchor="middle" x="279.31" y="-646.438" font-family="Times,serif" font-size="14.00">Акт</text>
</g>
<!-- doc4&#45;&#45;doc41 -->
<g id="edge54" class="edge"><title>doc4&#45;&#45;doc41</title>
<path fill="none" stroke="black" d="M368.884,-572.734C349.196,-589.747 319.967,-615.005 300.304,-631.997"/>
</g>
<!-- doc42 -->
<g id="node37" class="node"><title>doc42</title>
<polygon fill="white" stroke="white" points="516.248,-683.822 475.748,-683.822 463.748,-671.822 463.748,-659.822 475.748,-647.822 516.248,-647.822 528.248,-659.822 528.248,-671.822 516.248,-683.822"/>
<path fill="white" stroke="white" d="M475.748,-683.822C469.748,-683.822 463.748,-677.822 463.748,-671.822"/>
<path fill="white" stroke="white" d="M463.748,-659.822C463.748,-653.822 469.748,-647.822 475.748,-647.822"/>
<path fill="white" stroke="white" d="M516.248,-647.822C522.248,-647.822 528.248,-653.822 528.248,-659.822"/>
<path fill="white" stroke="white" d="M528.248,-671.822C528.248,-677.822 522.248,-683.822 516.248,-683.822"/>
<polyline fill="none" stroke="black" points="516.248,-683.822 475.748,-683.822 "/>
<path fill="none" stroke="black" d="M475.748,-683.822C469.748,-683.822 463.748,-677.822 463.748,-671.822"/>
<polyline fill="none" stroke="black" points="463.748,-671.822 463.748,-659.822 "/>
<path fill="none" stroke="black" d="M463.748,-659.822C463.748,-653.822 469.748,-647.822 475.748,-647.822"/>
<polyline fill="none" stroke="black" points="475.748,-647.822 516.248,-647.822 "/>
<path fill="none" stroke="black" d="M516.248,-647.822C522.248,-647.822 528.248,-653.822 528.248,-659.822"/>
<polyline fill="none" stroke="black" points="528.248,-659.822 528.248,-671.822 "/>
<path fill="none" stroke="black" d="M528.248,-671.822C528.248,-677.822 522.248,-683.822 516.248,-683.822"/>
<text text-anchor="middle" x="495.998" y="-662.122" font-family="Times,serif" font-size="14.00">Доверка</text>
</g>
<!-- doc4&#45;&#45;doc42 -->
<g id="edge55" class="edge"><title>doc4&#45;&#45;doc42</title>
<path fill="none" stroke="black" d="M407.467,-572.903C427.232,-593.648 459.183,-627.182 478.813,-647.786"/>
</g>
<!-- doc43 -->
<g id="node38" class="node"><title>doc43</title>
<polygon fill="white" stroke="white" points="289.662,-565.12 249.162,-565.12 237.162,-553.12 237.162,-541.12 249.162,-529.12 289.662,-529.12 301.662,-541.12 301.662,-553.12 289.662,-565.12"/>
<path fill="white" stroke="white" d="M249.162,-565.12C243.162,-565.12 237.162,-559.12 237.162,-553.12"/>
<path fill="white" stroke="white" d="M237.162,-541.12C237.162,-535.12 243.162,-529.12 249.162,-529.12"/>
<path fill="white" stroke="white" d="M289.662,-529.12C295.662,-529.12 301.662,-535.12 301.662,-541.12"/>
<path fill="white" stroke="white" d="M301.662,-553.12C301.662,-559.12 295.662,-565.12 289.662,-565.12"/>
<polyline fill="none" stroke="black" points="289.662,-565.12 249.162,-565.12 "/>
<path fill="none" stroke="black" d="M249.162,-565.12C243.162,-565.12 237.162,-559.12 237.162,-553.12"/>
<polyline fill="none" stroke="black" points="237.162,-553.12 237.162,-541.12 "/>
<path fill="none" stroke="black" d="M237.162,-541.12C237.162,-535.12 243.162,-529.12 249.162,-529.12"/>
<polyline fill="none" stroke="black" points="249.162,-529.12 289.662,-529.12 "/>
<path fill="none" stroke="black" d="M289.662,-529.12C295.662,-529.12 301.662,-535.12 301.662,-541.12"/>
<polyline fill="none" stroke="black" points="301.662,-541.12 301.662,-553.12 "/>
<path fill="none" stroke="black" d="M301.662,-553.12C301.662,-559.12 295.662,-565.12 289.662,-565.12"/>
<text text-anchor="middle" x="269.412" y="-543.42" font-family="Times,serif" font-size="14.00">Договор</text>
</g>
<!-- doc4&#45;&#45;doc43 -->
<g id="edge56" class="edge"><title>doc4&#45;&#45;doc43</title>
<path fill="none" stroke="black" d="M353.462,-552.283C337.108,-551.278 317.973,-550.103 302.095,-549.128"/>
</g>
<!-- doc44 -->
<g id="node39" class="node"><title>doc44</title>
<polygon fill="white" stroke="white" points="262.677,-621.12 232.677,-621.12 220.677,-609.12 220.677,-597.12 232.677,-585.12 262.677,-585.12 274.677,-597.12 274.677,-609.12 262.677,-621.12"/>
<path fill="white" stroke="white" d="M232.677,-621.12C226.677,-621.12 220.677,-615.12 220.677,-609.12"/>
<path fill="white" stroke="white" d="M220.677,-597.12C220.677,-591.12 226.677,-585.12 232.677,-585.12"/>
<path fill="white" stroke="white" d="M262.677,-585.12C268.677,-585.12 274.677,-591.12 274.677,-597.12"/>
<path fill="white" stroke="white" d="M274.677,-609.12C274.677,-615.12 268.677,-621.12 262.677,-621.12"/>
<polyline fill="none" stroke="black" points="262.677,-621.12 232.677,-621.12 "/>
<path fill="none" stroke="black" d="M232.677,-621.12C226.677,-621.12 220.677,-615.12 220.677,-609.12"/>
<polyline fill="none" stroke="black" points="220.677,-609.12 220.677,-597.12 "/>
<path fill="none" stroke="black" d="M220.677,-597.12C220.677,-591.12 226.677,-585.12 232.677,-585.12"/>
<polyline fill="none" stroke="black" points="232.677,-585.12 262.677,-585.12 "/>
<path fill="none" stroke="black" d="M262.677,-585.12C268.677,-585.12 274.677,-591.12 274.677,-597.12"/>
<polyline fill="none" stroke="black" points="274.677,-597.12 274.677,-609.12 "/>
<path fill="none" stroke="black" d="M274.677,-609.12C274.677,-615.12 268.677,-621.12 262.677,-621.12"/>
<text text-anchor="middle" x="247.677" y="-599.42" font-family="Times,serif" font-size="14.00">Счет</text>
</g>
<!-- doc4&#45;&#45;doc44 -->
<g id="edge57" class="edge"><title>doc4&#45;&#45;doc44</title>
<path fill="none" stroke="black" d="M353.685,-566.913C329.15,-575.293 297.264,-586.183 274.896,-593.823"/>
</g>
<!-- doc45 -->
<g id="node40" class="node"><title>doc45</title>
<polygon fill="white" stroke="white" points="443.179,-712.911 388.679,-712.911 376.679,-700.911 376.679,-688.911 388.679,-676.911 443.179,-676.911 455.179,-688.911 455.179,-700.911 443.179,-712.911"/>
<path fill="white" stroke="white" d="M388.679,-712.911C382.679,-712.911 376.679,-706.911 376.679,-700.911"/>
<path fill="white" stroke="white" d="M376.679,-688.911C376.679,-682.911 382.679,-676.911 388.679,-676.911"/>
<path fill="white" stroke="white" d="M443.179,-676.911C449.179,-676.911 455.179,-682.911 455.179,-688.911"/>
<path fill="white" stroke="white" d="M455.179,-700.911C455.179,-706.911 449.179,-712.911 443.179,-712.911"/>
<polyline fill="none" stroke="black" points="443.179,-712.911 388.679,-712.911 "/>
<path fill="none" stroke="black" d="M388.679,-712.911C382.679,-712.911 376.679,-706.911 376.679,-700.911"/>
<polyline fill="none" stroke="black" points="376.679,-700.911 376.679,-688.911 "/>
<path fill="none" stroke="black" d="M376.679,-688.911C376.679,-682.911 382.679,-676.911 388.679,-676.911"/>
<polyline fill="none" stroke="black" points="388.679,-676.911 443.179,-676.911 "/>
<path fill="none" stroke="black" d="M443.179,-676.911C449.179,-676.911 455.179,-682.911 455.179,-688.911"/>
<polyline fill="none" stroke="black" points="455.179,-688.911 455.179,-700.911 "/>
<path fill="none" stroke="black" d="M455.179,-700.911C455.179,-706.911 449.179,-712.911 443.179,-712.911"/>
<text text-anchor="middle" x="415.929" y="-691.211" font-family="Times,serif" font-size="14.00">Накладная</text>
</g>
<!-- doc4&#45;&#45;doc45 -->
<g id="edge58" class="edge"><title>doc4&#45;&#45;doc45</title>
<path fill="none" stroke="black" d="M393.299,-572.59C398.258,-599.398 407.518,-649.445 412.517,-676.469"/>
</g>
<!-- doc46 -->
<g id="node41" class="node"><title>doc46</title>
<polygon fill="white" stroke="white" points="512.703,-626.974 482.703,-626.974 470.703,-614.974 470.703,-602.974 482.703,-590.974 512.703,-590.974 524.703,-602.974 524.703,-614.974 512.703,-626.974"/>
<path fill="white" stroke="white" d="M482.703,-626.974C476.703,-626.974 470.703,-620.974 470.703,-614.974"/>
<path fill="white" stroke="white" d="M470.703,-602.974C470.703,-596.974 476.703,-590.974 482.703,-590.974"/>
<path fill="white" stroke="white" d="M512.703,-590.974C518.703,-590.974 524.703,-596.974 524.703,-602.974"/>
<path fill="white" stroke="white" d="M524.703,-614.974C524.703,-620.974 518.703,-626.974 512.703,-626.974"/>
<polyline fill="none" stroke="black" points="512.703,-626.974 482.703,-626.974 "/>
<path fill="none" stroke="black" d="M482.703,-626.974C476.703,-626.974 470.703,-620.974 470.703,-614.974"/>
<polyline fill="none" stroke="black" points="470.703,-614.974 470.703,-602.974 "/>
<path fill="none" stroke="black" d="M470.703,-602.974C470.703,-596.974 476.703,-590.974 482.703,-590.974"/>
<polyline fill="none" stroke="black" points="482.703,-590.974 512.703,-590.974 "/>
<path fill="none" stroke="black" d="M512.703,-590.974C518.703,-590.974 524.703,-596.974 524.703,-602.974"/>
<polyline fill="none" stroke="black" points="524.703,-602.974 524.703,-614.974 "/>
<path fill="none" stroke="black" d="M524.703,-614.974C524.703,-620.974 518.703,-626.974 512.703,-626.974"/>
<text text-anchor="middle" x="497.703" y="-605.274" font-family="Times,serif" font-size="14.00">СФ</text>
</g>
<!-- doc4&#45;&#45;doc46 -->
<g id="edge59" class="edge"><title>doc4&#45;&#45;doc46</title>
<path fill="none" stroke="black" d="M425.835,-572.656C440.405,-580.019 456.958,-588.384 470.503,-595.229"/>
</g>
<!-- doc47 -->
<g id="node42" class="node"><title>doc47</title>
<polygon fill="white" stroke="white" points="356.364,-700.872 326.364,-700.872 314.364,-688.872 314.364,-676.872 326.364,-664.872 356.364,-664.872 368.364,-676.872 368.364,-688.872 356.364,-700.872"/>
<path fill="white" stroke="white" d="M326.364,-700.872C320.364,-700.872 314.364,-694.872 314.364,-688.872"/>
<path fill="white" stroke="white" d="M314.364,-676.872C314.364,-670.872 320.364,-664.872 326.364,-664.872"/>
<path fill="white" stroke="white" d="M356.364,-664.872C362.364,-664.872 368.364,-670.872 368.364,-676.872"/>
<path fill="white" stroke="white" d="M368.364,-688.872C368.364,-694.872 362.364,-700.872 356.364,-700.872"/>
<polyline fill="none" stroke="black" points="356.364,-700.872 326.364,-700.872 "/>
<path fill="none" stroke="black" d="M326.364,-700.872C320.364,-700.872 314.364,-694.872 314.364,-688.872"/>
<polyline fill="none" stroke="black" points="314.364,-688.872 314.364,-676.872 "/>
<path fill="none" stroke="black" d="M314.364,-676.872C314.364,-670.872 320.364,-664.872 326.364,-664.872"/>
<polyline fill="none" stroke="black" points="326.364,-664.872 356.364,-664.872 "/>
<path fill="none" stroke="black" d="M356.364,-664.872C362.364,-664.872 368.364,-670.872 368.364,-676.872"/>
<polyline fill="none" stroke="black" points="368.364,-676.872 368.364,-688.872 "/>
<path fill="none" stroke="black" d="M368.364,-688.872C368.364,-694.872 362.364,-700.872 356.364,-700.872"/>
<text text-anchor="middle" x="341.364" y="-679.172" font-family="Times,serif" font-size="14.00">ТТН</text>
</g>
<!-- doc4&#45;&#45;doc47 -->
<g id="edge60" class="edge"><title>doc4&#45;&#45;doc47</title>
<path fill="none" stroke="black" d="M383.097,-572.642C373.836,-597.103 357.431,-640.434 348.188,-664.847"/>
</g>
<!-- doc6&#45;&#45;year -->
<g id="edge50" class="edge"><title>doc6&#45;&#45;year</title>
<path fill="none" stroke="black" stroke-dasharray="5,2" d="M613.682,-364.626C623.441,-337.798 641.573,-287.949 651.241,-261.372"/>
</g>
<!-- doc6&#45;&#45;quarter -->
<g id="edge51" class="edge"><title>doc6&#45;&#45;quarter</title>
<path fill="none" stroke="black" stroke-dasharray="5,2" d="M649.635,-383.924C664.151,-384.299 680.368,-384.717 694.856,-385.09"/>
</g>
<!-- doc61 -->
<g id="node43" class="node"><title>doc61</title>
<polygon fill="white" stroke="white" points="701.059,-531.831 639.059,-531.831 627.059,-519.831 627.059,-507.831 639.059,-495.831 701.059,-495.831 713.059,-507.831 713.059,-519.831 701.059,-531.831"/>
<path fill="white" stroke="white" d="M639.059,-531.831C633.059,-531.831 627.059,-525.831 627.059,-519.831"/>
<path fill="white" stroke="white" d="M627.059,-507.831C627.059,-501.831 633.059,-495.831 639.059,-495.831"/>
<path fill="white" stroke="white" d="M701.059,-495.831C707.059,-495.831 713.059,-501.831 713.059,-507.831"/>
<path fill="white" stroke="white" d="M713.059,-519.831C713.059,-525.831 707.059,-531.831 701.059,-531.831"/>
<polyline fill="none" stroke="black" points="701.059,-531.831 639.059,-531.831 "/>
<path fill="none" stroke="black" d="M639.059,-531.831C633.059,-531.831 627.059,-525.831 627.059,-519.831"/>
<polyline fill="none" stroke="black" points="627.059,-519.831 627.059,-507.831 "/>
<path fill="none" stroke="black" d="M627.059,-507.831C627.059,-501.831 633.059,-495.831 639.059,-495.831"/>
<polyline fill="none" stroke="black" points="639.059,-495.831 701.059,-495.831 "/>
<path fill="none" stroke="black" d="M701.059,-495.831C707.059,-495.831 713.059,-501.831 713.059,-507.831"/>
<polyline fill="none" stroke="black" points="713.059,-507.831 713.059,-519.831 "/>
<path fill="none" stroke="black" d="M713.059,-519.831C713.059,-525.831 707.059,-531.831 701.059,-531.831"/>
<text text-anchor="middle" x="670.059" y="-510.131" font-family="Times,serif" font-size="14.00">Декларация</text>
</g>
<!-- doc6&#45;&#45;doc61 -->
<g id="edge63" class="edge"><title>doc6&#45;&#45;doc61</title>
<path fill="none" stroke="black" d="M615.821,-401.042C627.857,-426.071 649.377,-470.823 661.374,-495.77"/>
</g>
<!-- doc611 -->
<g id="node44" class="node"><title>doc611</title>
<polygon fill="white" stroke="white" points="775.24,-647.126 717.24,-647.126 705.24,-635.126 705.24,-623.126 717.24,-611.126 775.24,-611.126 787.24,-623.126 787.24,-635.126 775.24,-647.126"/>
<path fill="white" stroke="white" d="M717.24,-647.126C711.24,-647.126 705.24,-641.126 705.24,-635.126"/>
<path fill="white" stroke="white" d="M705.24,-623.126C705.24,-617.126 711.24,-611.126 717.24,-611.126"/>
<path fill="white" stroke="white" d="M775.24,-611.126C781.24,-611.126 787.24,-617.126 787.24,-623.126"/>
<path fill="white" stroke="white" d="M787.24,-635.126C787.24,-641.126 781.24,-647.126 775.24,-647.126"/>
<polyline fill="none" stroke="black" points="775.24,-647.126 717.24,-647.126 "/>
<path fill="none" stroke="black" d="M717.24,-647.126C711.24,-647.126 705.24,-641.126 705.24,-635.126"/>
<polyline fill="none" stroke="black" points="705.24,-635.126 705.24,-623.126 "/>
<path fill="none" stroke="black" d="M705.24,-623.126C705.24,-617.126 711.24,-611.126 717.24,-611.126"/>
<polyline fill="none" stroke="black" points="717.24,-611.126 775.24,-611.126 "/>
<path fill="none" stroke="black" d="M775.24,-611.126C781.24,-611.126 787.24,-617.126 787.24,-623.126"/>
<polyline fill="none" stroke="black" points="787.24,-623.126 787.24,-635.126 "/>
<path fill="none" stroke="black" d="M787.24,-635.126C787.24,-641.126 781.24,-647.126 775.24,-647.126"/>
<text text-anchor="middle" x="746.24" y="-625.426" font-family="Times,serif" font-size="14.00">имущество</text>
</g>
<!-- doc61&#45;&#45;doc611 -->
<g id="edge66" class="edge"><title>doc61&#45;&#45;doc611</title>
<path fill="none" stroke="black" d="M681.962,-531.846C696.19,-553.379 719.867,-589.212 734.169,-610.857"/>
</g>
<!-- doc612 -->
<g id="node45" class="node"><title>doc612</title>
<polygon fill="white" stroke="white" points="685.172,-669.044 655.172,-669.044 643.172,-657.044 643.172,-645.044 655.172,-633.044 685.172,-633.044 697.172,-645.044 697.172,-657.044 685.172,-669.044"/>
<path fill="white" stroke="white" d="M655.172,-669.044C649.172,-669.044 643.172,-663.044 643.172,-657.044"/>
<path fill="white" stroke="white" d="M643.172,-645.044C643.172,-639.044 649.172,-633.044 655.172,-633.044"/>
<path fill="white" stroke="white" d="M685.172,-633.044C691.172,-633.044 697.172,-639.044 697.172,-645.044"/>
<path fill="white" stroke="white" d="M697.172,-657.044C697.172,-663.044 691.172,-669.044 685.172,-669.044"/>
<polyline fill="none" stroke="black" points="685.172,-669.044 655.172,-669.044 "/>
<path fill="none" stroke="black" d="M655.172,-669.044C649.172,-669.044 643.172,-663.044 643.172,-657.044"/>
<polyline fill="none" stroke="black" points="643.172,-657.044 643.172,-645.044 "/>
<path fill="none" stroke="black" d="M643.172,-645.044C643.172,-639.044 649.172,-633.044 655.172,-633.044"/>
<polyline fill="none" stroke="black" points="655.172,-633.044 685.172,-633.044 "/>
<path fill="none" stroke="black" d="M685.172,-633.044C691.172,-633.044 697.172,-639.044 697.172,-645.044"/>
<polyline fill="none" stroke="black" points="697.172,-645.044 697.172,-657.044 "/>
<path fill="none" stroke="black" d="M697.172,-657.044C697.172,-663.044 691.172,-669.044 685.172,-669.044"/>
<text text-anchor="middle" x="670.172" y="-647.344" font-family="Times,serif" font-size="14.00">НДС</text>
</g>
<!-- doc61&#45;&#45;doc612 -->
<g id="edge67" class="edge"><title>doc61&#45;&#45;doc612</title>
<path fill="none" stroke="black" d="M670.074,-532.052C670.095,-558.296 670.135,-606.462 670.157,-632.748"/>
</g>
<!-- doc613 -->
<g id="node46" class="node"><title>doc613</title>
<polygon fill="white" stroke="white" points="813.451,-585.587 770.951,-585.587 758.951,-573.587 758.951,-561.587 770.951,-549.587 813.451,-549.587 825.451,-561.587 825.451,-573.587 813.451,-585.587"/>
<path fill="white" stroke="white" d="M770.951,-585.587C764.951,-585.587 758.951,-579.587 758.951,-573.587"/>
<path fill="white" stroke="white" d="M758.951,-561.587C758.951,-555.587 764.951,-549.587 770.951,-549.587"/>
<path fill="white" stroke="white" d="M813.451,-549.587C819.451,-549.587 825.451,-555.587 825.451,-561.587"/>
<path fill="white" stroke="white" d="M825.451,-573.587C825.451,-579.587 819.451,-585.587 813.451,-585.587"/>
<polyline fill="none" stroke="black" points="813.451,-585.587 770.951,-585.587 "/>
<path fill="none" stroke="black" d="M770.951,-585.587C764.951,-585.587 758.951,-579.587 758.951,-573.587"/>
<polyline fill="none" stroke="black" points="758.951,-573.587 758.951,-561.587 "/>
<path fill="none" stroke="black" d="M758.951,-561.587C758.951,-555.587 764.951,-549.587 770.951,-549.587"/>
<polyline fill="none" stroke="black" points="770.951,-549.587 813.451,-549.587 "/>
<path fill="none" stroke="black" d="M813.451,-549.587C819.451,-549.587 825.451,-555.587 825.451,-561.587"/>
<polyline fill="none" stroke="black" points="825.451,-561.587 825.451,-573.587 "/>
<path fill="none" stroke="black" d="M825.451,-573.587C825.451,-579.587 819.451,-585.587 813.451,-585.587"/>
<text text-anchor="middle" x="792.201" y="-563.887" font-family="Times,serif" font-size="14.00">прибыль</text>
</g>
<!-- doc61&#45;&#45;doc613 -->
<g id="edge68" class="edge"><title>doc61&#45;&#45;doc613</title>
<path fill="none" stroke="black" d="M711.07,-531.88C726.456,-538.652 743.752,-546.264 758.41,-552.715"/>
</g>
</g>
</svg>
