<?xml version="1.0" encoding="UTF-8" standalone="no"?>
<!DOCTYPE svg PUBLIC "-//W3C//DTD SVG 1.1//EN"
 "http://www.w3.org/Graphics/SVG/1.1/DTD/svg11.dtd">
<!-- Generated by graphviz version 2.28.0 (20120228.1926)
 -->
<!-- Title: DasArchive Pages: 1 -->
<svg width="602pt" height="670pt"
 viewBox="0.00 0.00 601.58 669.57" xmlns="http://www.w3.org/2000/svg" xmlns:xlink="http://www.w3.org/1999/xlink">
<g id="graph1" class="graph" transform="scale(1 1) rotate(0) translate(4 665.572)">
<title>DasArchive</title>
<polygon fill="white" stroke="white" points="-4,5 -4,-665.572 598.58,-665.572 598.58,5 -4,5"/>
<!-- n0 -->
<g id="node2" class="node"><title>n0</title>
<ellipse fill="grey" stroke="black" cx="300.716" cy="-408.6" rx="24.0718" ry="24.0958"/>
<text text-anchor="middle" x="300.716" y="-404.9" font-family="Times,serif" font-size="14.00">dox</text>
</g>
<!-- depart -->
<g id="node5" class="node"><title>depart</title>
<ellipse fill="lightgreen" stroke="black" cx="529.303" cy="-407.696" rx="34.1708" ry="18"/>
<text text-anchor="middle" x="529.303" y="-403.996" font-family="Times,serif" font-size="14.00">Отдел</text>
</g>
<!-- n0&#45;&#45;depart -->
<g id="edge44" class="edge"><title>n0&#45;&#45;depart</title>
<path fill="none" stroke="black" stroke-dasharray="5,2" d="M325.179,-408.503C365.95,-408.342 447.923,-408.018 494.632,-407.833"/>
</g>
<!-- doer -->
<g id="node6" class="node"><title>doer</title>
<ellipse fill="lightgreen" stroke="black" cx="465.317" cy="-562.333" rx="60.1672" ry="18"/>
<text text-anchor="middle" x="465.317" y="-558.633" font-family="Times,serif" font-size="14.00">Исполнитель</text>
</g>
<!-- n0&#45;&#45;doer -->
<g id="edge45" class="edge"><title>n0&#45;&#45;doer</title>
<path fill="none" stroke="black" stroke-dasharray="5,2" d="M318.331,-425.052C349.68,-454.331 414.856,-515.204 446.825,-545.061"/>
</g>
<!-- partner -->
<g id="node7" class="node"><title>partner</title>
<ellipse fill="lightgreen" stroke="black" cx="266.141" cy="-620.795" rx="54.3924" ry="18"/>
<text text-anchor="middle" x="266.141" y="-617.095" font-family="Times,serif" font-size="14.00">Контрагент</text>
</g>
<!-- n0&#45;&#45;partner -->
<g id="edge46" class="edge"><title>n0&#45;&#45;partner</title>
<path fill="none" stroke="black" stroke-dasharray="5,2" d="M296.817,-432.529C289.823,-475.45 275.298,-564.599 269.075,-602.792"/>
</g>
<!-- year -->
<g id="node9" class="node"><title>year</title>
<ellipse fill="lightyellow" stroke="black" cx="115.482" cy="-510.944" rx="27" ry="18"/>
<text text-anchor="middle" x="115.482" y="-507.244" font-family="Times,serif" font-size="14.00">Год</text>
</g>
<!-- n0&#45;&#45;year -->
<g id="edge47" class="edge"><title>n0&#45;&#45;year</title>
<path fill="none" stroke="black" stroke-dasharray="5,2" d="M279.467,-420.34C243.736,-440.081 172.047,-479.691 136.483,-499.34"/>
</g>
<!-- quarter -->
<g id="node10" class="node"><title>quarter</title>
<ellipse fill="lightyellow" stroke="black" cx="97.4224" cy="-348.736" rx="42.3701" ry="18"/>
<text text-anchor="middle" x="97.4224" y="-345.036" font-family="Times,serif" font-size="14.00">Квартал</text>
</g>
<!-- n0&#45;&#45;quarter -->
<g id="edge48" class="edge"><title>n0&#45;&#45;quarter</title>
<path fill="none" stroke="black" stroke-dasharray="5,2" d="M277.395,-401.732C241.831,-391.26 173.808,-371.229 132.337,-359.018"/>
</g>
<!-- doctype -->
<g id="node11" class="node"><title>doctype</title>
<ellipse fill="lightyellow" stroke="black" cx="325.499" cy="-180.302" rx="27" ry="18"/>
<text text-anchor="middle" x="325.499" y="-176.602" font-family="Times,serif" font-size="14.00">Тип</text>
</g>
<!-- n0&#45;&#45;doctype -->
<g id="edge49" class="edge"><title>n0&#45;&#45;doctype</title>
<path fill="none" stroke="black" stroke-dasharray="5,2" d="M303.321,-384.599C308.305,-338.692 319.086,-239.377 323.527,-198.472"/>
</g>
<!-- depart1 -->
<g id="node21" class="node"><title>depart1</title>
<polygon fill="white" stroke="white" points="507.121,-381.675 477.121,-381.675 465.121,-369.675 465.121,-357.675 477.121,-345.675 507.121,-345.675 519.121,-357.675 519.121,-369.675 507.121,-381.675"/>
<path fill="white" stroke="white" d="M477.121,-381.675C471.121,-381.675 465.121,-375.675 465.121,-369.675"/>
<path fill="white" stroke="white" d="M465.121,-357.675C465.121,-351.675 471.121,-345.675 477.121,-345.675"/>
<path fill="white" stroke="white" d="M507.121,-345.675C513.121,-345.675 519.121,-351.675 519.121,-357.675"/>
<path fill="white" stroke="white" d="M519.121,-369.675C519.121,-375.675 513.121,-381.675 507.121,-381.675"/>
<polyline fill="none" stroke="black" points="507.121,-381.675 477.121,-381.675 "/>
<path fill="none" stroke="black" d="M477.121,-381.675C471.121,-381.675 465.121,-375.675 465.121,-369.675"/>
<polyline fill="none" stroke="black" points="465.121,-369.675 465.121,-357.675 "/>
<path fill="none" stroke="black" d="M465.121,-357.675C465.121,-351.675 471.121,-345.675 477.121,-345.675"/>
<polyline fill="none" stroke="black" points="477.121,-345.675 507.121,-345.675 "/>
<path fill="none" stroke="black" d="M507.121,-345.675C513.121,-345.675 519.121,-351.675 519.121,-357.675"/>
<polyline fill="none" stroke="black" points="519.121,-357.675 519.121,-369.675 "/>
<path fill="none" stroke="black" d="M519.121,-369.675C519.121,-375.675 513.121,-381.675 507.121,-381.675"/>
<text text-anchor="middle" x="492.121" y="-359.975" font-family="Times,serif" font-size="14.00">Юр</text>
</g>
<!-- depart&#45;&#45;depart1 -->
<g id="edge20" class="edge"><title>depart&#45;&#45;depart1</title>
<path fill="none" stroke="black" d="M515.246,-391.054C512.696,-388.035 510.025,-384.872 507.44,-381.813"/>
</g>
<!-- depart2 -->
<g id="node22" class="node"><title>depart2</title>
<polygon fill="white" stroke="white" points="581.092,-381.279 551.092,-381.279 539.092,-369.279 539.092,-357.279 551.092,-345.279 581.092,-345.279 593.092,-357.279 593.092,-369.279 581.092,-381.279"/>
<path fill="white" stroke="white" d="M551.092,-381.279C545.092,-381.279 539.092,-375.279 539.092,-369.279"/>
<path fill="white" stroke="white" d="M539.092,-357.279C539.092,-351.279 545.092,-345.279 551.092,-345.279"/>
<path fill="white" stroke="white" d="M581.092,-345.279C587.092,-345.279 593.092,-351.279 593.092,-357.279"/>
<path fill="white" stroke="white" d="M593.092,-369.279C593.092,-375.279 587.092,-381.279 581.092,-381.279"/>
<polyline fill="none" stroke="black" points="581.092,-381.279 551.092,-381.279 "/>
<path fill="none" stroke="black" d="M551.092,-381.279C545.092,-381.279 539.092,-375.279 539.092,-369.279"/>
<polyline fill="none" stroke="black" points="539.092,-369.279 539.092,-357.279 "/>
<path fill="none" stroke="black" d="M539.092,-357.279C539.092,-351.279 545.092,-345.279 551.092,-345.279"/>
<polyline fill="none" stroke="black" points="551.092,-345.279 581.092,-345.279 "/>
<path fill="none" stroke="black" d="M581.092,-345.279C587.092,-345.279 593.092,-351.279 593.092,-357.279"/>
<polyline fill="none" stroke="black" points="593.092,-357.279 593.092,-369.279 "/>
<path fill="none" stroke="black" d="M593.092,-369.279C593.092,-375.279 587.092,-381.279 581.092,-381.279"/>
<text text-anchor="middle" x="566.092" y="-359.579" font-family="Times,serif" font-size="14.00">Бух</text>
</g>
<!-- depart&#45;&#45;depart2 -->
<g id="edge21" class="edge"><title>depart&#45;&#45;depart2</title>
<path fill="none" stroke="black" d="M543.002,-391.157C545.617,-388 548.367,-384.679 551.022,-381.473"/>
</g>
<!-- depart3 -->
<g id="node23" class="node"><title>depart3</title>
<polygon fill="white" stroke="white" points="581.58,-469.705 551.58,-469.705 539.58,-457.705 539.58,-445.705 551.58,-433.705 581.58,-433.705 593.58,-445.705 593.58,-457.705 581.58,-469.705"/>
<path fill="white" stroke="white" d="M551.58,-469.705C545.58,-469.705 539.58,-463.705 539.58,-457.705"/>
<path fill="white" stroke="white" d="M539.58,-445.705C539.58,-439.705 545.58,-433.705 551.58,-433.705"/>
<path fill="white" stroke="white" d="M581.58,-433.705C587.58,-433.705 593.58,-439.705 593.58,-445.705"/>
<path fill="white" stroke="white" d="M593.58,-457.705C593.58,-463.705 587.58,-469.705 581.58,-469.705"/>
<polyline fill="none" stroke="black" points="581.58,-469.705 551.58,-469.705 "/>
<path fill="none" stroke="black" d="M551.58,-469.705C545.58,-469.705 539.58,-463.705 539.58,-457.705"/>
<polyline fill="none" stroke="black" points="539.58,-457.705 539.58,-445.705 "/>
<path fill="none" stroke="black" d="M539.58,-445.705C539.58,-439.705 545.58,-433.705 551.58,-433.705"/>
<polyline fill="none" stroke="black" points="551.58,-433.705 581.58,-433.705 "/>
<path fill="none" stroke="black" d="M581.58,-433.705C587.58,-433.705 593.58,-439.705 593.58,-445.705"/>
<polyline fill="none" stroke="black" points="593.58,-445.705 593.58,-457.705 "/>
<path fill="none" stroke="black" d="M593.58,-457.705C593.58,-463.705 587.58,-469.705 581.58,-469.705"/>
<text text-anchor="middle" x="566.58" y="-448.005" font-family="Times,serif" font-size="14.00">ОК</text>
</g>
<!-- depart&#45;&#45;depart3 -->
<g id="edge22" class="edge"><title>depart&#45;&#45;depart3</title>
<path fill="none" stroke="black" d="M543.396,-424.334C545.952,-427.353 548.63,-430.514 551.221,-433.573"/>
</g>
<!-- depart4 -->
<g id="node24" class="node"><title>depart4</title>
<polygon fill="white" stroke="white" points="506.775,-469.712 476.775,-469.712 464.775,-457.712 464.775,-445.712 476.775,-433.712 506.775,-433.712 518.775,-445.712 518.775,-457.712 506.775,-469.712"/>
<path fill="white" stroke="white" d="M476.775,-469.712C470.775,-469.712 464.775,-463.712 464.775,-457.712"/>
<path fill="white" stroke="white" d="M464.775,-445.712C464.775,-439.712 470.775,-433.712 476.775,-433.712"/>
<path fill="white" stroke="white" d="M506.775,-433.712C512.775,-433.712 518.775,-439.712 518.775,-445.712"/>
<path fill="white" stroke="white" d="M518.775,-457.712C518.775,-463.712 512.775,-469.712 506.775,-469.712"/>
<polyline fill="none" stroke="black" points="506.775,-469.712 476.775,-469.712 "/>
<path fill="none" stroke="black" d="M476.775,-469.712C470.775,-469.712 464.775,-463.712 464.775,-457.712"/>
<polyline fill="none" stroke="black" points="464.775,-457.712 464.775,-445.712 "/>
<path fill="none" stroke="black" d="M464.775,-445.712C464.775,-439.712 470.775,-433.712 476.775,-433.712"/>
<polyline fill="none" stroke="black" points="476.775,-433.712 506.775,-433.712 "/>
<path fill="none" stroke="black" d="M506.775,-433.712C512.775,-433.712 518.775,-439.712 518.775,-445.712"/>
<polyline fill="none" stroke="black" points="518.775,-445.712 518.775,-457.712 "/>
<path fill="none" stroke="black" d="M518.775,-457.712C518.775,-463.712 512.775,-469.712 506.775,-469.712"/>
<text text-anchor="middle" x="491.775" y="-448.012" font-family="Times,serif" font-size="14.00">ИТ</text>
</g>
<!-- depart&#45;&#45;depart4 -->
<g id="edge23" class="edge"><title>depart&#45;&#45;depart4</title>
<path fill="none" stroke="black" d="M515.115,-424.337C512.541,-427.356 509.845,-430.518 507.237,-433.577"/>
</g>
<!-- doer1 -->
<g id="node25" class="node"><title>doer1</title>
<polygon fill="white" stroke="white" points="494.224,-536.319 459.724,-536.319 447.724,-524.319 447.724,-512.319 459.724,-500.319 494.224,-500.319 506.224,-512.319 506.224,-524.319 494.224,-536.319"/>
<path fill="white" stroke="white" d="M459.724,-536.319C453.724,-536.319 447.724,-530.319 447.724,-524.319"/>
<path fill="white" stroke="white" d="M447.724,-512.319C447.724,-506.319 453.724,-500.319 459.724,-500.319"/>
<path fill="white" stroke="white" d="M494.224,-500.319C500.224,-500.319 506.224,-506.319 506.224,-512.319"/>
<path fill="white" stroke="white" d="M506.224,-524.319C506.224,-530.319 500.224,-536.319 494.224,-536.319"/>
<polyline fill="none" stroke="black" points="494.224,-536.319 459.724,-536.319 "/>
<path fill="none" stroke="black" d="M459.724,-536.319C453.724,-536.319 447.724,-530.319 447.724,-524.319"/>
<polyline fill="none" stroke="black" points="447.724,-524.319 447.724,-512.319 "/>
<path fill="none" stroke="black" d="M447.724,-512.319C447.724,-506.319 453.724,-500.319 459.724,-500.319"/>
<polyline fill="none" stroke="black" points="459.724,-500.319 494.224,-500.319 "/>
<path fill="none" stroke="black" d="M494.224,-500.319C500.224,-500.319 506.224,-506.319 506.224,-512.319"/>
<polyline fill="none" stroke="black" points="506.224,-512.319 506.224,-524.319 "/>
<path fill="none" stroke="black" d="M506.224,-524.319C506.224,-530.319 500.224,-536.319 494.224,-536.319"/>
<text text-anchor="middle" x="476.974" y="-514.619" font-family="Times,serif" font-size="14.00">Иванов</text>
</g>
<!-- doer&#45;&#45;doer1 -->
<g id="edge26" class="edge"><title>doer&#45;&#45;doer1</title>
<path fill="none" stroke="black" d="M470.126,-544.176C470.803,-541.619 471.499,-538.99 472.177,-536.433"/>
</g>
<!-- doer2 -->
<g id="node26" class="node"><title>doer2</title>
<polygon fill="white" stroke="white" points="522.691,-624.863 488.191,-624.863 476.191,-612.863 476.191,-600.863 488.191,-588.863 522.691,-588.863 534.691,-600.863 534.691,-612.863 522.691,-624.863"/>
<path fill="white" stroke="white" d="M488.191,-624.863C482.191,-624.863 476.191,-618.863 476.191,-612.863"/>
<path fill="white" stroke="white" d="M476.191,-600.863C476.191,-594.863 482.191,-588.863 488.191,-588.863"/>
<path fill="white" stroke="white" d="M522.691,-588.863C528.691,-588.863 534.691,-594.863 534.691,-600.863"/>
<path fill="white" stroke="white" d="M534.691,-612.863C534.691,-618.863 528.691,-624.863 522.691,-624.863"/>
<polyline fill="none" stroke="black" points="522.691,-624.863 488.191,-624.863 "/>
<path fill="none" stroke="black" d="M488.191,-624.863C482.191,-624.863 476.191,-618.863 476.191,-612.863"/>
<polyline fill="none" stroke="black" points="476.191,-612.863 476.191,-600.863 "/>
<path fill="none" stroke="black" d="M476.191,-600.863C476.191,-594.863 482.191,-588.863 488.191,-588.863"/>
<polyline fill="none" stroke="black" points="488.191,-588.863 522.691,-588.863 "/>
<path fill="none" stroke="black" d="M522.691,-588.863C528.691,-588.863 534.691,-594.863 534.691,-600.863"/>
<polyline fill="none" stroke="black" points="534.691,-600.863 534.691,-612.863 "/>
<path fill="none" stroke="black" d="M534.691,-612.863C534.691,-618.863 528.691,-624.863 522.691,-624.863"/>
<text text-anchor="middle" x="505.441" y="-603.163" font-family="Times,serif" font-size="14.00">Петров</text>
</g>
<!-- doer&#45;&#45;doer2 -->
<g id="edge27" class="edge"><title>doer&#45;&#45;doer2</title>
<path fill="none" stroke="black" d="M481.175,-579.932C483.804,-582.85 486.533,-585.879 489.172,-588.807"/>
</g>
<!-- doer3 -->
<g id="node27" class="node"><title>doer3</title>
<polygon fill="white" stroke="white" points="384.815,-603.823 340.815,-603.823 328.815,-591.823 328.815,-579.823 340.815,-567.823 384.815,-567.823 396.815,-579.823 396.815,-591.823 384.815,-603.823"/>
<path fill="white" stroke="white" d="M340.815,-603.823C334.815,-603.823 328.815,-597.823 328.815,-591.823"/>
<path fill="white" stroke="white" d="M328.815,-579.823C328.815,-573.823 334.815,-567.823 340.815,-567.823"/>
<path fill="white" stroke="white" d="M384.815,-567.823C390.815,-567.823 396.815,-573.823 396.815,-579.823"/>
<path fill="white" stroke="white" d="M396.815,-591.823C396.815,-597.823 390.815,-603.823 384.815,-603.823"/>
<polyline fill="none" stroke="black" points="384.815,-603.823 340.815,-603.823 "/>
<path fill="none" stroke="black" d="M340.815,-603.823C334.815,-603.823 328.815,-597.823 328.815,-591.823"/>
<polyline fill="none" stroke="black" points="328.815,-591.823 328.815,-579.823 "/>
<path fill="none" stroke="black" d="M328.815,-579.823C328.815,-573.823 334.815,-567.823 340.815,-567.823"/>
<polyline fill="none" stroke="black" points="340.815,-567.823 384.815,-567.823 "/>
<path fill="none" stroke="black" d="M384.815,-567.823C390.815,-567.823 396.815,-573.823 396.815,-579.823"/>
<polyline fill="none" stroke="black" points="396.815,-579.823 396.815,-591.823 "/>
<path fill="none" stroke="black" d="M396.815,-591.823C396.815,-597.823 390.815,-603.823 384.815,-603.823"/>
<text text-anchor="middle" x="362.815" y="-582.123" font-family="Times,serif" font-size="14.00">Сидоров</text>
</g>
<!-- doer&#45;&#45;doer3 -->
<g id="edge28" class="edge"><title>doer&#45;&#45;doer3</title>
<path fill="none" stroke="black" d="M417.367,-573.321C410.49,-574.898 403.532,-576.492 396.994,-577.991"/>
</g>
<!-- partner1 -->
<g id="node28" class="node"><title>partner1</title>
<polygon fill="white" stroke="white" points="422.643,-661.572 342.143,-661.572 330.143,-649.572 330.143,-637.572 342.143,-625.572 422.643,-625.572 434.643,-637.572 434.643,-649.572 422.643,-661.572"/>
<path fill="white" stroke="white" d="M342.143,-661.572C336.143,-661.572 330.143,-655.572 330.143,-649.572"/>
<path fill="white" stroke="white" d="M330.143,-637.572C330.143,-631.572 336.143,-625.572 342.143,-625.572"/>
<path fill="white" stroke="white" d="M422.643,-625.572C428.643,-625.572 434.643,-631.572 434.643,-637.572"/>
<path fill="white" stroke="white" d="M434.643,-649.572C434.643,-655.572 428.643,-661.572 422.643,-661.572"/>
<polyline fill="none" stroke="black" points="422.643,-661.572 342.143,-661.572 "/>
<path fill="none" stroke="black" d="M342.143,-661.572C336.143,-661.572 330.143,-655.572 330.143,-649.572"/>
<polyline fill="none" stroke="black" points="330.143,-649.572 330.143,-637.572 "/>
<path fill="none" stroke="black" d="M330.143,-637.572C330.143,-631.572 336.143,-625.572 342.143,-625.572"/>
<polyline fill="none" stroke="black" points="342.143,-625.572 422.643,-625.572 "/>
<path fill="none" stroke="black" d="M422.643,-625.572C428.643,-625.572 434.643,-631.572 434.643,-637.572"/>
<polyline fill="none" stroke="black" points="434.643,-637.572 434.643,-649.572 "/>
<path fill="none" stroke="black" d="M434.643,-649.572C434.643,-655.572 428.643,-661.572 422.643,-661.572"/>
<text text-anchor="middle" x="382.393" y="-639.872" font-family="Times,serif" font-size="14.00">Ромашка, ООО</text>
</g>
<!-- partner&#45;&#45;partner1 -->
<g id="edge31" class="edge"><title>partner&#45;&#45;partner1</title>
<path fill="none" stroke="black" d="M313.09,-629.994C318.509,-631.056 324.063,-632.144 329.554,-633.22"/>
</g>
<!-- partner2 -->
<g id="node29" class="node"><title>partner2</title>
<polygon fill="white" stroke="white" points="191.499,-616.991 123.499,-616.991 111.499,-604.991 111.499,-592.991 123.499,-580.991 191.499,-580.991 203.499,-592.991 203.499,-604.991 191.499,-616.991"/>
<path fill="white" stroke="white" d="M123.499,-616.991C117.499,-616.991 111.499,-610.991 111.499,-604.991"/>
<path fill="white" stroke="white" d="M111.499,-592.991C111.499,-586.991 117.499,-580.991 123.499,-580.991"/>
<path fill="white" stroke="white" d="M191.499,-580.991C197.499,-580.991 203.499,-586.991 203.499,-592.991"/>
<path fill="white" stroke="white" d="M203.499,-604.991C203.499,-610.991 197.499,-616.991 191.499,-616.991"/>
<polyline fill="none" stroke="black" points="191.499,-616.991 123.499,-616.991 "/>
<path fill="none" stroke="black" d="M123.499,-616.991C117.499,-616.991 111.499,-610.991 111.499,-604.991"/>
<polyline fill="none" stroke="black" points="111.499,-604.991 111.499,-592.991 "/>
<path fill="none" stroke="black" d="M111.499,-592.991C111.499,-586.991 117.499,-580.991 123.499,-580.991"/>
<polyline fill="none" stroke="black" points="123.499,-580.991 191.499,-580.991 "/>
<path fill="none" stroke="black" d="M191.499,-580.991C197.499,-580.991 203.499,-586.991 203.499,-592.991"/>
<polyline fill="none" stroke="black" points="203.499,-592.991 203.499,-604.991 "/>
<path fill="none" stroke="black" d="M203.499,-604.991C203.499,-610.991 197.499,-616.991 191.499,-616.991"/>
<text text-anchor="middle" x="157.499" y="-595.291" font-family="Times,serif" font-size="14.00">Вектор, ЗАО</text>
</g>
<!-- partner&#45;&#45;partner2 -->
<g id="edge32" class="edge"><title>partner&#45;&#45;partner2</title>
<path fill="none" stroke="black" d="M219.436,-611.421C214.26,-610.383 208.99,-609.325 203.819,-608.287"/>
</g>
<!-- year2010 -->
<g id="node13" class="node"><title>year2010</title>
<polygon fill="white" stroke="white" points="192.758,-544.325 162.758,-544.325 150.758,-532.325 150.758,-520.325 162.758,-508.325 192.758,-508.325 204.758,-520.325 204.758,-532.325 192.758,-544.325"/>
<path fill="white" stroke="white" d="M162.758,-544.325C156.758,-544.325 150.758,-538.325 150.758,-532.325"/>
<path fill="white" stroke="white" d="M150.758,-520.325C150.758,-514.325 156.758,-508.325 162.758,-508.325"/>
<path fill="white" stroke="white" d="M192.758,-508.325C198.758,-508.325 204.758,-514.325 204.758,-520.325"/>
<path fill="white" stroke="white" d="M204.758,-532.325C204.758,-538.325 198.758,-544.325 192.758,-544.325"/>
<polyline fill="none" stroke="black" points="192.758,-544.325 162.758,-544.325 "/>
<path fill="none" stroke="black" d="M162.758,-544.325C156.758,-544.325 150.758,-538.325 150.758,-532.325"/>
<polyline fill="none" stroke="black" points="150.758,-532.325 150.758,-520.325 "/>
<path fill="none" stroke="black" d="M150.758,-520.325C150.758,-514.325 156.758,-508.325 162.758,-508.325"/>
<polyline fill="none" stroke="black" points="162.758,-508.325 192.758,-508.325 "/>
<path fill="none" stroke="black" d="M192.758,-508.325C198.758,-508.325 204.758,-514.325 204.758,-520.325"/>
<polyline fill="none" stroke="black" points="204.758,-520.325 204.758,-532.325 "/>
<path fill="none" stroke="black" d="M204.758,-532.325C204.758,-538.325 198.758,-544.325 192.758,-544.325"/>
<text text-anchor="middle" x="177.758" y="-522.625" font-family="Times,serif" font-size="14.00">2010</text>
</g>
<!-- year&#45;&#45;year2010 -->
<g id="edge8" class="edge"><title>year&#45;&#45;year2010</title>
<path fill="none" stroke="black" d="M140.812,-517.2C144.045,-517.998 147.364,-518.818 150.624,-519.623"/>
</g>
<!-- year2011 -->
<g id="node14" class="node"><title>year2011</title>
<polygon fill="white" stroke="white" points="114.551,-572.981 84.5511,-572.981 72.5511,-560.981 72.5511,-548.981 84.5511,-536.981 114.551,-536.981 126.551,-548.981 126.551,-560.981 114.551,-572.981"/>
<path fill="white" stroke="white" d="M84.5511,-572.981C78.5511,-572.981 72.5511,-566.981 72.5511,-560.981"/>
<path fill="white" stroke="white" d="M72.5511,-548.981C72.5511,-542.981 78.5511,-536.981 84.5511,-536.981"/>
<path fill="white" stroke="white" d="M114.551,-536.981C120.551,-536.981 126.551,-542.981 126.551,-548.981"/>
<path fill="white" stroke="white" d="M126.551,-560.981C126.551,-566.981 120.551,-572.981 114.551,-572.981"/>
<polyline fill="none" stroke="black" points="114.551,-572.981 84.5511,-572.981 "/>
<path fill="none" stroke="black" d="M84.5511,-572.981C78.5511,-572.981 72.5511,-566.981 72.5511,-560.981"/>
<polyline fill="none" stroke="black" points="72.5511,-560.981 72.5511,-548.981 "/>
<path fill="none" stroke="black" d="M72.5511,-548.981C72.5511,-542.981 78.5511,-536.981 84.5511,-536.981"/>
<polyline fill="none" stroke="black" points="84.5511,-536.981 114.551,-536.981 "/>
<path fill="none" stroke="black" d="M114.551,-536.981C120.551,-536.981 126.551,-542.981 126.551,-548.981"/>
<polyline fill="none" stroke="black" points="126.551,-548.981 126.551,-560.981 "/>
<path fill="none" stroke="black" d="M126.551,-560.981C126.551,-566.981 120.551,-572.981 114.551,-572.981"/>
<text text-anchor="middle" x="99.5511" y="-551.281" font-family="Times,serif" font-size="14.00">2011</text>
</g>
<!-- year&#45;&#45;year2011 -->
<g id="edge9" class="edge"><title>year&#45;&#45;year2011</title>
<path fill="none" stroke="black" d="M109.094,-528.602C108.124,-531.282 107.122,-534.051 106.149,-536.744"/>
</g>
<!-- year2012 -->
<g id="node15" class="node"><title>year2012</title>
<polygon fill="white" stroke="white" points="68.4553,-514.165 38.4553,-514.165 26.4553,-502.165 26.4553,-490.165 38.4553,-478.165 68.4553,-478.165 80.4553,-490.165 80.4553,-502.165 68.4553,-514.165"/>
<path fill="white" stroke="white" d="M38.4553,-514.165C32.4553,-514.165 26.4553,-508.165 26.4553,-502.165"/>
<path fill="white" stroke="white" d="M26.4553,-490.165C26.4553,-484.165 32.4553,-478.165 38.4553,-478.165"/>
<path fill="white" stroke="white" d="M68.4553,-478.165C74.4553,-478.165 80.4553,-484.165 80.4553,-490.165"/>
<path fill="white" stroke="white" d="M80.4553,-502.165C80.4553,-508.165 74.4553,-514.165 68.4553,-514.165"/>
<polyline fill="none" stroke="black" points="68.4553,-514.165 38.4553,-514.165 "/>
<path fill="none" stroke="black" d="M38.4553,-514.165C32.4553,-514.165 26.4553,-508.165 26.4553,-502.165"/>
<polyline fill="none" stroke="black" points="26.4553,-502.165 26.4553,-490.165 "/>
<path fill="none" stroke="black" d="M26.4553,-490.165C26.4553,-484.165 32.4553,-478.165 38.4553,-478.165"/>
<polyline fill="none" stroke="black" points="38.4553,-478.165 68.4553,-478.165 "/>
<path fill="none" stroke="black" d="M68.4553,-478.165C74.4553,-478.165 80.4553,-484.165 80.4553,-490.165"/>
<polyline fill="none" stroke="black" points="80.4553,-490.165 80.4553,-502.165 "/>
<path fill="none" stroke="black" d="M80.4553,-502.165C80.4553,-508.165 74.4553,-514.165 68.4553,-514.165"/>
<text text-anchor="middle" x="53.4553" y="-492.465" font-family="Times,serif" font-size="14.00">2012</text>
</g>
<!-- year&#45;&#45;year2012 -->
<g id="edge10" class="edge"><title>year&#45;&#45;year2012</title>
<path fill="none" stroke="black" d="M89.8952,-504.847C86.8251,-504.116 83.6817,-503.367 80.5906,-502.63"/>
</g>
<!-- year2013 -->
<g id="node16" class="node"><title>year2013</title>
<polygon fill="white" stroke="white" points="143.298,-484.41 113.298,-484.41 101.298,-472.41 101.298,-460.41 113.298,-448.41 143.298,-448.41 155.298,-460.41 155.298,-472.41 143.298,-484.41"/>
<path fill="white" stroke="white" d="M113.298,-484.41C107.298,-484.41 101.298,-478.41 101.298,-472.41"/>
<path fill="white" stroke="white" d="M101.298,-460.41C101.298,-454.41 107.298,-448.41 113.298,-448.41"/>
<path fill="white" stroke="white" d="M143.298,-448.41C149.298,-448.41 155.298,-454.41 155.298,-460.41"/>
<path fill="white" stroke="white" d="M155.298,-472.41C155.298,-478.41 149.298,-484.41 143.298,-484.41"/>
<polyline fill="none" stroke="black" points="143.298,-484.41 113.298,-484.41 "/>
<path fill="none" stroke="black" d="M113.298,-484.41C107.298,-484.41 101.298,-478.41 101.298,-472.41"/>
<polyline fill="none" stroke="black" points="101.298,-472.41 101.298,-460.41 "/>
<path fill="none" stroke="black" d="M101.298,-460.41C101.298,-454.41 107.298,-448.41 113.298,-448.41"/>
<polyline fill="none" stroke="black" points="113.298,-448.41 143.298,-448.41 "/>
<path fill="none" stroke="black" d="M143.298,-448.41C149.298,-448.41 155.298,-454.41 155.298,-460.41"/>
<polyline fill="none" stroke="black" points="155.298,-460.41 155.298,-472.41 "/>
<path fill="none" stroke="black" d="M155.298,-472.41C155.298,-478.41 149.298,-484.41 143.298,-484.41"/>
<text text-anchor="middle" x="128.298" y="-462.71" font-family="Times,serif" font-size="14.00">2013</text>
</g>
<!-- year&#45;&#45;year2013 -->
<g id="edge11" class="edge"><title>year&#45;&#45;year2013</title>
<path fill="none" stroke="black" d="M120.621,-493.087C121.429,-490.28 122.265,-487.375 123.074,-484.562"/>
</g>
<!-- quarter1 -->
<g id="node17" class="node"><title>quarter1</title>
<polygon fill="white" stroke="white" points="131.659,-411.798 101.659,-411.798 89.6591,-399.798 89.6591,-387.798 101.659,-375.798 131.659,-375.798 143.659,-387.798 143.659,-399.798 131.659,-411.798"/>
<path fill="white" stroke="white" d="M101.659,-411.798C95.6591,-411.798 89.6591,-405.798 89.6591,-399.798"/>
<path fill="white" stroke="white" d="M89.6591,-387.798C89.6591,-381.798 95.6591,-375.798 101.659,-375.798"/>
<path fill="white" stroke="white" d="M131.659,-375.798C137.659,-375.798 143.659,-381.798 143.659,-387.798"/>
<path fill="white" stroke="white" d="M143.659,-399.798C143.659,-405.798 137.659,-411.798 131.659,-411.798"/>
<polyline fill="none" stroke="black" points="131.659,-411.798 101.659,-411.798 "/>
<path fill="none" stroke="black" d="M101.659,-411.798C95.6591,-411.798 89.6591,-405.798 89.6591,-399.798"/>
<polyline fill="none" stroke="black" points="89.6591,-399.798 89.6591,-387.798 "/>
<path fill="none" stroke="black" d="M89.6591,-387.798C89.6591,-381.798 95.6591,-375.798 101.659,-375.798"/>
<polyline fill="none" stroke="black" points="101.659,-375.798 131.659,-375.798 "/>
<path fill="none" stroke="black" d="M131.659,-375.798C137.659,-375.798 143.659,-381.798 143.659,-387.798"/>
<polyline fill="none" stroke="black" points="143.659,-387.798 143.659,-399.798 "/>
<path fill="none" stroke="black" d="M143.659,-399.798C143.659,-405.798 137.659,-411.798 131.659,-411.798"/>
<text text-anchor="middle" x="116.659" y="-390.098" font-family="Times,serif" font-size="14.00">1</text>
</g>
<!-- quarter&#45;&#45;quarter1 -->
<g id="edge14" class="edge"><title>quarter&#45;&#45;quarter1</title>
<path fill="none" stroke="black" d="M105.025,-366.546C106.286,-369.498 107.594,-372.563 108.859,-375.527"/>
</g>
<!-- quarter2 -->
<g id="node18" class="node"><title>quarter2</title>
<polygon fill="white" stroke="white" points="42,-410.835 12,-410.835 0,-398.835 0,-386.835 12,-374.835 42,-374.835 54,-386.835 54,-398.835 42,-410.835"/>
<path fill="white" stroke="white" d="M12,-410.835C6,-410.835 0,-404.835 0,-398.835"/>
<path fill="white" stroke="white" d="M0,-386.835C0,-380.835 6,-374.835 12,-374.835"/>
<path fill="white" stroke="white" d="M42,-374.835C48,-374.835 54,-380.835 54,-386.835"/>
<path fill="white" stroke="white" d="M54,-398.835C54,-404.835 48,-410.835 42,-410.835"/>
<polyline fill="none" stroke="black" points="42,-410.835 12,-410.835 "/>
<path fill="none" stroke="black" d="M12,-410.835C6,-410.835 0,-404.835 0,-398.835"/>
<polyline fill="none" stroke="black" points="0,-398.835 0,-386.835 "/>
<path fill="none" stroke="black" d="M0,-386.835C0,-380.835 6,-374.835 12,-374.835"/>
<polyline fill="none" stroke="black" points="12,-374.835 42,-374.835 "/>
<path fill="none" stroke="black" d="M42,-374.835C48,-374.835 54,-380.835 54,-386.835"/>
<polyline fill="none" stroke="black" points="54,-386.835 54,-398.835 "/>
<path fill="none" stroke="black" d="M54,-398.835C54,-404.835 48,-410.835 42,-410.835"/>
<text text-anchor="middle" x="27" y="-389.135" font-family="Times,serif" font-size="14.00">2</text>
</g>
<!-- quarter&#45;&#45;quarter2 -->
<g id="edge15" class="edge"><title>quarter&#45;&#45;quarter2</title>
<path fill="none" stroke="black" d="M73.5806,-363.666C67.3558,-367.564 60.6,-371.794 54.2146,-375.793"/>
</g>
<!-- quarter3 -->
<g id="node19" class="node"><title>quarter3</title>
<polygon fill="white" stroke="white" points="91.2523,-320.87 61.2523,-320.87 49.2523,-308.87 49.2523,-296.87 61.2523,-284.87 91.2523,-284.87 103.252,-296.87 103.252,-308.87 91.2523,-320.87"/>
<path fill="white" stroke="white" d="M61.2523,-320.87C55.2523,-320.87 49.2523,-314.87 49.2523,-308.87"/>
<path fill="white" stroke="white" d="M49.2523,-296.87C49.2523,-290.87 55.2523,-284.87 61.2523,-284.87"/>
<path fill="white" stroke="white" d="M91.2523,-284.87C97.2523,-284.87 103.252,-290.87 103.252,-296.87"/>
<path fill="white" stroke="white" d="M103.252,-308.87C103.252,-314.87 97.2523,-320.87 91.2523,-320.87"/>
<polyline fill="none" stroke="black" points="91.2523,-320.87 61.2523,-320.87 "/>
<path fill="none" stroke="black" d="M61.2523,-320.87C55.2523,-320.87 49.2523,-314.87 49.2523,-308.87"/>
<polyline fill="none" stroke="black" points="49.2523,-308.87 49.2523,-296.87 "/>
<path fill="none" stroke="black" d="M49.2523,-296.87C49.2523,-290.87 55.2523,-284.87 61.2523,-284.87"/>
<polyline fill="none" stroke="black" points="61.2523,-284.87 91.2523,-284.87 "/>
<path fill="none" stroke="black" d="M91.2523,-284.87C97.2523,-284.87 103.252,-290.87 103.252,-296.87"/>
<polyline fill="none" stroke="black" points="103.252,-296.87 103.252,-308.87 "/>
<path fill="none" stroke="black" d="M103.252,-308.87C103.252,-314.87 97.2523,-320.87 91.2523,-320.87"/>
<text text-anchor="middle" x="76.2523" y="-299.17" font-family="Times,serif" font-size="14.00">3</text>
</g>
<!-- quarter&#45;&#45;quarter3 -->
<g id="edge16" class="edge"><title>quarter&#45;&#45;quarter3</title>
<path fill="none" stroke="black" d="M89.1769,-330.872C87.6908,-327.652 86.14,-324.292 84.6497,-321.064"/>
</g>
<!-- quarter4 -->
<g id="node20" class="node"><title>quarter4</title>
<polygon fill="white" stroke="white" points="182.585,-322.555 152.585,-322.555 140.585,-310.555 140.585,-298.555 152.585,-286.555 182.585,-286.555 194.585,-298.555 194.585,-310.555 182.585,-322.555"/>
<path fill="white" stroke="white" d="M152.585,-322.555C146.585,-322.555 140.585,-316.555 140.585,-310.555"/>
<path fill="white" stroke="white" d="M140.585,-298.555C140.585,-292.555 146.585,-286.555 152.585,-286.555"/>
<path fill="white" stroke="white" d="M182.585,-286.555C188.585,-286.555 194.585,-292.555 194.585,-298.555"/>
<path fill="white" stroke="white" d="M194.585,-310.555C194.585,-316.555 188.585,-322.555 182.585,-322.555"/>
<polyline fill="none" stroke="black" points="182.585,-322.555 152.585,-322.555 "/>
<path fill="none" stroke="black" d="M152.585,-322.555C146.585,-322.555 140.585,-316.555 140.585,-310.555"/>
<polyline fill="none" stroke="black" points="140.585,-310.555 140.585,-298.555 "/>
<path fill="none" stroke="black" d="M140.585,-298.555C140.585,-292.555 146.585,-286.555 152.585,-286.555"/>
<polyline fill="none" stroke="black" points="152.585,-286.555 182.585,-286.555 "/>
<path fill="none" stroke="black" d="M182.585,-286.555C188.585,-286.555 194.585,-292.555 194.585,-298.555"/>
<polyline fill="none" stroke="black" points="194.585,-298.555 194.585,-310.555 "/>
<path fill="none" stroke="black" d="M194.585,-310.555C194.585,-316.555 188.585,-322.555 182.585,-322.555"/>
<text text-anchor="middle" x="167.585" y="-300.855" font-family="Times,serif" font-size="14.00">4</text>
</g>
<!-- quarter&#45;&#45;quarter4 -->
<g id="edge17" class="edge"><title>quarter&#45;&#45;quarter4</title>
<path fill="none" stroke="black" d="M121.176,-333.779C127.378,-329.873 134.109,-325.635 140.471,-321.629"/>
</g>
<!-- doc1 -->
<g id="node30" class="node"><title>doc1</title>
<polygon fill="white" stroke="white" points="265.823,-279.626 225.823,-279.626 213.823,-267.626 213.823,-255.626 225.823,-243.626 265.823,-243.626 277.823,-255.626 277.823,-267.626 265.823,-279.626"/>
<path fill="white" stroke="white" d="M225.823,-279.626C219.823,-279.626 213.823,-273.626 213.823,-267.626"/>
<path fill="white" stroke="white" d="M213.823,-255.626C213.823,-249.626 219.823,-243.626 225.823,-243.626"/>
<path fill="white" stroke="white" d="M265.823,-243.626C271.823,-243.626 277.823,-249.626 277.823,-255.626"/>
<path fill="white" stroke="white" d="M277.823,-267.626C277.823,-273.626 271.823,-279.626 265.823,-279.626"/>
<polyline fill="none" stroke="black" points="265.823,-279.626 225.823,-279.626 "/>
<path fill="none" stroke="black" d="M225.823,-279.626C219.823,-279.626 213.823,-273.626 213.823,-267.626"/>
<polyline fill="none" stroke="black" points="213.823,-267.626 213.823,-255.626 "/>
<path fill="none" stroke="black" d="M213.823,-255.626C213.823,-249.626 219.823,-243.626 225.823,-243.626"/>
<polyline fill="none" stroke="black" points="225.823,-243.626 265.823,-243.626 "/>
<path fill="none" stroke="black" d="M265.823,-243.626C271.823,-243.626 277.823,-249.626 277.823,-255.626"/>
<polyline fill="none" stroke="black" points="277.823,-255.626 277.823,-267.626 "/>
<path fill="none" stroke="black" d="M277.823,-267.626C277.823,-273.626 271.823,-279.626 265.823,-279.626"/>
<text text-anchor="middle" x="245.823" y="-257.926" font-family="Times,serif" font-size="14.00">Образец</text>
</g>
<!-- doctype&#45;&#45;doc1 -->
<g id="edge35" class="edge"><title>doctype&#45;&#45;doc1</title>
<path fill="none" stroke="black" d="M310.513,-195.599C297.169,-209.218 277.633,-229.158 263.524,-243.559"/>
</g>
<!-- doc2 -->
<g id="node31" class="node"><title>doc2</title>
<polygon fill="white" stroke="white" points="239.898,-210.935 177.398,-210.935 165.398,-198.935 165.398,-186.935 177.398,-174.935 239.898,-174.935 251.898,-186.935 251.898,-198.935 239.898,-210.935"/>
<path fill="white" stroke="white" d="M177.398,-210.935C171.398,-210.935 165.398,-204.935 165.398,-198.935"/>
<path fill="white" stroke="white" d="M165.398,-186.935C165.398,-180.935 171.398,-174.935 177.398,-174.935"/>
<path fill="white" stroke="white" d="M239.898,-174.935C245.898,-174.935 251.898,-180.935 251.898,-186.935"/>
<path fill="white" stroke="white" d="M251.898,-198.935C251.898,-204.935 245.898,-210.935 239.898,-210.935"/>
<polyline fill="none" stroke="black" points="239.898,-210.935 177.398,-210.935 "/>
<path fill="none" stroke="black" d="M177.398,-210.935C171.398,-210.935 165.398,-204.935 165.398,-198.935"/>
<polyline fill="none" stroke="black" points="165.398,-198.935 165.398,-186.935 "/>
<path fill="none" stroke="black" d="M165.398,-186.935C165.398,-180.935 171.398,-174.935 177.398,-174.935"/>
<polyline fill="none" stroke="black" points="177.398,-174.935 239.898,-174.935 "/>
<path fill="none" stroke="black" d="M239.898,-174.935C245.898,-174.935 251.898,-180.935 251.898,-186.935"/>
<polyline fill="none" stroke="black" points="251.898,-186.935 251.898,-198.935 "/>
<path fill="none" stroke="black" d="M251.898,-198.935C251.898,-204.935 245.898,-210.935 239.898,-210.935"/>
<text text-anchor="middle" x="208.648" y="-189.235" font-family="Times,serif" font-size="14.00">Инструкция</text>
</g>
<!-- doctype&#45;&#45;doc2 -->
<g id="edge36" class="edge"><title>doctype&#45;&#45;doc2</title>
<path fill="none" stroke="black" d="M298.691,-183.201C284.946,-184.687 267.859,-186.534 252.276,-188.218"/>
</g>
<!-- doc3 -->
<g id="node32" class="node"><title>doc3</title>
<polygon fill="white" stroke="white" points="239.937,-142.698 169.937,-142.698 157.937,-130.698 157.937,-118.698 169.937,-106.698 239.937,-106.698 251.937,-118.698 251.937,-130.698 239.937,-142.698"/>
<path fill="white" stroke="white" d="M169.937,-142.698C163.937,-142.698 157.937,-136.698 157.937,-130.698"/>
<path fill="white" stroke="white" d="M157.937,-118.698C157.937,-112.698 163.937,-106.698 169.937,-106.698"/>
<path fill="white" stroke="white" d="M239.937,-106.698C245.937,-106.698 251.937,-112.698 251.937,-118.698"/>
<path fill="white" stroke="white" d="M251.937,-130.698C251.937,-136.698 245.937,-142.698 239.937,-142.698"/>
<polyline fill="none" stroke="black" points="239.937,-142.698 169.937,-142.698 "/>
<path fill="none" stroke="black" d="M169.937,-142.698C163.937,-142.698 157.937,-136.698 157.937,-130.698"/>
<polyline fill="none" stroke="black" points="157.937,-130.698 157.937,-118.698 "/>
<path fill="none" stroke="black" d="M157.937,-118.698C157.937,-112.698 163.937,-106.698 169.937,-106.698"/>
<polyline fill="none" stroke="black" points="169.937,-106.698 239.937,-106.698 "/>
<path fill="none" stroke="black" d="M239.937,-106.698C245.937,-106.698 251.937,-112.698 251.937,-118.698"/>
<polyline fill="none" stroke="black" points="251.937,-118.698 251.937,-130.698 "/>
<path fill="none" stroke="black" d="M251.937,-130.698C251.937,-136.698 245.937,-142.698 239.937,-142.698"/>
<text text-anchor="middle" x="204.937" y="-120.998" font-family="Times,serif" font-size="14.00">Учредиловка</text>
</g>
<!-- doctype&#45;&#45;doc3 -->
<g id="edge37" class="edge"><title>doctype&#45;&#45;doc3</title>
<path fill="none" stroke="black" d="M303.105,-169.974C286.625,-162.374 263.793,-151.843 244.295,-142.851"/>
</g>
<!-- doc4 -->
<g id="node33" class="node"><title>doc4</title>
<polygon fill="white" stroke="white" points="386.652,-98.3462 338.152,-98.3462 326.152,-86.3462 326.152,-74.3462 338.152,-62.3462 386.652,-62.3462 398.652,-74.3462 398.652,-86.3462 386.652,-98.3462"/>
<path fill="white" stroke="white" d="M338.152,-98.3462C332.152,-98.3462 326.152,-92.3462 326.152,-86.3462"/>
<path fill="white" stroke="white" d="M326.152,-74.3462C326.152,-68.3462 332.152,-62.3462 338.152,-62.3462"/>
<path fill="white" stroke="white" d="M386.652,-62.3462C392.652,-62.3462 398.652,-68.3462 398.652,-74.3462"/>
<path fill="white" stroke="white" d="M398.652,-86.3462C398.652,-92.3462 392.652,-98.3462 386.652,-98.3462"/>
<polyline fill="none" stroke="black" points="386.652,-98.3462 338.152,-98.3462 "/>
<path fill="none" stroke="black" d="M338.152,-98.3462C332.152,-98.3462 326.152,-92.3462 326.152,-86.3462"/>
<polyline fill="none" stroke="black" points="326.152,-86.3462 326.152,-74.3462 "/>
<path fill="none" stroke="black" d="M326.152,-74.3462C326.152,-68.3462 332.152,-62.3462 338.152,-62.3462"/>
<polyline fill="none" stroke="black" points="338.152,-62.3462 386.652,-62.3462 "/>
<path fill="none" stroke="black" d="M386.652,-62.3462C392.652,-62.3462 398.652,-68.3462 398.652,-74.3462"/>
<polyline fill="none" stroke="black" points="398.652,-74.3462 398.652,-86.3462 "/>
<path fill="none" stroke="black" d="M398.652,-86.3462C398.652,-92.3462 392.652,-98.3462 386.652,-98.3462"/>
<text text-anchor="middle" x="362.402" y="-76.6462" font-family="Times,serif" font-size="14.00">Первичка</text>
</g>
<!-- doctype&#45;&#45;doc4 -->
<g id="edge38" class="edge"><title>doctype&#45;&#45;doc4</title>
<path fill="none" stroke="black" d="M332.097,-162.432C338.772,-144.351 349.037,-116.545 355.737,-98.3986"/>
</g>
<!-- doc5 -->
<g id="node34" class="node"><title>doc5</title>
<polygon fill="white" stroke="white" points="473.11,-178.633 443.11,-178.633 431.11,-166.633 431.11,-154.633 443.11,-142.633 473.11,-142.633 485.11,-154.633 485.11,-166.633 473.11,-178.633"/>
<path fill="white" stroke="white" d="M443.11,-178.633C437.11,-178.633 431.11,-172.633 431.11,-166.633"/>
<path fill="white" stroke="white" d="M431.11,-154.633C431.11,-148.633 437.11,-142.633 443.11,-142.633"/>
<path fill="white" stroke="white" d="M473.11,-142.633C479.11,-142.633 485.11,-148.633 485.11,-154.633"/>
<path fill="white" stroke="white" d="M485.11,-166.633C485.11,-172.633 479.11,-178.633 473.11,-178.633"/>
<polyline fill="none" stroke="black" points="473.11,-178.633 443.11,-178.633 "/>
<path fill="none" stroke="black" d="M443.11,-178.633C437.11,-178.633 431.11,-172.633 431.11,-166.633"/>
<polyline fill="none" stroke="black" points="431.11,-166.633 431.11,-154.633 "/>
<path fill="none" stroke="black" d="M431.11,-154.633C431.11,-148.633 437.11,-142.633 443.11,-142.633"/>
<polyline fill="none" stroke="black" points="443.11,-142.633 473.11,-142.633 "/>
<path fill="none" stroke="black" d="M473.11,-142.633C479.11,-142.633 485.11,-148.633 485.11,-154.633"/>
<polyline fill="none" stroke="black" points="485.11,-154.633 485.11,-166.633 "/>
<path fill="none" stroke="black" d="M485.11,-166.633C485.11,-172.633 479.11,-178.633 473.11,-178.633"/>
<text text-anchor="middle" x="458.11" y="-156.933" font-family="Times,serif" font-size="14.00">Отчет</text>
</g>
<!-- doctype&#45;&#45;doc5 -->
<g id="edge39" class="edge"><title>doctype&#45;&#45;doc5</title>
<path fill="none" stroke="black" d="M352.016,-176.369C374.843,-172.984 407.653,-168.117 430.727,-164.695"/>
</g>
<!-- doc6 -->
<g id="node35" class="node"><title>doc6</title>
<polygon fill="white" stroke="white" points="381.394,-242.34 320.894,-242.34 308.894,-230.34 308.894,-218.34 320.894,-206.34 381.394,-206.34 393.394,-218.34 393.394,-230.34 381.394,-242.34"/>
<path fill="white" stroke="white" d="M320.894,-242.34C314.894,-242.34 308.894,-236.34 308.894,-230.34"/>
<path fill="white" stroke="white" d="M308.894,-218.34C308.894,-212.34 314.894,-206.34 320.894,-206.34"/>
<path fill="white" stroke="white" d="M381.394,-206.34C387.394,-206.34 393.394,-212.34 393.394,-218.34"/>
<path fill="white" stroke="white" d="M393.394,-230.34C393.394,-236.34 387.394,-242.34 381.394,-242.34"/>
<polyline fill="none" stroke="black" points="381.394,-242.34 320.894,-242.34 "/>
<path fill="none" stroke="black" d="M320.894,-242.34C314.894,-242.34 308.894,-236.34 308.894,-230.34"/>
<polyline fill="none" stroke="black" points="308.894,-230.34 308.894,-218.34 "/>
<path fill="none" stroke="black" d="M308.894,-218.34C308.894,-212.34 314.894,-206.34 320.894,-206.34"/>
<polyline fill="none" stroke="black" points="320.894,-206.34 381.394,-206.34 "/>
<path fill="none" stroke="black" d="M381.394,-206.34C387.394,-206.34 393.394,-212.34 393.394,-218.34"/>
<polyline fill="none" stroke="black" points="393.394,-218.34 393.394,-230.34 "/>
<path fill="none" stroke="black" d="M393.394,-230.34C393.394,-236.34 387.394,-242.34 381.394,-242.34"/>
<text text-anchor="middle" x="351.144" y="-220.64" font-family="Times,serif" font-size="14.00">Отчетность</text>
</g>
<!-- doctype&#45;&#45;doc6 -->
<g id="edge40" class="edge"><title>doctype&#45;&#45;doc6</title>
<path fill="none" stroke="black" d="M335.341,-197.202C337.036,-200.113 338.804,-203.15 340.519,-206.094"/>
</g>
<!-- doc41 -->
<g id="node36" class="node"><title>doc41</title>
<polygon fill="white" stroke="white" points="323.896,-142.379 293.896,-142.379 281.896,-130.379 281.896,-118.379 293.896,-106.379 323.896,-106.379 335.896,-118.379 335.896,-130.379 323.896,-142.379"/>
<path fill="white" stroke="white" d="M293.896,-142.379C287.896,-142.379 281.896,-136.379 281.896,-130.379"/>
<path fill="white" stroke="white" d="M281.896,-118.379C281.896,-112.379 287.896,-106.379 293.896,-106.379"/>
<path fill="white" stroke="white" d="M323.896,-106.379C329.896,-106.379 335.896,-112.379 335.896,-118.379"/>
<path fill="white" stroke="white" d="M335.896,-130.379C335.896,-136.379 329.896,-142.379 323.896,-142.379"/>
<polyline fill="none" stroke="black" points="323.896,-142.379 293.896,-142.379 "/>
<path fill="none" stroke="black" d="M293.896,-142.379C287.896,-142.379 281.896,-136.379 281.896,-130.379"/>
<polyline fill="none" stroke="black" points="281.896,-130.379 281.896,-118.379 "/>
<path fill="none" stroke="black" d="M281.896,-118.379C281.896,-112.379 287.896,-106.379 293.896,-106.379"/>
<polyline fill="none" stroke="black" points="293.896,-106.379 323.896,-106.379 "/>
<path fill="none" stroke="black" d="M323.896,-106.379C329.896,-106.379 335.896,-112.379 335.896,-118.379"/>
<polyline fill="none" stroke="black" points="335.896,-118.379 335.896,-130.379 "/>
<path fill="none" stroke="black" d="M335.896,-130.379C335.896,-136.379 329.896,-142.379 323.896,-142.379"/>
<text text-anchor="middle" x="308.896" y="-120.679" font-family="Times,serif" font-size="14.00">Акт</text>
</g>
<!-- doc4&#45;&#45;doc41 -->
<g id="edge52" class="edge"><title>doc4&#45;&#45;doc41</title>
<path fill="none" stroke="black" d="M340.33,-98.5101C337.221,-101.069 334.025,-103.699 330.917,-106.256"/>
</g>
<!-- doc42 -->
<g id="node37" class="node"><title>doc42</title>
<polygon fill="white" stroke="white" points="302.495,-98.3478 261.995,-98.3478 249.995,-86.3478 249.995,-74.3478 261.995,-62.3478 302.495,-62.3478 314.495,-74.3478 314.495,-86.3478 302.495,-98.3478"/>
<path fill="white" stroke="white" d="M261.995,-98.3478C255.995,-98.3478 249.995,-92.3478 249.995,-86.3478"/>
<path fill="white" stroke="white" d="M249.995,-74.3478C249.995,-68.3478 255.995,-62.3478 261.995,-62.3478"/>
<path fill="white" stroke="white" d="M302.495,-62.3478C308.495,-62.3478 314.495,-68.3478 314.495,-74.3478"/>
<path fill="white" stroke="white" d="M314.495,-86.3478C314.495,-92.3478 308.495,-98.3478 302.495,-98.3478"/>
<polyline fill="none" stroke="black" points="302.495,-98.3478 261.995,-98.3478 "/>
<path fill="none" stroke="black" d="M261.995,-98.3478C255.995,-98.3478 249.995,-92.3478 249.995,-86.3478"/>
<polyline fill="none" stroke="black" points="249.995,-86.3478 249.995,-74.3478 "/>
<path fill="none" stroke="black" d="M249.995,-74.3478C249.995,-68.3478 255.995,-62.3478 261.995,-62.3478"/>
<polyline fill="none" stroke="black" points="261.995,-62.3478 302.495,-62.3478 "/>
<path fill="none" stroke="black" d="M302.495,-62.3478C308.495,-62.3478 314.495,-68.3478 314.495,-74.3478"/>
<polyline fill="none" stroke="black" points="314.495,-74.3478 314.495,-86.3478 "/>
<path fill="none" stroke="black" d="M314.495,-86.3478C314.495,-92.3478 308.495,-98.3478 302.495,-98.3478"/>
<text text-anchor="middle" x="282.245" y="-76.6478" font-family="Times,serif" font-size="14.00">Доверка</text>
</g>
<!-- doc4&#45;&#45;doc42 -->
<g id="edge53" class="edge"><title>doc4&#45;&#45;doc42</title>
<path fill="none" stroke="black" d="M326.076,-80.3469C322.43,-80.347 318.743,-80.3471 315.137,-80.3471"/>
</g>
<!-- doc43 -->
<g id="node38" class="node"><title>doc43</title>
<polygon fill="white" stroke="white" points="327.372,-50.7153 286.872,-50.7153 274.872,-38.7153 274.872,-26.7153 286.872,-14.7153 327.372,-14.7153 339.372,-26.7153 339.372,-38.7153 327.372,-50.7153"/>
<path fill="white" stroke="white" d="M286.872,-50.7153C280.872,-50.7153 274.872,-44.7153 274.872,-38.7153"/>
<path fill="white" stroke="white" d="M274.872,-26.7153C274.872,-20.7153 280.872,-14.7153 286.872,-14.7153"/>
<path fill="white" stroke="white" d="M327.372,-14.7153C333.372,-14.7153 339.372,-20.7153 339.372,-26.7153"/>
<path fill="white" stroke="white" d="M339.372,-38.7153C339.372,-44.7153 333.372,-50.7153 327.372,-50.7153"/>
<polyline fill="none" stroke="black" points="327.372,-50.7153 286.872,-50.7153 "/>
<path fill="none" stroke="black" d="M286.872,-50.7153C280.872,-50.7153 274.872,-44.7153 274.872,-38.7153"/>
<polyline fill="none" stroke="black" points="274.872,-38.7153 274.872,-26.7153 "/>
<path fill="none" stroke="black" d="M274.872,-26.7153C274.872,-20.7153 280.872,-14.7153 286.872,-14.7153"/>
<polyline fill="none" stroke="black" points="286.872,-14.7153 327.372,-14.7153 "/>
<path fill="none" stroke="black" d="M327.372,-14.7153C333.372,-14.7153 339.372,-20.7153 339.372,-26.7153"/>
<polyline fill="none" stroke="black" points="339.372,-26.7153 339.372,-38.7153 "/>
<path fill="none" stroke="black" d="M339.372,-38.7153C339.372,-44.7153 333.372,-50.7153 327.372,-50.7153"/>
<text text-anchor="middle" x="307.122" y="-29.0153" font-family="Times,serif" font-size="14.00">Договор</text>
</g>
<!-- doc4&#45;&#45;doc43 -->
<g id="edge54" class="edge"><title>doc4&#45;&#45;doc43</title>
<path fill="none" stroke="black" d="M341.503,-62.339C337.1,-58.5454 332.454,-54.5425 328.05,-50.748"/>
</g>
<!-- doc44 -->
<g id="node39" class="node"><title>doc44</title>
<polygon fill="white" stroke="white" points="391.479,-36 361.479,-36 349.479,-24 349.479,-12 361.479,-0 391.479,-0 403.479,-12 403.479,-24 391.479,-36"/>
<path fill="white" stroke="white" d="M361.479,-36C355.479,-36 349.479,-30 349.479,-24"/>
<path fill="white" stroke="white" d="M349.479,-12C349.479,-6 355.479,-0 361.479,-0"/>
<path fill="white" stroke="white" d="M391.479,-0C397.479,-0 403.479,-6 403.479,-12"/>
<path fill="white" stroke="white" d="M403.479,-24C403.479,-30 397.479,-36 391.479,-36"/>
<polyline fill="none" stroke="black" points="391.479,-36 361.479,-36 "/>
<path fill="none" stroke="black" d="M361.479,-36C355.479,-36 349.479,-30 349.479,-24"/>
<polyline fill="none" stroke="black" points="349.479,-24 349.479,-12 "/>
<path fill="none" stroke="black" d="M349.479,-12C349.479,-6 355.479,-0 361.479,-0"/>
<polyline fill="none" stroke="black" points="361.479,-0 391.479,-0 "/>
<path fill="none" stroke="black" d="M391.479,-0C397.479,-0 403.479,-6 403.479,-12"/>
<polyline fill="none" stroke="black" points="403.479,-12 403.479,-24 "/>
<path fill="none" stroke="black" d="M403.479,-24C403.479,-30 397.479,-36 391.479,-36"/>
<text text-anchor="middle" x="376.479" y="-14.3" font-family="Times,serif" font-size="14.00">Счет</text>
</g>
<!-- doc4&#45;&#45;doc44 -->
<g id="edge55" class="edge"><title>doc4&#45;&#45;doc44</title>
<path fill="none" stroke="black" d="M366.473,-62.3131C368.325,-54.1134 370.511,-44.4292 372.368,-36.2086"/>
</g>
<!-- doc45 -->
<g id="node40" class="node"><title>doc45</title>
<polygon fill="white" stroke="white" points="473.691,-80.0343 419.191,-80.0343 407.191,-68.0343 407.191,-56.0343 419.191,-44.0343 473.691,-44.0343 485.691,-56.0343 485.691,-68.0343 473.691,-80.0343"/>
<path fill="white" stroke="white" d="M419.191,-80.0343C413.191,-80.0343 407.191,-74.0343 407.191,-68.0343"/>
<path fill="white" stroke="white" d="M407.191,-56.0343C407.191,-50.0343 413.191,-44.0343 419.191,-44.0343"/>
<path fill="white" stroke="white" d="M473.691,-44.0343C479.691,-44.0343 485.691,-50.0343 485.691,-56.0343"/>
<path fill="white" stroke="white" d="M485.691,-68.0343C485.691,-74.0343 479.691,-80.0343 473.691,-80.0343"/>
<polyline fill="none" stroke="black" points="473.691,-80.0343 419.191,-80.0343 "/>
<path fill="none" stroke="black" d="M419.191,-80.0343C413.191,-80.0343 407.191,-74.0343 407.191,-68.0343"/>
<polyline fill="none" stroke="black" points="407.191,-68.0343 407.191,-56.0343 "/>
<path fill="none" stroke="black" d="M407.191,-56.0343C407.191,-50.0343 413.191,-44.0343 419.191,-44.0343"/>
<polyline fill="none" stroke="black" points="419.191,-44.0343 473.691,-44.0343 "/>
<path fill="none" stroke="black" d="M473.691,-44.0343C479.691,-44.0343 485.691,-50.0343 485.691,-56.0343"/>
<polyline fill="none" stroke="black" points="485.691,-56.0343 485.691,-68.0343 "/>
<path fill="none" stroke="black" d="M485.691,-68.0343C485.691,-74.0343 479.691,-80.0343 473.691,-80.0343"/>
<text text-anchor="middle" x="446.441" y="-58.3343" font-family="Times,serif" font-size="14.00">Накладная</text>
</g>
<!-- doc4&#45;&#45;doc45 -->
<g id="edge56" class="edge"><title>doc4&#45;&#45;doc45</title>
<path fill="none" stroke="black" d="M399.018,-72.3676C401.583,-71.8086 404.176,-71.2436 406.757,-70.6812"/>
</g>
<!-- doc46 -->
<g id="node41" class="node"><title>doc46</title>
<polygon fill="white" stroke="white" points="449.619,-124.068 419.619,-124.068 407.619,-112.068 407.619,-100.068 419.619,-88.0682 449.619,-88.0682 461.619,-100.068 461.619,-112.068 449.619,-124.068"/>
<path fill="white" stroke="white" d="M419.619,-124.068C413.619,-124.068 407.619,-118.068 407.619,-112.068"/>
<path fill="white" stroke="white" d="M407.619,-100.068C407.619,-94.0682 413.619,-88.0682 419.619,-88.0682"/>
<path fill="white" stroke="white" d="M449.619,-88.0682C455.619,-88.0682 461.619,-94.0682 461.619,-100.068"/>
<path fill="white" stroke="white" d="M461.619,-112.068C461.619,-118.068 455.619,-124.068 449.619,-124.068"/>
<polyline fill="none" stroke="black" points="449.619,-124.068 419.619,-124.068 "/>
<path fill="none" stroke="black" d="M419.619,-124.068C413.619,-124.068 407.619,-118.068 407.619,-112.068"/>
<polyline fill="none" stroke="black" points="407.619,-112.068 407.619,-100.068 "/>
<path fill="none" stroke="black" d="M407.619,-100.068C407.619,-94.0682 413.619,-88.0682 419.619,-88.0682"/>
<polyline fill="none" stroke="black" points="419.619,-88.0682 449.619,-88.0682 "/>
<path fill="none" stroke="black" d="M449.619,-88.0682C455.619,-88.0682 461.619,-94.0682 461.619,-100.068"/>
<polyline fill="none" stroke="black" points="461.619,-100.068 461.619,-112.068 "/>
<path fill="none" stroke="black" d="M461.619,-112.068C461.619,-118.068 455.619,-124.068 449.619,-124.068"/>
<text text-anchor="middle" x="434.619" y="-102.368" font-family="Times,serif" font-size="14.00">СФ</text>
</g>
<!-- doc4&#45;&#45;doc46 -->
<g id="edge57" class="edge"><title>doc4&#45;&#45;doc46</title>
<path fill="none" stroke="black" d="M398.933,-93.3579C401.732,-94.3548 404.527,-95.3504 407.252,-96.3209"/>
</g>
<!-- doc47 -->
<g id="node42" class="node"><title>doc47</title>
<polygon fill="white" stroke="white" points="386.063,-154.291 356.063,-154.291 344.063,-142.291 344.063,-130.291 356.063,-118.291 386.063,-118.291 398.063,-130.291 398.063,-142.291 386.063,-154.291"/>
<path fill="white" stroke="white" d="M356.063,-154.291C350.063,-154.291 344.063,-148.291 344.063,-142.291"/>
<path fill="white" stroke="white" d="M344.063,-130.291C344.063,-124.291 350.063,-118.291 356.063,-118.291"/>
<path fill="white" stroke="white" d="M386.063,-118.291C392.063,-118.291 398.063,-124.291 398.063,-130.291"/>
<path fill="white" stroke="white" d="M398.063,-142.291C398.063,-148.291 392.063,-154.291 386.063,-154.291"/>
<polyline fill="none" stroke="black" points="386.063,-154.291 356.063,-154.291 "/>
<path fill="none" stroke="black" d="M356.063,-154.291C350.063,-154.291 344.063,-148.291 344.063,-142.291"/>
<polyline fill="none" stroke="black" points="344.063,-142.291 344.063,-130.291 "/>
<path fill="none" stroke="black" d="M344.063,-130.291C344.063,-124.291 350.063,-118.291 356.063,-118.291"/>
<polyline fill="none" stroke="black" points="356.063,-118.291 386.063,-118.291 "/>
<path fill="none" stroke="black" d="M386.063,-118.291C392.063,-118.291 398.063,-124.291 398.063,-130.291"/>
<polyline fill="none" stroke="black" points="398.063,-130.291 398.063,-142.291 "/>
<path fill="none" stroke="black" d="M398.063,-142.291C398.063,-148.291 392.063,-154.291 386.063,-154.291"/>
<text text-anchor="middle" x="371.063" y="-132.591" font-family="Times,serif" font-size="14.00">ТТН</text>
</g>
<!-- doc4&#45;&#45;doc47 -->
<g id="edge58" class="edge"><title>doc4&#45;&#45;doc47</title>
<path fill="none" stroke="black" d="M365.19,-98.3553C366.159,-104.616 367.247,-111.643 368.221,-117.931"/>
</g>
<!-- doc61 -->
<g id="node43" class="node"><title>doc61</title>
<polygon fill="white" stroke="white" points="440.858,-330.362 378.858,-330.362 366.858,-318.362 366.858,-306.362 378.858,-294.362 440.858,-294.362 452.858,-306.362 452.858,-318.362 440.858,-330.362"/>
<path fill="white" stroke="white" d="M378.858,-330.362C372.858,-330.362 366.858,-324.362 366.858,-318.362"/>
<path fill="white" stroke="white" d="M366.858,-306.362C366.858,-300.362 372.858,-294.362 378.858,-294.362"/>
<path fill="white" stroke="white" d="M440.858,-294.362C446.858,-294.362 452.858,-300.362 452.858,-306.362"/>
<path fill="white" stroke="white" d="M452.858,-318.362C452.858,-324.362 446.858,-330.362 440.858,-330.362"/>
<polyline fill="none" stroke="black" points="440.858,-330.362 378.858,-330.362 "/>
<path fill="none" stroke="black" d="M378.858,-330.362C372.858,-330.362 366.858,-324.362 366.858,-318.362"/>
<polyline fill="none" stroke="black" points="366.858,-318.362 366.858,-306.362 "/>
<path fill="none" stroke="black" d="M366.858,-306.362C366.858,-300.362 372.858,-294.362 378.858,-294.362"/>
<polyline fill="none" stroke="black" points="378.858,-294.362 440.858,-294.362 "/>
<path fill="none" stroke="black" d="M440.858,-294.362C446.858,-294.362 452.858,-300.362 452.858,-306.362"/>
<polyline fill="none" stroke="black" points="452.858,-306.362 452.858,-318.362 "/>
<path fill="none" stroke="black" d="M452.858,-318.362C452.858,-324.362 446.858,-330.362 440.858,-330.362"/>
<text text-anchor="middle" x="409.858" y="-308.662" font-family="Times,serif" font-size="14.00">Декларация</text>
</g>
<!-- doc6&#45;&#45;doc61 -->
<g id="edge61" class="edge"><title>doc6&#45;&#45;doc61</title>
<path fill="none" stroke="black" d="M363.309,-242.578C373.386,-257.685 387.635,-279.046 397.708,-294.147"/>
</g>
<!-- doc611 -->
<g id="node44" class="node"><title>doc611</title>
<polygon fill="white" stroke="white" points="467.398,-286.351 409.398,-286.351 397.398,-274.351 397.398,-262.351 409.398,-250.351 467.398,-250.351 479.398,-262.351 479.398,-274.351 467.398,-286.351"/>
<path fill="white" stroke="white" d="M409.398,-286.351C403.398,-286.351 397.398,-280.351 397.398,-274.351"/>
<path fill="white" stroke="white" d="M397.398,-262.351C397.398,-256.351 403.398,-250.351 409.398,-250.351"/>
<path fill="white" stroke="white" d="M467.398,-250.351C473.398,-250.351 479.398,-256.351 479.398,-262.351"/>
<path fill="white" stroke="white" d="M479.398,-274.351C479.398,-280.351 473.398,-286.351 467.398,-286.351"/>
<polyline fill="none" stroke="black" points="467.398,-286.351 409.398,-286.351 "/>
<path fill="none" stroke="black" d="M409.398,-286.351C403.398,-286.351 397.398,-280.351 397.398,-274.351"/>
<polyline fill="none" stroke="black" points="397.398,-274.351 397.398,-262.351 "/>
<path fill="none" stroke="black" d="M397.398,-262.351C397.398,-256.351 403.398,-250.351 409.398,-250.351"/>
<polyline fill="none" stroke="black" points="409.398,-250.351 467.398,-250.351 "/>
<path fill="none" stroke="black" d="M467.398,-250.351C473.398,-250.351 479.398,-256.351 479.398,-262.351"/>
<polyline fill="none" stroke="black" points="479.398,-262.351 479.398,-274.351 "/>
<path fill="none" stroke="black" d="M479.398,-274.351C479.398,-280.351 473.398,-286.351 467.398,-286.351"/>
<text text-anchor="middle" x="438.398" y="-264.651" font-family="Times,serif" font-size="14.00">имущество</text>
</g>
<!-- doc61&#45;&#45;doc611 -->
<g id="edge64" class="edge"><title>doc61&#45;&#45;doc611</title>
<path fill="none" stroke="black" d="M421.631,-294.206C423.289,-291.649 424.994,-289.02 426.652,-286.464"/>
</g>
<!-- doc612 -->
<g id="node45" class="node"><title>doc612</title>
<polygon fill="white" stroke="white" points="445.087,-374.362 415.087,-374.362 403.087,-362.362 403.087,-350.362 415.087,-338.362 445.087,-338.362 457.087,-350.362 457.087,-362.362 445.087,-374.362"/>
<path fill="white" stroke="white" d="M415.087,-374.362C409.087,-374.362 403.087,-368.362 403.087,-362.362"/>
<path fill="white" stroke="white" d="M403.087,-350.362C403.087,-344.362 409.087,-338.362 415.087,-338.362"/>
<path fill="white" stroke="white" d="M445.087,-338.362C451.087,-338.362 457.087,-344.362 457.087,-350.362"/>
<path fill="white" stroke="white" d="M457.087,-362.362C457.087,-368.362 451.087,-374.362 445.087,-374.362"/>
<polyline fill="none" stroke="black" points="445.087,-374.362 415.087,-374.362 "/>
<path fill="none" stroke="black" d="M415.087,-374.362C409.087,-374.362 403.087,-368.362 403.087,-362.362"/>
<polyline fill="none" stroke="black" points="403.087,-362.362 403.087,-350.362 "/>
<path fill="none" stroke="black" d="M403.087,-350.362C403.087,-344.362 409.087,-338.362 415.087,-338.362"/>
<polyline fill="none" stroke="black" points="415.087,-338.362 445.087,-338.362 "/>
<path fill="none" stroke="black" d="M445.087,-338.362C451.087,-338.362 457.087,-344.362 457.087,-350.362"/>
<polyline fill="none" stroke="black" points="457.087,-350.362 457.087,-362.362 "/>
<path fill="none" stroke="black" d="M457.087,-362.362C457.087,-368.362 451.087,-374.362 445.087,-374.362"/>
<text text-anchor="middle" x="430.087" y="-352.662" font-family="Times,serif" font-size="14.00">НДС</text>
</g>
<!-- doc61&#45;&#45;doc612 -->
<g id="edge65" class="edge"><title>doc61&#45;&#45;doc612</title>
<path fill="none" stroke="black" d="M418.202,-330.512C419.378,-333.069 420.586,-335.697 421.761,-338.253"/>
</g>
<!-- doc613 -->
<g id="node46" class="node"><title>doc613</title>
<polygon fill="white" stroke="white" points="345.204,-333.091 302.704,-333.091 290.704,-321.091 290.704,-309.091 302.704,-297.091 345.204,-297.091 357.204,-309.091 357.204,-321.091 345.204,-333.091"/>
<path fill="white" stroke="white" d="M302.704,-333.091C296.704,-333.091 290.704,-327.091 290.704,-321.091"/>
<path fill="white" stroke="white" d="M290.704,-309.091C290.704,-303.091 296.704,-297.091 302.704,-297.091"/>
<path fill="white" stroke="white" d="M345.204,-297.091C351.204,-297.091 357.204,-303.091 357.204,-309.091"/>
<path fill="white" stroke="white" d="M357.204,-321.091C357.204,-327.091 351.204,-333.091 345.204,-333.091"/>
<polyline fill="none" stroke="black" points="345.204,-333.091 302.704,-333.091 "/>
<path fill="none" stroke="black" d="M302.704,-333.091C296.704,-333.091 290.704,-327.091 290.704,-321.091"/>
<polyline fill="none" stroke="black" points="290.704,-321.091 290.704,-309.091 "/>
<path fill="none" stroke="black" d="M290.704,-309.091C290.704,-303.091 296.704,-297.091 302.704,-297.091"/>
<polyline fill="none" stroke="black" points="302.704,-297.091 345.204,-297.091 "/>
<path fill="none" stroke="black" d="M345.204,-297.091C351.204,-297.091 357.204,-303.091 357.204,-309.091"/>
<polyline fill="none" stroke="black" points="357.204,-309.091 357.204,-321.091 "/>
<path fill="none" stroke="black" d="M357.204,-321.091C357.204,-327.091 351.204,-333.091 345.204,-333.091"/>
<text text-anchor="middle" x="323.954" y="-311.391" font-family="Times,serif" font-size="14.00">прибыль</text>
</g>
<!-- doc61&#45;&#45;doc613 -->
<g id="edge66" class="edge"><title>doc61&#45;&#45;doc613</title>
<path fill="none" stroke="black" d="M366.654,-313.734C363.646,-313.83 360.64,-313.925 357.694,-314.019"/>
</g>
</g>
</svg>
