<?xml version="1.0" encoding="UTF-8" standalone="no"?>
<!DOCTYPE svg PUBLIC "-//W3C//DTD SVG 1.1//EN"
 "http://www.w3.org/Graphics/SVG/1.1/DTD/svg11.dtd">
<!-- Generated by graphviz version 2.28.0 (20120228.1926)
 -->
<!-- Title: DasArchive Pages: 1 -->
<svg width="664pt" height="786pt"
 viewBox="0.00 0.00 664.00 786.00" xmlns="http://www.w3.org/2000/svg" xmlns:xlink="http://www.w3.org/1999/xlink">
<g id="graph1" class="graph" transform="scale(1 1) rotate(0) translate(4 782)">
<title>DasArchive</title>
<polygon fill="white" stroke="white" points="-4,5 -4,-782 661,-782 661,5 -4,5"/>
<!-- n0 -->
<g id="node2" class="node"><title>n0</title>
<ellipse fill="grey" stroke="black" cx="21" cy="-284" rx="20.5982" ry="20.5982"/>
<text text-anchor="middle" x="21" y="-280.3" font-family="Times,serif" font-size="14.00">ftp</text>
</g>
<!-- ftype -->
<g id="node10" class="node"><title>ftype</title>
<ellipse fill="lightyellow" stroke="black" cx="105" cy="-284" rx="27" ry="18"/>
<text text-anchor="middle" x="105" y="-280.3" font-family="Times,serif" font-size="14.00">Тип</text>
</g>
<!-- n0&#45;&#45;ftype -->
<g id="edge8" class="edge"><title>n0&#45;&#45;ftype</title>
<path fill="none" stroke="black" d="M41.8499,-284C52.6568,-284 66.1634,-284 77.8222,-284"/>
</g>
<!-- os -->
<g id="node5" class="node"><title>os</title>
<ellipse fill="lightgreen" stroke="black" cx="323" cy="-706" rx="27" ry="18"/>
<text text-anchor="middle" x="323" y="-702.3" font-family="Times,serif" font-size="14.00">ОС</text>
</g>
<!-- windows -->
<g id="node16" class="node"><title>windows</title>
<polygon fill="white" stroke="white" points="469.5,-778 424.5,-778 412.5,-766 412.5,-754 424.5,-742 469.5,-742 481.5,-754 481.5,-766 469.5,-778"/>
<path fill="white" stroke="white" d="M424.5,-778C418.5,-778 412.5,-772 412.5,-766"/>
<path fill="white" stroke="white" d="M412.5,-754C412.5,-748 418.5,-742 424.5,-742"/>
<path fill="white" stroke="white" d="M469.5,-742C475.5,-742 481.5,-748 481.5,-754"/>
<path fill="white" stroke="white" d="M481.5,-766C481.5,-772 475.5,-778 469.5,-778"/>
<polyline fill="none" stroke="black" points="469.5,-778 424.5,-778 "/>
<path fill="none" stroke="black" d="M424.5,-778C418.5,-778 412.5,-772 412.5,-766"/>
<polyline fill="none" stroke="black" points="412.5,-766 412.5,-754 "/>
<path fill="none" stroke="black" d="M412.5,-754C412.5,-748 418.5,-742 424.5,-742"/>
<polyline fill="none" stroke="black" points="424.5,-742 469.5,-742 "/>
<path fill="none" stroke="black" d="M469.5,-742C475.5,-742 481.5,-748 481.5,-754"/>
<polyline fill="none" stroke="black" points="481.5,-754 481.5,-766 "/>
<path fill="none" stroke="black" d="M481.5,-766C481.5,-772 475.5,-778 469.5,-778"/>
<text text-anchor="middle" x="447" y="-756.3" font-family="Times,serif" font-size="14.00">Windows</text>
</g>
<!-- os&#45;&#45;windows -->
<g id="edge16" class="edge"><title>os&#45;&#45;windows</title>
<path fill="none" stroke="black" d="M345.811,-715.654C364.316,-723.845 391.166,-735.729 412.413,-745.134"/>
</g>
<!-- linux -->
<g id="node17" class="node"><title>linux</title>
<polygon fill="white" stroke="white" points="462,-724 432,-724 420,-712 420,-700 432,-688 462,-688 474,-700 474,-712 462,-724"/>
<path fill="white" stroke="white" d="M432,-724C426,-724 420,-718 420,-712"/>
<path fill="white" stroke="white" d="M420,-700C420,-694 426,-688 432,-688"/>
<path fill="white" stroke="white" d="M462,-688C468,-688 474,-694 474,-700"/>
<path fill="white" stroke="white" d="M474,-712C474,-718 468,-724 462,-724"/>
<polyline fill="none" stroke="black" points="462,-724 432,-724 "/>
<path fill="none" stroke="black" d="M432,-724C426,-724 420,-718 420,-712"/>
<polyline fill="none" stroke="black" points="420,-712 420,-700 "/>
<path fill="none" stroke="black" d="M420,-700C420,-694 426,-688 432,-688"/>
<polyline fill="none" stroke="black" points="432,-688 462,-688 "/>
<path fill="none" stroke="black" d="M462,-688C468,-688 474,-694 474,-700"/>
<polyline fill="none" stroke="black" points="474,-700 474,-712 "/>
<path fill="none" stroke="black" d="M474,-712C474,-718 468,-724 462,-724"/>
<text text-anchor="middle" x="447" y="-702.3" font-family="Times,serif" font-size="14.00">Linux</text>
</g>
<!-- os&#45;&#45;linux -->
<g id="edge17" class="edge"><title>os&#45;&#45;linux</title>
<path fill="none" stroke="black" d="M350.172,-706C370.756,-706 399.298,-706 419.871,-706"/>
</g>
<!-- hwtype -->
<g id="node6" class="node"><title>hwtype</title>
<ellipse fill="lightgreen" stroke="black" cx="447" cy="-328" rx="43.5923" ry="18"/>
<text text-anchor="middle" x="447" y="-324.3" font-family="Times,serif" font-size="14.00">HW type</text>
</g>
<!-- hwchipset -->
<g id="node19" class="node"><title>hwchipset</title>
<polygon fill="white" stroke="white" points="612,-576 578,-576 566,-564 566,-552 578,-540 612,-540 624,-552 624,-564 612,-576"/>
<path fill="white" stroke="white" d="M578,-576C572,-576 566,-570 566,-564"/>
<path fill="white" stroke="white" d="M566,-552C566,-546 572,-540 578,-540"/>
<path fill="white" stroke="white" d="M612,-540C618,-540 624,-546 624,-552"/>
<path fill="white" stroke="white" d="M624,-564C624,-570 618,-576 612,-576"/>
<polyline fill="none" stroke="black" points="612,-576 578,-576 "/>
<path fill="none" stroke="black" d="M578,-576C572,-576 566,-570 566,-564"/>
<polyline fill="none" stroke="black" points="566,-564 566,-552 "/>
<path fill="none" stroke="black" d="M566,-552C566,-546 572,-540 578,-540"/>
<polyline fill="none" stroke="black" points="578,-540 612,-540 "/>
<path fill="none" stroke="black" d="M612,-540C618,-540 624,-546 624,-552"/>
<polyline fill="none" stroke="black" points="624,-552 624,-564 "/>
<path fill="none" stroke="black" d="M624,-564C624,-570 618,-576 612,-576"/>
<text text-anchor="middle" x="595" y="-554.3" font-family="Times,serif" font-size="14.00">Chipset</text>
</g>
<!-- hwtype&#45;&#45;hwchipset -->
<g id="edge28" class="edge"><title>hwtype&#45;&#45;hwchipset</title>
<path fill="none" stroke="black" d="M479.991,-339.9C486.814,-343.776 493.354,-348.743 498,-355 545.599,-419.102 484.116,-468.66 534,-531 541.993,-540.989 554.477,-547.406 565.992,-551.464"/>
</g>
<!-- hwnic -->
<g id="node20" class="node"><title>hwnic</title>
<polygon fill="white" stroke="white" points="610,-522 580,-522 568,-510 568,-498 580,-486 610,-486 622,-498 622,-510 610,-522"/>
<path fill="white" stroke="white" d="M580,-522C574,-522 568,-516 568,-510"/>
<path fill="white" stroke="white" d="M568,-498C568,-492 574,-486 580,-486"/>
<path fill="white" stroke="white" d="M610,-486C616,-486 622,-492 622,-498"/>
<path fill="white" stroke="white" d="M622,-510C622,-516 616,-522 610,-522"/>
<polyline fill="none" stroke="black" points="610,-522 580,-522 "/>
<path fill="none" stroke="black" d="M580,-522C574,-522 568,-516 568,-510"/>
<polyline fill="none" stroke="black" points="568,-510 568,-498 "/>
<path fill="none" stroke="black" d="M568,-498C568,-492 574,-486 580,-486"/>
<polyline fill="none" stroke="black" points="580,-486 610,-486 "/>
<path fill="none" stroke="black" d="M610,-486C616,-486 622,-492 622,-498"/>
<polyline fill="none" stroke="black" points="622,-498 622,-510 "/>
<path fill="none" stroke="black" d="M622,-510C622,-516 616,-522 610,-522"/>
<text text-anchor="middle" x="595" y="-500.3" font-family="Times,serif" font-size="14.00">NIC</text>
</g>
<!-- hwtype&#45;&#45;hwnic -->
<g id="edge29" class="edge"><title>hwtype&#45;&#45;hwnic</title>
<path fill="none" stroke="black" d="M479.615,-340.191C486.451,-344.058 493.092,-348.946 498,-355 533.605,-398.913 496.832,-434.402 534,-477 542.787,-487.07 556.074,-493.575 567.914,-497.671"/>
</g>
<!-- hwvideo -->
<g id="node21" class="node"><title>hwvideo</title>
<polygon fill="white" stroke="white" points="610,-468 580,-468 568,-456 568,-444 580,-432 610,-432 622,-444 622,-456 610,-468"/>
<path fill="white" stroke="white" d="M580,-468C574,-468 568,-462 568,-456"/>
<path fill="white" stroke="white" d="M568,-444C568,-438 574,-432 580,-432"/>
<path fill="white" stroke="white" d="M610,-432C616,-432 622,-438 622,-444"/>
<path fill="white" stroke="white" d="M622,-456C622,-462 616,-468 610,-468"/>
<polyline fill="none" stroke="black" points="610,-468 580,-468 "/>
<path fill="none" stroke="black" d="M580,-468C574,-468 568,-462 568,-456"/>
<polyline fill="none" stroke="black" points="568,-456 568,-444 "/>
<path fill="none" stroke="black" d="M568,-444C568,-438 574,-432 580,-432"/>
<polyline fill="none" stroke="black" points="580,-432 610,-432 "/>
<path fill="none" stroke="black" d="M610,-432C616,-432 622,-438 622,-444"/>
<polyline fill="none" stroke="black" points="622,-444 622,-456 "/>
<path fill="none" stroke="black" d="M622,-456C622,-462 616,-468 610,-468"/>
<text text-anchor="middle" x="595" y="-446.3" font-family="Times,serif" font-size="14.00">Video</text>
</g>
<!-- hwtype&#45;&#45;hwvideo -->
<g id="edge30" class="edge"><title>hwtype&#45;&#45;hwvideo</title>
<path fill="none" stroke="black" d="M478.262,-340.647C485.301,-344.54 492.373,-349.326 498,-355 522.081,-379.28 509.058,-399.606 534,-423 543.498,-431.908 556.435,-438.237 567.865,-442.517"/>
</g>
<!-- hwaudio -->
<g id="node22" class="node"><title>hwaudio</title>
<polygon fill="white" stroke="white" points="610,-414 580,-414 568,-402 568,-390 580,-378 610,-378 622,-390 622,-402 610,-414"/>
<path fill="white" stroke="white" d="M580,-414C574,-414 568,-408 568,-402"/>
<path fill="white" stroke="white" d="M568,-390C568,-384 574,-378 580,-378"/>
<path fill="white" stroke="white" d="M610,-378C616,-378 622,-384 622,-390"/>
<path fill="white" stroke="white" d="M622,-402C622,-408 616,-414 610,-414"/>
<polyline fill="none" stroke="black" points="610,-414 580,-414 "/>
<path fill="none" stroke="black" d="M580,-414C574,-414 568,-408 568,-402"/>
<polyline fill="none" stroke="black" points="568,-402 568,-390 "/>
<path fill="none" stroke="black" d="M568,-390C568,-384 574,-378 580,-378"/>
<polyline fill="none" stroke="black" points="580,-378 610,-378 "/>
<path fill="none" stroke="black" d="M610,-378C616,-378 622,-384 622,-390"/>
<polyline fill="none" stroke="black" points="622,-390 622,-402 "/>
<path fill="none" stroke="black" d="M622,-402C622,-408 616,-414 610,-414"/>
<text text-anchor="middle" x="595" y="-392.3" font-family="Times,serif" font-size="14.00">Audio</text>
</g>
<!-- hwtype&#45;&#45;hwaudio -->
<g id="edge31" class="edge"><title>hwtype&#45;&#45;hwaudio</title>
<path fill="none" stroke="black" d="M476.202,-341.637C492.954,-349.69 514.64,-360.03 534,-369 545.09,-374.138 557.391,-379.698 567.954,-384.429"/>
</g>
<!-- hwprinter -->
<g id="node23" class="node"><title>hwprinter</title>
<polygon fill="white" stroke="white" points="610,-360 580,-360 568,-348 568,-336 580,-324 610,-324 622,-336 622,-348 610,-360"/>
<path fill="white" stroke="white" d="M580,-360C574,-360 568,-354 568,-348"/>
<path fill="white" stroke="white" d="M568,-336C568,-330 574,-324 580,-324"/>
<path fill="white" stroke="white" d="M610,-324C616,-324 622,-330 622,-336"/>
<path fill="white" stroke="white" d="M622,-348C622,-354 616,-360 610,-360"/>
<polyline fill="none" stroke="black" points="610,-360 580,-360 "/>
<path fill="none" stroke="black" d="M580,-360C574,-360 568,-354 568,-348"/>
<polyline fill="none" stroke="black" points="568,-348 568,-336 "/>
<path fill="none" stroke="black" d="M568,-336C568,-330 574,-324 580,-324"/>
<polyline fill="none" stroke="black" points="580,-324 610,-324 "/>
<path fill="none" stroke="black" d="M610,-324C616,-324 622,-330 622,-336"/>
<polyline fill="none" stroke="black" points="622,-336 622,-348 "/>
<path fill="none" stroke="black" d="M622,-348C622,-354 616,-360 610,-360"/>
<text text-anchor="middle" x="595" y="-338.3" font-family="Times,serif" font-size="14.00">Printer</text>
</g>
<!-- hwtype&#45;&#45;hwprinter -->
<g id="edge32" class="edge"><title>hwtype&#45;&#45;hwprinter</title>
<path fill="none" stroke="black" d="M489.838,-332.012C514.948,-334.42 546.115,-337.408 567.781,-339.486"/>
</g>
<!-- hwscanner -->
<g id="node24" class="node"><title>hwscanner</title>
<polygon fill="white" stroke="white" points="613,-306 577,-306 565,-294 565,-282 577,-270 613,-270 625,-282 625,-294 613,-306"/>
<path fill="white" stroke="white" d="M577,-306C571,-306 565,-300 565,-294"/>
<path fill="white" stroke="white" d="M565,-282C565,-276 571,-270 577,-270"/>
<path fill="white" stroke="white" d="M613,-270C619,-270 625,-276 625,-282"/>
<path fill="white" stroke="white" d="M625,-294C625,-300 619,-306 613,-306"/>
<polyline fill="none" stroke="black" points="613,-306 577,-306 "/>
<path fill="none" stroke="black" d="M577,-306C571,-306 565,-300 565,-294"/>
<polyline fill="none" stroke="black" points="565,-294 565,-282 "/>
<path fill="none" stroke="black" d="M565,-282C565,-276 571,-270 577,-270"/>
<polyline fill="none" stroke="black" points="577,-270 613,-270 "/>
<path fill="none" stroke="black" d="M613,-270C619,-270 625,-276 625,-282"/>
<polyline fill="none" stroke="black" points="625,-282 625,-294 "/>
<path fill="none" stroke="black" d="M625,-294C625,-300 619,-306 613,-306"/>
<text text-anchor="middle" x="595" y="-284.3" font-family="Times,serif" font-size="14.00">Scanner</text>
</g>
<!-- hwtype&#45;&#45;hwscanner -->
<g id="edge33" class="edge"><title>hwtype&#45;&#45;hwscanner</title>
<path fill="none" stroke="black" d="M483.716,-318.215C508.535,-311.415 541.215,-302.462 564.544,-296.07"/>
</g>
<!-- hwups -->
<g id="node25" class="node"><title>hwups</title>
<polygon fill="white" stroke="white" points="610,-252 580,-252 568,-240 568,-228 580,-216 610,-216 622,-228 622,-240 610,-252"/>
<path fill="white" stroke="white" d="M580,-252C574,-252 568,-246 568,-240"/>
<path fill="white" stroke="white" d="M568,-228C568,-222 574,-216 580,-216"/>
<path fill="white" stroke="white" d="M610,-216C616,-216 622,-222 622,-228"/>
<path fill="white" stroke="white" d="M622,-240C622,-246 616,-252 610,-252"/>
<polyline fill="none" stroke="black" points="610,-252 580,-252 "/>
<path fill="none" stroke="black" d="M580,-252C574,-252 568,-246 568,-240"/>
<polyline fill="none" stroke="black" points="568,-240 568,-228 "/>
<path fill="none" stroke="black" d="M568,-228C568,-222 574,-216 580,-216"/>
<polyline fill="none" stroke="black" points="580,-216 610,-216 "/>
<path fill="none" stroke="black" d="M610,-216C616,-216 622,-222 622,-228"/>
<polyline fill="none" stroke="black" points="622,-228 622,-240 "/>
<path fill="none" stroke="black" d="M622,-240C622,-246 616,-252 610,-252"/>
<text text-anchor="middle" x="595" y="-230.3" font-family="Times,serif" font-size="14.00">UPS</text>
</g>
<!-- hwtype&#45;&#45;hwups -->
<g id="edge34" class="edge"><title>hwtype&#45;&#45;hwups</title>
<path fill="none" stroke="black" d="M476.563,-314.752C483.865,-310.792 491.487,-306.124 498,-301 516.798,-286.212 514.68,-275.099 534,-261 544.242,-253.526 556.883,-247.457 567.916,-242.98"/>
</g>
<!-- hwmodem -->
<g id="node26" class="node"><title>hwmodem</title>
<polygon fill="white" stroke="white" points="613,-198 577,-198 565,-186 565,-174 577,-162 613,-162 625,-174 625,-186 613,-198"/>
<path fill="white" stroke="white" d="M577,-198C571,-198 565,-192 565,-186"/>
<path fill="white" stroke="white" d="M565,-174C565,-168 571,-162 577,-162"/>
<path fill="white" stroke="white" d="M613,-162C619,-162 625,-168 625,-174"/>
<path fill="white" stroke="white" d="M625,-186C625,-192 619,-198 613,-198"/>
<polyline fill="none" stroke="black" points="613,-198 577,-198 "/>
<path fill="none" stroke="black" d="M577,-198C571,-198 565,-192 565,-186"/>
<polyline fill="none" stroke="black" points="565,-186 565,-174 "/>
<path fill="none" stroke="black" d="M565,-174C565,-168 571,-162 577,-162"/>
<polyline fill="none" stroke="black" points="577,-162 613,-162 "/>
<path fill="none" stroke="black" d="M613,-162C619,-162 625,-168 625,-174"/>
<polyline fill="none" stroke="black" points="625,-174 625,-186 "/>
<path fill="none" stroke="black" d="M625,-186C625,-192 619,-198 613,-198"/>
<text text-anchor="middle" x="595" y="-176.3" font-family="Times,serif" font-size="14.00">Modem</text>
</g>
<!-- hwtype&#45;&#45;hwmodem -->
<g id="edge35" class="edge"><title>hwtype&#45;&#45;hwmodem</title>
<path fill="none" stroke="black" d="M479.018,-315.67C485.956,-311.79 492.792,-306.93 498,-301 527.522,-267.387 503.282,-239.524 534,-207 542.314,-198.197 554.03,-192.055 564.905,-187.88"/>
</g>
<!-- hwtoken -->
<g id="node27" class="node"><title>hwtoken</title>
<polygon fill="white" stroke="white" points="610,-144 580,-144 568,-132 568,-120 580,-108 610,-108 622,-120 622,-132 610,-144"/>
<path fill="white" stroke="white" d="M580,-144C574,-144 568,-138 568,-132"/>
<path fill="white" stroke="white" d="M568,-120C568,-114 574,-108 580,-108"/>
<path fill="white" stroke="white" d="M610,-108C616,-108 622,-114 622,-120"/>
<path fill="white" stroke="white" d="M622,-132C622,-138 616,-144 610,-144"/>
<polyline fill="none" stroke="black" points="610,-144 580,-144 "/>
<path fill="none" stroke="black" d="M580,-144C574,-144 568,-138 568,-132"/>
<polyline fill="none" stroke="black" points="568,-132 568,-120 "/>
<path fill="none" stroke="black" d="M568,-120C568,-114 574,-108 580,-108"/>
<polyline fill="none" stroke="black" points="580,-108 610,-108 "/>
<path fill="none" stroke="black" d="M610,-108C616,-108 622,-114 622,-120"/>
<polyline fill="none" stroke="black" points="622,-120 622,-132 "/>
<path fill="none" stroke="black" d="M622,-132C622,-138 616,-144 610,-144"/>
<text text-anchor="middle" x="595" y="-122.3" font-family="Times,serif" font-size="14.00">Токен</text>
</g>
<!-- hwtype&#45;&#45;hwtoken -->
<g id="edge36" class="edge"><title>hwtype&#45;&#45;hwtoken</title>
<path fill="none" stroke="black" d="M479.827,-315.976C486.655,-312.104 493.239,-307.171 498,-301 539.352,-247.402 490.738,-205.069 534,-153 542.541,-142.721 555.807,-136.197 567.696,-132.144"/>
</g>
<!-- artist -->
<g id="node7" class="node"><title>artist</title>
<ellipse fill="lightgreen" stroke="black" cx="595" cy="-72" rx="60.3893" ry="18"/>
<text text-anchor="middle" x="595" y="-68.3" font-family="Times,serif" font-size="14.00">Исполнитель</text>
</g>
<!-- genre -->
<g id="node8" class="node"><title>genre</title>
<ellipse fill="lightgreen" stroke="black" cx="595" cy="-18" rx="32.4942" ry="18"/>
<text text-anchor="middle" x="595" y="-14.3" font-family="Times,serif" font-size="14.00">Жанр</text>
</g>
<!-- app -->
<g id="node15" class="node"><title>app</title>
<polygon fill="white" stroke="white" points="238,-427 180,-427 168,-415 168,-403 180,-391 238,-391 250,-403 250,-415 238,-427"/>
<path fill="white" stroke="white" d="M180,-427C174,-427 168,-421 168,-415"/>
<path fill="white" stroke="white" d="M168,-403C168,-397 174,-391 180,-391"/>
<path fill="white" stroke="white" d="M238,-391C244,-391 250,-397 250,-403"/>
<path fill="white" stroke="white" d="M250,-415C250,-421 244,-427 238,-427"/>
<polyline fill="none" stroke="black" points="238,-427 180,-427 "/>
<path fill="none" stroke="black" d="M180,-427C174,-427 168,-421 168,-415"/>
<polyline fill="none" stroke="black" points="168,-415 168,-403 "/>
<path fill="none" stroke="black" d="M168,-403C168,-397 174,-391 180,-391"/>
<polyline fill="none" stroke="black" points="180,-391 238,-391 "/>
<path fill="none" stroke="black" d="M238,-391C244,-391 250,-397 250,-403"/>
<polyline fill="none" stroke="black" points="250,-403 250,-415 "/>
<path fill="none" stroke="black" d="M250,-415C250,-421 244,-427 238,-427"/>
<text text-anchor="middle" x="209" y="-405.3" font-family="Times,serif" font-size="14.00">Программа</text>
</g>
<!-- ftype&#45;&#45;app -->
<g id="edge55" class="edge"><title>ftype&#45;&#45;app</title>
<path fill="none" stroke="black" d="M118.712,-299.579C137.617,-322.747 173.063,-366.186 193.14,-390.789"/>
</g>
<!-- book -->
<g id="node34" class="node"><title>book</title>
<polygon fill="white" stroke="white" points="224,-302 194,-302 182,-290 182,-278 194,-266 224,-266 236,-278 236,-290 224,-302"/>
<path fill="white" stroke="white" d="M194,-302C188,-302 182,-296 182,-290"/>
<path fill="white" stroke="white" d="M182,-278C182,-272 188,-266 194,-266"/>
<path fill="white" stroke="white" d="M224,-266C230,-266 236,-272 236,-278"/>
<path fill="white" stroke="white" d="M236,-290C236,-296 230,-302 224,-302"/>
<polyline fill="none" stroke="black" points="224,-302 194,-302 "/>
<path fill="none" stroke="black" d="M194,-302C188,-302 182,-296 182,-290"/>
<polyline fill="none" stroke="black" points="182,-290 182,-278 "/>
<path fill="none" stroke="black" d="M182,-278C182,-272 188,-266 194,-266"/>
<polyline fill="none" stroke="black" points="194,-266 224,-266 "/>
<path fill="none" stroke="black" d="M224,-266C230,-266 236,-272 236,-278"/>
<polyline fill="none" stroke="black" points="236,-278 236,-290 "/>
<path fill="none" stroke="black" d="M236,-290C236,-296 230,-302 224,-302"/>
<text text-anchor="middle" x="209" y="-280.3" font-family="Times,serif" font-size="14.00">Книга</text>
</g>
<!-- ftype&#45;&#45;book -->
<g id="edge56" class="edge"><title>ftype&#45;&#45;book</title>
<path fill="none" stroke="black" d="M132.003,-284C147.231,-284 166.409,-284 181.69,-284"/>
</g>
<!-- media -->
<g id="node35" class="node"><title>media</title>
<polygon fill="white" stroke="white" points="224,-215 194,-215 182,-203 182,-191 194,-179 224,-179 236,-191 236,-203 224,-215"/>
<path fill="white" stroke="white" d="M194,-215C188,-215 182,-209 182,-203"/>
<path fill="white" stroke="white" d="M182,-191C182,-185 188,-179 194,-179"/>
<path fill="white" stroke="white" d="M224,-179C230,-179 236,-185 236,-191"/>
<path fill="white" stroke="white" d="M236,-203C236,-209 230,-215 224,-215"/>
<polyline fill="none" stroke="black" points="224,-215 194,-215 "/>
<path fill="none" stroke="black" d="M194,-215C188,-215 182,-209 182,-203"/>
<polyline fill="none" stroke="black" points="182,-203 182,-191 "/>
<path fill="none" stroke="black" d="M182,-191C182,-185 188,-179 194,-179"/>
<polyline fill="none" stroke="black" points="194,-179 224,-179 "/>
<path fill="none" stroke="black" d="M224,-179C230,-179 236,-185 236,-191"/>
<polyline fill="none" stroke="black" points="236,-191 236,-203 "/>
<path fill="none" stroke="black" d="M236,-203C236,-209 230,-215 224,-215"/>
<text text-anchor="middle" x="209" y="-193.3" font-family="Times,serif" font-size="14.00">Media</text>
</g>
<!-- ftype&#45;&#45;media -->
<g id="edge57" class="edge"><title>ftype&#45;&#45;media</title>
<path fill="none" stroke="black" d="M122.388,-270.022C139.846,-255.132 167.548,-231.503 186.689,-215.177"/>
</g>
<!-- vendor -->
<g id="node11" class="node"><title>vendor</title>
<ellipse fill="lightyellow" stroke="black" cx="323" cy="-490" rx="37.0935" ry="18"/>
<text text-anchor="middle" x="323" y="-486.3" font-family="Times,serif" font-size="14.00">Vendor</text>
</g>
<!-- vendor1 -->
<g id="node28" class="node"><title>vendor1</title>
<polygon fill="white" stroke="white" points="462,-670 432,-670 420,-658 420,-646 432,-634 462,-634 474,-646 474,-658 462,-670"/>
<path fill="white" stroke="white" d="M432,-670C426,-670 420,-664 420,-658"/>
<path fill="white" stroke="white" d="M420,-646C420,-640 426,-634 432,-634"/>
<path fill="white" stroke="white" d="M462,-634C468,-634 474,-640 474,-646"/>
<path fill="white" stroke="white" d="M474,-658C474,-664 468,-670 462,-670"/>
<polyline fill="none" stroke="black" points="462,-670 432,-670 "/>
<path fill="none" stroke="black" d="M432,-670C426,-670 420,-664 420,-658"/>
<polyline fill="none" stroke="black" points="420,-658 420,-646 "/>
<path fill="none" stroke="black" d="M420,-646C420,-640 426,-634 432,-634"/>
<polyline fill="none" stroke="black" points="432,-634 462,-634 "/>
<path fill="none" stroke="black" d="M462,-634C468,-634 474,-640 474,-646"/>
<polyline fill="none" stroke="black" points="474,-646 474,-658 "/>
<path fill="none" stroke="black" d="M474,-658C474,-664 468,-670 462,-670"/>
<text text-anchor="middle" x="447" y="-648.3" font-family="Times,serif" font-size="14.00">Intel</text>
</g>
<!-- vendor&#45;&#45;vendor1 -->
<g id="edge20" class="edge"><title>vendor&#45;&#45;vendor1</title>
<path fill="none" stroke="black" d="M329.702,-507.807C339.415,-535.769 361.53,-590.351 396,-625 402.749,-631.784 411.562,-637.303 419.906,-641.543"/>
</g>
<!-- vendor2 -->
<g id="node29" class="node"><title>vendor2</title>
<polygon fill="white" stroke="white" points="462,-616 432,-616 420,-604 420,-592 432,-580 462,-580 474,-592 474,-604 462,-616"/>
<path fill="white" stroke="white" d="M432,-616C426,-616 420,-610 420,-604"/>
<path fill="white" stroke="white" d="M420,-592C420,-586 426,-580 432,-580"/>
<path fill="white" stroke="white" d="M462,-580C468,-580 474,-586 474,-592"/>
<path fill="white" stroke="white" d="M474,-604C474,-610 468,-616 462,-616"/>
<polyline fill="none" stroke="black" points="462,-616 432,-616 "/>
<path fill="none" stroke="black" d="M432,-616C426,-616 420,-610 420,-604"/>
<polyline fill="none" stroke="black" points="420,-604 420,-592 "/>
<path fill="none" stroke="black" d="M420,-592C420,-586 426,-580 432,-580"/>
<polyline fill="none" stroke="black" points="432,-580 462,-580 "/>
<path fill="none" stroke="black" d="M462,-580C468,-580 474,-586 474,-592"/>
<polyline fill="none" stroke="black" points="474,-592 474,-604 "/>
<path fill="none" stroke="black" d="M474,-604C474,-610 468,-616 462,-616"/>
<text text-anchor="middle" x="447" y="-594.3" font-family="Times,serif" font-size="14.00">AMD</text>
</g>
<!-- vendor&#45;&#45;vendor2 -->
<g id="edge21" class="edge"><title>vendor&#45;&#45;vendor2</title>
<path fill="none" stroke="black" d="M336.327,-507.09C349.617,-524.67 372.102,-552.081 396,-571 403.193,-576.695 411.759,-581.815 419.75,-586.027"/>
</g>
<!-- vendor3 -->
<g id="node30" class="node"><title>vendor3</title>
<polygon fill="white" stroke="white" points="462,-562 432,-562 420,-550 420,-538 432,-526 462,-526 474,-538 474,-550 462,-562"/>
<path fill="white" stroke="white" d="M432,-562C426,-562 420,-556 420,-550"/>
<path fill="white" stroke="white" d="M420,-538C420,-532 426,-526 432,-526"/>
<path fill="white" stroke="white" d="M462,-526C468,-526 474,-532 474,-538"/>
<path fill="white" stroke="white" d="M474,-550C474,-556 468,-562 462,-562"/>
<polyline fill="none" stroke="black" points="462,-562 432,-562 "/>
<path fill="none" stroke="black" d="M432,-562C426,-562 420,-556 420,-550"/>
<polyline fill="none" stroke="black" points="420,-550 420,-538 "/>
<path fill="none" stroke="black" d="M420,-538C420,-532 426,-526 432,-526"/>
<polyline fill="none" stroke="black" points="432,-526 462,-526 "/>
<path fill="none" stroke="black" d="M462,-526C468,-526 474,-532 474,-538"/>
<polyline fill="none" stroke="black" points="474,-538 474,-550 "/>
<path fill="none" stroke="black" d="M474,-550C474,-556 468,-562 462,-562"/>
<text text-anchor="middle" x="447" y="-540.3" font-family="Times,serif" font-size="14.00">VIA</text>
</g>
<!-- vendor&#45;&#45;vendor3 -->
<g id="edge22" class="edge"><title>vendor&#45;&#45;vendor3</title>
<path fill="none" stroke="black" d="M351.076,-501.984C371.574,-511.057 399.566,-523.447 419.837,-532.42"/>
</g>
<!-- vendor4 -->
<g id="node31" class="node"><title>vendor4</title>
<polygon fill="white" stroke="white" points="462,-508 432,-508 420,-496 420,-484 432,-472 462,-472 474,-484 474,-496 462,-508"/>
<path fill="white" stroke="white" d="M432,-508C426,-508 420,-502 420,-496"/>
<path fill="white" stroke="white" d="M420,-484C420,-478 426,-472 432,-472"/>
<path fill="white" stroke="white" d="M462,-472C468,-472 474,-478 474,-484"/>
<path fill="white" stroke="white" d="M474,-496C474,-502 468,-508 462,-508"/>
<polyline fill="none" stroke="black" points="462,-508 432,-508 "/>
<path fill="none" stroke="black" d="M432,-508C426,-508 420,-502 420,-496"/>
<polyline fill="none" stroke="black" points="420,-496 420,-484 "/>
<path fill="none" stroke="black" d="M420,-484C420,-478 426,-472 432,-472"/>
<polyline fill="none" stroke="black" points="432,-472 462,-472 "/>
<path fill="none" stroke="black" d="M462,-472C468,-472 474,-478 474,-484"/>
<polyline fill="none" stroke="black" points="474,-484 474,-496 "/>
<path fill="none" stroke="black" d="M474,-496C474,-502 468,-508 462,-508"/>
<text text-anchor="middle" x="447" y="-486.3" font-family="Times,serif" font-size="14.00">Nvidia</text>
</g>
<!-- vendor&#45;&#45;vendor4 -->
<g id="edge23" class="edge"><title>vendor&#45;&#45;vendor4</title>
<path fill="none" stroke="black" d="M360.274,-490C379.379,-490 402.379,-490 419.744,-490"/>
</g>
<!-- vendor5 -->
<g id="node32" class="node"><title>vendor5</title>
<polygon fill="white" stroke="white" points="462,-454 432,-454 420,-442 420,-430 432,-418 462,-418 474,-430 474,-442 462,-454"/>
<path fill="white" stroke="white" d="M432,-454C426,-454 420,-448 420,-442"/>
<path fill="white" stroke="white" d="M420,-430C420,-424 426,-418 432,-418"/>
<path fill="white" stroke="white" d="M462,-418C468,-418 474,-424 474,-430"/>
<path fill="white" stroke="white" d="M474,-442C474,-448 468,-454 462,-454"/>
<polyline fill="none" stroke="black" points="462,-454 432,-454 "/>
<path fill="none" stroke="black" d="M432,-454C426,-454 420,-448 420,-442"/>
<polyline fill="none" stroke="black" points="420,-442 420,-430 "/>
<path fill="none" stroke="black" d="M420,-430C420,-424 426,-418 432,-418"/>
<polyline fill="none" stroke="black" points="432,-418 462,-418 "/>
<path fill="none" stroke="black" d="M462,-418C468,-418 474,-424 474,-430"/>
<polyline fill="none" stroke="black" points="474,-430 474,-442 "/>
<path fill="none" stroke="black" d="M474,-442C474,-448 468,-454 462,-454"/>
<text text-anchor="middle" x="447" y="-432.3" font-family="Times,serif" font-size="14.00">SiS</text>
</g>
<!-- vendor&#45;&#45;vendor5 -->
<g id="edge24" class="edge"><title>vendor&#45;&#45;vendor5</title>
<path fill="none" stroke="black" d="M351.076,-478.016C371.574,-468.943 399.566,-456.553 419.837,-447.58"/>
</g>
<!-- vendor6 -->
<g id="node33" class="node"><title>vendor6</title>
<polygon fill="white" stroke="white" points="462,-400 432,-400 420,-388 420,-376 432,-364 462,-364 474,-376 474,-388 462,-400"/>
<path fill="white" stroke="white" d="M432,-400C426,-400 420,-394 420,-388"/>
<path fill="white" stroke="white" d="M420,-376C420,-370 426,-364 432,-364"/>
<path fill="white" stroke="white" d="M462,-364C468,-364 474,-370 474,-376"/>
<path fill="white" stroke="white" d="M474,-388C474,-394 468,-400 462,-400"/>
<polyline fill="none" stroke="black" points="462,-400 432,-400 "/>
<path fill="none" stroke="black" d="M432,-400C426,-400 420,-394 420,-388"/>
<polyline fill="none" stroke="black" points="420,-388 420,-376 "/>
<path fill="none" stroke="black" d="M420,-376C420,-370 426,-364 432,-364"/>
<polyline fill="none" stroke="black" points="432,-364 462,-364 "/>
<path fill="none" stroke="black" d="M462,-364C468,-364 474,-370 474,-376"/>
<polyline fill="none" stroke="black" points="474,-376 474,-388 "/>
<path fill="none" stroke="black" d="M474,-388C474,-394 468,-400 462,-400"/>
<text text-anchor="middle" x="447" y="-378.3" font-family="Times,serif" font-size="14.00">S3</text>
</g>
<!-- vendor&#45;&#45;vendor6 -->
<g id="edge25" class="edge"><title>vendor&#45;&#45;vendor6</title>
<path fill="none" stroke="black" d="M336.327,-472.91C349.617,-455.33 372.102,-427.919 396,-409 403.193,-403.305 411.759,-398.185 419.75,-393.973"/>
</g>
<!-- hwmodel -->
<g id="node12" class="node"><title>hwmodel</title>
<ellipse fill="lightyellow" stroke="black" cx="447" cy="-274" rx="50.8918" ry="18"/>
<text text-anchor="middle" x="447" y="-270.3" font-family="Times,serif" font-size="14.00">HW model</text>
</g>
<!-- mediatype -->
<g id="node13" class="node"><title>mediatype</title>
<ellipse fill="lightyellow" stroke="black" cx="323" cy="-180" rx="27" ry="18"/>
<text text-anchor="middle" x="323" y="-176.3" font-family="Times,serif" font-size="14.00">Тип</text>
</g>
<!-- image -->
<g id="node36" class="node"><title>image</title>
<polygon fill="white" stroke="white" points="462,-225 432,-225 420,-213 420,-201 432,-189 462,-189 474,-201 474,-213 462,-225"/>
<path fill="white" stroke="white" d="M432,-225C426,-225 420,-219 420,-213"/>
<path fill="white" stroke="white" d="M420,-201C420,-195 426,-189 432,-189"/>
<path fill="white" stroke="white" d="M462,-189C468,-189 474,-195 474,-201"/>
<path fill="white" stroke="white" d="M474,-213C474,-219 468,-225 462,-225"/>
<polyline fill="none" stroke="black" points="462,-225 432,-225 "/>
<path fill="none" stroke="black" d="M432,-225C426,-225 420,-219 420,-213"/>
<polyline fill="none" stroke="black" points="420,-213 420,-201 "/>
<path fill="none" stroke="black" d="M420,-201C420,-195 426,-189 432,-189"/>
<polyline fill="none" stroke="black" points="432,-189 462,-189 "/>
<path fill="none" stroke="black" d="M462,-189C468,-189 474,-195 474,-201"/>
<polyline fill="none" stroke="black" points="474,-201 474,-213 "/>
<path fill="none" stroke="black" d="M474,-213C474,-219 468,-225 462,-225"/>
<text text-anchor="middle" x="447" y="-203.3" font-family="Times,serif" font-size="14.00">Image</text>
</g>
<!-- mediatype&#45;&#45;image -->
<g id="edge11" class="edge"><title>mediatype&#45;&#45;image</title>
<path fill="none" stroke="black" d="M348.983,-185.529C369.618,-190.096 398.819,-196.558 419.786,-201.198"/>
</g>
<!-- video -->
<g id="node37" class="node"><title>video</title>
<polygon fill="white" stroke="white" points="462,-171 432,-171 420,-159 420,-147 432,-135 462,-135 474,-147 474,-159 462,-171"/>
<path fill="white" stroke="white" d="M432,-171C426,-171 420,-165 420,-159"/>
<path fill="white" stroke="white" d="M420,-147C420,-141 426,-135 432,-135"/>
<path fill="white" stroke="white" d="M462,-135C468,-135 474,-141 474,-147"/>
<path fill="white" stroke="white" d="M474,-159C474,-165 468,-171 462,-171"/>
<polyline fill="none" stroke="black" points="462,-171 432,-171 "/>
<path fill="none" stroke="black" d="M432,-171C426,-171 420,-165 420,-159"/>
<polyline fill="none" stroke="black" points="420,-159 420,-147 "/>
<path fill="none" stroke="black" d="M420,-147C420,-141 426,-135 432,-135"/>
<polyline fill="none" stroke="black" points="432,-135 462,-135 "/>
<path fill="none" stroke="black" d="M462,-135C468,-135 474,-141 474,-147"/>
<polyline fill="none" stroke="black" points="474,-147 474,-159 "/>
<path fill="none" stroke="black" d="M474,-159C474,-165 468,-171 462,-171"/>
<text text-anchor="middle" x="447" y="-149.3" font-family="Times,serif" font-size="14.00">Video</text>
</g>
<!-- mediatype&#45;&#45;video -->
<g id="edge12" class="edge"><title>mediatype&#45;&#45;video</title>
<path fill="none" stroke="black" d="M348.983,-174.471C369.618,-169.904 398.819,-163.442 419.786,-158.802"/>
</g>
<!-- audio -->
<g id="node38" class="node"><title>audio</title>
<polygon fill="white" stroke="white" points="462,-90 432,-90 420,-78 420,-66 432,-54 462,-54 474,-66 474,-78 462,-90"/>
<path fill="white" stroke="white" d="M432,-90C426,-90 420,-84 420,-78"/>
<path fill="white" stroke="white" d="M420,-66C420,-60 426,-54 432,-54"/>
<path fill="white" stroke="white" d="M462,-54C468,-54 474,-60 474,-66"/>
<path fill="white" stroke="white" d="M474,-78C474,-84 468,-90 462,-90"/>
<polyline fill="none" stroke="black" points="462,-90 432,-90 "/>
<path fill="none" stroke="black" d="M432,-90C426,-90 420,-84 420,-78"/>
<polyline fill="none" stroke="black" points="420,-78 420,-66 "/>
<path fill="none" stroke="black" d="M420,-66C420,-60 426,-54 432,-54"/>
<polyline fill="none" stroke="black" points="432,-54 462,-54 "/>
<path fill="none" stroke="black" d="M462,-54C468,-54 474,-60 474,-66"/>
<polyline fill="none" stroke="black" points="474,-66 474,-78 "/>
<path fill="none" stroke="black" d="M474,-78C474,-84 468,-90 462,-90"/>
<text text-anchor="middle" x="447" y="-68.3" font-family="Times,serif" font-size="14.00">Audio</text>
</g>
<!-- mediatype&#45;&#45;audio -->
<g id="edge13" class="edge"><title>mediatype&#45;&#45;audio</title>
<path fill="none" stroke="black" d="M339.949,-165.881C361.91,-146.441 401.47,-111.42 425.571,-90.0844"/>
</g>
<!-- app&#45;&#45;os -->
<g id="edge47" class="edge"><title>app&#45;&#45;os</title>
<path fill="none" stroke="black" stroke-dasharray="5,2" d="M216.838,-427.132C236.927,-480.406 295.602,-635.997 315.393,-688.48"/>
</g>
<!-- app&#45;&#45;vendor -->
<g id="edge48" class="edge"><title>app&#45;&#45;vendor</title>
<path fill="none" stroke="black" stroke-dasharray="5,2" d="M235.135,-427.178C255.128,-441.637 282.755,-461.618 301.442,-475.132"/>
</g>
<!-- driver -->
<g id="node18" class="node"><title>driver</title>
<polygon fill="white" stroke="white" points="338,-346 308,-346 296,-334 296,-322 308,-310 338,-310 350,-322 350,-334 338,-346"/>
<path fill="white" stroke="white" d="M308,-346C302,-346 296,-340 296,-334"/>
<path fill="white" stroke="white" d="M296,-322C296,-316 302,-310 308,-310"/>
<path fill="white" stroke="white" d="M338,-310C344,-310 350,-316 350,-322"/>
<path fill="white" stroke="white" d="M350,-334C350,-340 344,-346 338,-346"/>
<polyline fill="none" stroke="black" points="338,-346 308,-346 "/>
<path fill="none" stroke="black" d="M308,-346C302,-346 296,-340 296,-334"/>
<polyline fill="none" stroke="black" points="296,-334 296,-322 "/>
<path fill="none" stroke="black" d="M296,-322C296,-316 302,-310 308,-310"/>
<polyline fill="none" stroke="black" points="308,-310 338,-310 "/>
<path fill="none" stroke="black" d="M338,-310C344,-310 350,-316 350,-322"/>
<polyline fill="none" stroke="black" points="350,-322 350,-334 "/>
<path fill="none" stroke="black" d="M350,-334C350,-340 344,-346 338,-346"/>
<text text-anchor="middle" x="323" y="-324.3" font-family="Times,serif" font-size="14.00">Driver</text>
</g>
<!-- app&#45;&#45;driver -->
<g id="edge60" class="edge"><title>app&#45;&#45;driver</title>
<path fill="none" stroke="black" d="M235.135,-390.822C253.58,-377.482 278.523,-359.443 296.949,-346.117"/>
</g>
<!-- driver&#45;&#45;hwtype -->
<g id="edge51" class="edge"><title>driver&#45;&#45;hwtype</title>
<path fill="none" stroke="black" stroke-dasharray="5,2" d="M350.172,-328C365.575,-328 385.434,-328 403.076,-328"/>
</g>
<!-- driver&#45;&#45;hwmodel -->
<g id="edge52" class="edge"><title>driver&#45;&#45;hwmodel</title>
<path fill="none" stroke="black" stroke-dasharray="5,2" d="M350.172,-316.416C368.936,-308.11 394.312,-296.878 414.237,-288.059"/>
</g>
<!-- media&#45;&#45;mediatype -->
<g id="edge40" class="edge"><title>media&#45;&#45;mediatype</title>
<path fill="none" stroke="black" stroke-dasharray="5,2" d="M236.259,-193.014C254.363,-190.266 278.308,-186.632 296.292,-183.902"/>
</g>
<!-- audio&#45;&#45;artist -->
<g id="edge43" class="edge"><title>audio&#45;&#45;artist</title>
<path fill="none" stroke="black" stroke-dasharray="5,2" d="M474.102,-72C490.916,-72 513.487,-72 534.509,-72"/>
</g>
<!-- audio&#45;&#45;genre -->
<g id="edge44" class="edge"><title>audio&#45;&#45;genre</title>
<path fill="none" stroke="black" stroke-dasharray="5,2" d="M474.102,-62.3459C500.513,-52.5775 541.126,-37.5561 567.632,-27.7526"/>
</g>
</g>
</svg>
