<?xml version="1.0" encoding="UTF-8" standalone="no"?>
<!DOCTYPE svg PUBLIC "-//W3C//DTD SVG 1.1//EN"
 "http://www.w3.org/Graphics/SVG/1.1/DTD/svg11.dtd">
<!-- Generated by graphviz version 2.28.0 (20130109.1153)
 -->
<!-- Title: DasArchive Pages: 1 -->
<svg width="710pt" height="530pt"
 viewBox="0.00 0.00 710.00 530.00" xmlns="http://www.w3.org/2000/svg" xmlns:xlink="http://www.w3.org/1999/xlink">
<g id="graph1" class="graph" transform="scale(1 1) rotate(0) translate(4 526)">
<title>DasArchive</title>
<polygon fill="white" stroke="white" points="-4,5 -4,-526 707,-526 707,5 -4,5"/>
<!-- n0 -->
<g id="node2" class="node"><title>n0</title>
<ellipse fill="grey" stroke="black" cx="21" cy="-152" rx="20.5982" ry="20.5982"/>
<text text-anchor="middle" x="21" y="-148.3" font-family="Times,serif" font-size="14.00">1C</text>
</g>
<!-- onesver -->
<g id="node7" class="node"><title>onesver</title>
<ellipse fill="lightyellow" stroke="black" cx="117" cy="-152" rx="38.1938" ry="18"/>
<text text-anchor="middle" x="117" y="-148.3" font-family="Times,serif" font-size="14.00">Версия</text>
</g>
<!-- n0&#45;&#45;onesver -->
<g id="edge37" class="edge"><title>n0&#45;&#45;onesver</title>
<path fill="none" stroke="black" stroke-dasharray="5,2" d="M41.935,-152C52.6057,-152 66.0998,-152 78.6377,-152"/>
</g>
<!-- os -->
<g id="node5" class="node"><title>os</title>
<ellipse fill="lightgreen" stroke="black" cx="554" cy="-72" rx="27" ry="18"/>
<text text-anchor="middle" x="554" y="-68.3" font-family="Times,serif" font-size="14.00">ОС</text>
</g>
<!-- windows -->
<g id="node27" class="node"><title>windows</title>
<polygon fill="white" stroke="white" points="689.5,-90 644.5,-90 632.5,-78 632.5,-66 644.5,-54 689.5,-54 701.5,-66 701.5,-78 689.5,-90"/>
<path fill="white" stroke="white" d="M644.5,-90C638.5,-90 632.5,-84 632.5,-78"/>
<path fill="white" stroke="white" d="M632.5,-66C632.5,-60 638.5,-54 644.5,-54"/>
<path fill="white" stroke="white" d="M689.5,-54C695.5,-54 701.5,-60 701.5,-66"/>
<path fill="white" stroke="white" d="M701.5,-78C701.5,-84 695.5,-90 689.5,-90"/>
<polyline fill="none" stroke="black" points="689.5,-90 644.5,-90 "/>
<path fill="none" stroke="black" d="M644.5,-90C638.5,-90 632.5,-84 632.5,-78"/>
<polyline fill="none" stroke="black" points="632.5,-78 632.5,-66 "/>
<path fill="none" stroke="black" d="M632.5,-66C632.5,-60 638.5,-54 644.5,-54"/>
<polyline fill="none" stroke="black" points="644.5,-54 689.5,-54 "/>
<path fill="none" stroke="black" d="M689.5,-54C695.5,-54 701.5,-60 701.5,-66"/>
<polyline fill="none" stroke="black" points="701.5,-66 701.5,-78 "/>
<path fill="none" stroke="black" d="M701.5,-78C701.5,-84 695.5,-90 689.5,-90"/>
<text text-anchor="middle" x="667" y="-68.3" font-family="Times,serif" font-size="14.00">Windows</text>
</g>
<!-- os&#45;&#45;windows -->
<g id="edge32" class="edge"><title>os&#45;&#45;windows</title>
<path fill="none" stroke="black" d="M581.025,-72C596.275,-72 615.709,-72 632.142,-72"/>
</g>
<!-- linux -->
<g id="node28" class="node"><title>linux</title>
<polygon fill="white" stroke="white" points="682,-36 652,-36 640,-24 640,-12 652,-0 682,-0 694,-12 694,-24 682,-36"/>
<path fill="white" stroke="white" d="M652,-36C646,-36 640,-30 640,-24"/>
<path fill="white" stroke="white" d="M640,-12C640,-6 646,-0 652,-0"/>
<path fill="white" stroke="white" d="M682,-0C688,-0 694,-6 694,-12"/>
<path fill="white" stroke="white" d="M694,-24C694,-30 688,-36 682,-36"/>
<polyline fill="none" stroke="black" points="682,-36 652,-36 "/>
<path fill="none" stroke="black" d="M652,-36C646,-36 640,-30 640,-24"/>
<polyline fill="none" stroke="black" points="640,-24 640,-12 "/>
<path fill="none" stroke="black" d="M640,-12C640,-6 646,-0 652,-0"/>
<polyline fill="none" stroke="black" points="652,-0 682,-0 "/>
<path fill="none" stroke="black" d="M682,-0C688,-0 694,-6 694,-12"/>
<polyline fill="none" stroke="black" points="694,-12 694,-24 "/>
<path fill="none" stroke="black" d="M694,-24C694,-30 688,-36 682,-36"/>
<text text-anchor="middle" x="667" y="-14.3" font-family="Times,serif" font-size="14.00">Linux</text>
</g>
<!-- os&#45;&#45;linux -->
<g id="edge33" class="edge"><title>os&#45;&#45;linux</title>
<path fill="none" stroke="black" d="M576.402,-61.5883C594.546,-52.7616 620.627,-40.0734 639.975,-30.6606"/>
</g>
<!-- v7 -->
<g id="node13" class="node"><title>v7</title>
<polygon fill="white" stroke="white" points="234,-211 204,-211 192,-199 192,-187 204,-175 234,-175 246,-187 246,-199 234,-211"/>
<path fill="white" stroke="white" d="M204,-211C198,-211 192,-205 192,-199"/>
<path fill="white" stroke="white" d="M192,-187C192,-181 198,-175 204,-175"/>
<path fill="white" stroke="white" d="M234,-175C240,-175 246,-181 246,-187"/>
<path fill="white" stroke="white" d="M246,-199C246,-205 240,-211 234,-211"/>
<polyline fill="none" stroke="black" points="234,-211 204,-211 "/>
<path fill="none" stroke="black" d="M204,-211C198,-211 192,-205 192,-199"/>
<polyline fill="none" stroke="black" points="192,-199 192,-187 "/>
<path fill="none" stroke="black" d="M192,-187C192,-181 198,-175 204,-175"/>
<polyline fill="none" stroke="black" points="204,-175 234,-175 "/>
<path fill="none" stroke="black" d="M234,-175C240,-175 246,-181 246,-187"/>
<polyline fill="none" stroke="black" points="246,-187 246,-199 "/>
<path fill="none" stroke="black" d="M246,-199C246,-205 240,-211 234,-211"/>
<text text-anchor="middle" x="219" y="-189.3" font-family="Times,serif" font-size="14.00">7.7</text>
</g>
<!-- onesver&#45;&#45;v7 -->
<g id="edge8" class="edge"><title>onesver&#45;&#45;v7</title>
<path fill="none" stroke="black" d="M146.389,-163.639C160.709,-169.511 177.958,-176.583 191.938,-182.315"/>
</g>
<!-- v8 -->
<g id="node16" class="node"><title>v8</title>
<polygon fill="white" stroke="white" points="234,-130 204,-130 192,-118 192,-106 204,-94 234,-94 246,-106 246,-118 234,-130"/>
<path fill="white" stroke="white" d="M204,-130C198,-130 192,-124 192,-118"/>
<path fill="white" stroke="white" d="M192,-106C192,-100 198,-94 204,-94"/>
<path fill="white" stroke="white" d="M234,-94C240,-94 246,-100 246,-106"/>
<path fill="white" stroke="white" d="M246,-118C246,-124 240,-130 234,-130"/>
<polyline fill="none" stroke="black" points="234,-130 204,-130 "/>
<path fill="none" stroke="black" d="M204,-130C198,-130 192,-124 192,-118"/>
<polyline fill="none" stroke="black" points="192,-118 192,-106 "/>
<path fill="none" stroke="black" d="M192,-106C192,-100 198,-94 204,-94"/>
<polyline fill="none" stroke="black" points="204,-94 234,-94 "/>
<path fill="none" stroke="black" d="M234,-94C240,-94 246,-100 246,-106"/>
<polyline fill="none" stroke="black" points="246,-106 246,-118 "/>
<path fill="none" stroke="black" d="M246,-118C246,-124 240,-130 234,-130"/>
<text text-anchor="middle" x="219" y="-108.3" font-family="Times,serif" font-size="14.00">8.x</text>
</g>
<!-- onesver&#45;&#45;v8 -->
<g id="edge9" class="edge"><title>onesver&#45;&#45;v8</title>
<path fill="none" stroke="black" d="M146.656,-140.538C160.854,-134.859 177.878,-128.049 191.735,-122.506"/>
</g>
<!-- v7part -->
<g id="node8" class="node"><title>v7part</title>
<ellipse fill="lightyellow" stroke="black" cx="309" cy="-207" rx="27" ry="18"/>
<text text-anchor="middle" x="309" y="-203.3" font-family="Times,serif" font-size="14.00">Тип</text>
</g>
<!-- v7cfg -->
<g id="node14" class="node"><title>v7cfg</title>
<polygon fill="white" stroke="white" points="463.5,-279 384.5,-279 372.5,-267 372.5,-255 384.5,-243 463.5,-243 475.5,-255 475.5,-267 463.5,-279"/>
<path fill="white" stroke="white" d="M384.5,-279C378.5,-279 372.5,-273 372.5,-267"/>
<path fill="white" stroke="white" d="M372.5,-255C372.5,-249 378.5,-243 384.5,-243"/>
<path fill="white" stroke="white" d="M463.5,-243C469.5,-243 475.5,-249 475.5,-255"/>
<path fill="white" stroke="white" d="M475.5,-267C475.5,-273 469.5,-279 463.5,-279"/>
<polyline fill="none" stroke="black" points="463.5,-279 384.5,-279 "/>
<path fill="none" stroke="black" d="M384.5,-279C378.5,-279 372.5,-273 372.5,-267"/>
<polyline fill="none" stroke="black" points="372.5,-267 372.5,-255 "/>
<path fill="none" stroke="black" d="M372.5,-255C372.5,-249 378.5,-243 384.5,-243"/>
<polyline fill="none" stroke="black" points="384.5,-243 463.5,-243 "/>
<path fill="none" stroke="black" d="M463.5,-243C469.5,-243 475.5,-249 475.5,-255"/>
<polyline fill="none" stroke="black" points="475.5,-255 475.5,-267 "/>
<path fill="none" stroke="black" d="M475.5,-267C475.5,-273 469.5,-279 463.5,-279"/>
<text text-anchor="middle" x="424" y="-257.3" font-family="Times,serif" font-size="14.00">Конфигурация</text>
</g>
<!-- v7part&#45;&#45;v7cfg -->
<g id="edge12" class="edge"><title>v7part&#45;&#45;v7cfg</title>
<path fill="none" stroke="black" d="M331.52,-217.284C346.633,-224.506 367.249,-234.358 385.085,-242.881"/>
</g>
<!-- v7rpt -->
<g id="node15" class="node"><title>v7rpt</title>
<polygon fill="white" stroke="white" points="454.5,-225 393.5,-225 381.5,-213 381.5,-201 393.5,-189 454.5,-189 466.5,-201 466.5,-213 454.5,-225"/>
<path fill="white" stroke="white" d="M393.5,-225C387.5,-225 381.5,-219 381.5,-213"/>
<path fill="white" stroke="white" d="M381.5,-201C381.5,-195 387.5,-189 393.5,-189"/>
<path fill="white" stroke="white" d="M454.5,-189C460.5,-189 466.5,-195 466.5,-201"/>
<path fill="white" stroke="white" d="M466.5,-213C466.5,-219 460.5,-225 454.5,-225"/>
<polyline fill="none" stroke="black" points="454.5,-225 393.5,-225 "/>
<path fill="none" stroke="black" d="M393.5,-225C387.5,-225 381.5,-219 381.5,-213"/>
<polyline fill="none" stroke="black" points="381.5,-213 381.5,-201 "/>
<path fill="none" stroke="black" d="M381.5,-201C381.5,-195 387.5,-189 393.5,-189"/>
<polyline fill="none" stroke="black" points="393.5,-189 454.5,-189 "/>
<path fill="none" stroke="black" d="M454.5,-189C460.5,-189 466.5,-195 466.5,-201"/>
<polyline fill="none" stroke="black" points="466.5,-201 466.5,-213 "/>
<path fill="none" stroke="black" d="M466.5,-213C466.5,-219 460.5,-225 454.5,-225"/>
<text text-anchor="middle" x="424" y="-203.3" font-family="Times,serif" font-size="14.00">Отчетность</text>
</g>
<!-- v7part&#45;&#45;v7rpt -->
<g id="edge13" class="edge"><title>v7part&#45;&#45;v7rpt</title>
<path fill="none" stroke="black" d="M336.208,-207C349.639,-207 366.312,-207 381.444,-207"/>
</g>
<!-- v8part -->
<g id="node9" class="node"><title>v8part</title>
<ellipse fill="lightyellow" stroke="black" cx="309" cy="-99" rx="27" ry="18"/>
<text text-anchor="middle" x="309" y="-95.3" font-family="Times,serif" font-size="14.00">Тип</text>
</g>
<!-- v8platf -->
<g id="node17" class="node"><title>v8platf</title>
<polygon fill="white" stroke="white" points="454,-117 394,-117 382,-105 382,-93 394,-81 454,-81 466,-93 466,-105 454,-117"/>
<path fill="white" stroke="white" d="M394,-117C388,-117 382,-111 382,-105"/>
<path fill="white" stroke="white" d="M382,-93C382,-87 388,-81 394,-81"/>
<path fill="white" stroke="white" d="M454,-81C460,-81 466,-87 466,-93"/>
<path fill="white" stroke="white" d="M466,-105C466,-111 460,-117 454,-117"/>
<polyline fill="none" stroke="black" points="454,-117 394,-117 "/>
<path fill="none" stroke="black" d="M394,-117C388,-117 382,-111 382,-105"/>
<polyline fill="none" stroke="black" points="382,-105 382,-93 "/>
<path fill="none" stroke="black" d="M382,-93C382,-87 388,-81 394,-81"/>
<polyline fill="none" stroke="black" points="394,-81 454,-81 "/>
<path fill="none" stroke="black" d="M454,-81C460,-81 466,-87 466,-93"/>
<polyline fill="none" stroke="black" points="466,-93 466,-105 "/>
<path fill="none" stroke="black" d="M466,-105C466,-111 460,-117 454,-117"/>
<text text-anchor="middle" x="424" y="-95.3" font-family="Times,serif" font-size="14.00">Платформа</text>
</g>
<!-- v8part&#45;&#45;v8platf -->
<g id="edge16" class="edge"><title>v8part&#45;&#45;v8platf</title>
<path fill="none" stroke="black" d="M336.208,-99C349.77,-99 366.636,-99 381.885,-99"/>
</g>
<!-- v8cfg -->
<g id="node18" class="node"><title>v8cfg</title>
<polygon fill="white" stroke="white" points="463.5,-63 384.5,-63 372.5,-51 372.5,-39 384.5,-27 463.5,-27 475.5,-39 475.5,-51 463.5,-63"/>
<path fill="white" stroke="white" d="M384.5,-63C378.5,-63 372.5,-57 372.5,-51"/>
<path fill="white" stroke="white" d="M372.5,-39C372.5,-33 378.5,-27 384.5,-27"/>
<path fill="white" stroke="white" d="M463.5,-27C469.5,-27 475.5,-33 475.5,-39"/>
<path fill="white" stroke="white" d="M475.5,-51C475.5,-57 469.5,-63 463.5,-63"/>
<polyline fill="none" stroke="black" points="463.5,-63 384.5,-63 "/>
<path fill="none" stroke="black" d="M384.5,-63C378.5,-63 372.5,-57 372.5,-51"/>
<polyline fill="none" stroke="black" points="372.5,-51 372.5,-39 "/>
<path fill="none" stroke="black" d="M372.5,-39C372.5,-33 378.5,-27 384.5,-27"/>
<polyline fill="none" stroke="black" points="384.5,-27 463.5,-27 "/>
<path fill="none" stroke="black" d="M463.5,-27C469.5,-27 475.5,-33 475.5,-39"/>
<polyline fill="none" stroke="black" points="475.5,-39 475.5,-51 "/>
<path fill="none" stroke="black" d="M475.5,-51C475.5,-57 469.5,-63 463.5,-63"/>
<text text-anchor="middle" x="424" y="-41.3" font-family="Times,serif" font-size="14.00">Конфигурация</text>
</g>
<!-- v8part&#45;&#45;v8cfg -->
<g id="edge17" class="edge"><title>v8part&#45;&#45;v8cfg</title>
<path fill="none" stroke="black" d="M331.52,-88.7159C346.633,-81.4941 367.249,-71.6419 385.085,-63.1185"/>
</g>
<!-- year -->
<g id="node10" class="node"><title>year</title>
<ellipse fill="lightyellow" stroke="black" cx="554" cy="-396" rx="27" ry="18"/>
<text text-anchor="middle" x="554" y="-392.3" font-family="Times,serif" font-size="14.00">Год</text>
</g>
<!-- year2010 -->
<g id="node19" class="node"><title>year2010</title>
<polygon fill="white" stroke="white" points="682,-522 652,-522 640,-510 640,-498 652,-486 682,-486 694,-498 694,-510 682,-522"/>
<path fill="white" stroke="white" d="M652,-522C646,-522 640,-516 640,-510"/>
<path fill="white" stroke="white" d="M640,-498C640,-492 646,-486 652,-486"/>
<path fill="white" stroke="white" d="M682,-486C688,-486 694,-492 694,-498"/>
<path fill="white" stroke="white" d="M694,-510C694,-516 688,-522 682,-522"/>
<polyline fill="none" stroke="black" points="682,-522 652,-522 "/>
<path fill="none" stroke="black" d="M652,-522C646,-522 640,-516 640,-510"/>
<polyline fill="none" stroke="black" points="640,-510 640,-498 "/>
<path fill="none" stroke="black" d="M640,-498C640,-492 646,-486 652,-486"/>
<polyline fill="none" stroke="black" points="652,-486 682,-486 "/>
<path fill="none" stroke="black" d="M682,-486C688,-486 694,-492 694,-498"/>
<polyline fill="none" stroke="black" points="694,-498 694,-510 "/>
<path fill="none" stroke="black" d="M694,-510C694,-516 688,-522 682,-522"/>
<text text-anchor="middle" x="667" y="-500.3" font-family="Times,serif" font-size="14.00">2010</text>
</g>
<!-- year&#45;&#45;year2010 -->
<g id="edge20" class="edge"><title>year&#45;&#45;year2010</title>
<path fill="none" stroke="black" d="M568.589,-411.543C583.524,-428.32 608.522,-455.522 632,-477 635.226,-479.951 638.735,-482.951 642.234,-485.825"/>
</g>
<!-- year2011 -->
<g id="node20" class="node"><title>year2011</title>
<polygon fill="white" stroke="white" points="682,-468 652,-468 640,-456 640,-444 652,-432 682,-432 694,-444 694,-456 682,-468"/>
<path fill="white" stroke="white" d="M652,-468C646,-468 640,-462 640,-456"/>
<path fill="white" stroke="white" d="M640,-444C640,-438 646,-432 652,-432"/>
<path fill="white" stroke="white" d="M682,-432C688,-432 694,-438 694,-444"/>
<path fill="white" stroke="white" d="M694,-456C694,-462 688,-468 682,-468"/>
<polyline fill="none" stroke="black" points="682,-468 652,-468 "/>
<path fill="none" stroke="black" d="M652,-468C646,-468 640,-462 640,-456"/>
<polyline fill="none" stroke="black" points="640,-456 640,-444 "/>
<path fill="none" stroke="black" d="M640,-444C640,-438 646,-432 652,-432"/>
<polyline fill="none" stroke="black" points="652,-432 682,-432 "/>
<path fill="none" stroke="black" d="M682,-432C688,-432 694,-438 694,-444"/>
<polyline fill="none" stroke="black" points="694,-444 694,-456 "/>
<path fill="none" stroke="black" d="M694,-456C694,-462 688,-468 682,-468"/>
<text text-anchor="middle" x="667" y="-446.3" font-family="Times,serif" font-size="14.00">2011</text>
</g>
<!-- year&#45;&#45;year2011 -->
<g id="edge21" class="edge"><title>year&#45;&#45;year2011</title>
<path fill="none" stroke="black" d="M576.402,-406.412C594.546,-415.238 620.627,-427.927 639.975,-437.339"/>
</g>
<!-- year2012 -->
<g id="node21" class="node"><title>year2012</title>
<polygon fill="white" stroke="white" points="682,-414 652,-414 640,-402 640,-390 652,-378 682,-378 694,-390 694,-402 682,-414"/>
<path fill="white" stroke="white" d="M652,-414C646,-414 640,-408 640,-402"/>
<path fill="white" stroke="white" d="M640,-390C640,-384 646,-378 652,-378"/>
<path fill="white" stroke="white" d="M682,-378C688,-378 694,-384 694,-390"/>
<path fill="white" stroke="white" d="M694,-402C694,-408 688,-414 682,-414"/>
<polyline fill="none" stroke="black" points="682,-414 652,-414 "/>
<path fill="none" stroke="black" d="M652,-414C646,-414 640,-408 640,-402"/>
<polyline fill="none" stroke="black" points="640,-402 640,-390 "/>
<path fill="none" stroke="black" d="M640,-390C640,-384 646,-378 652,-378"/>
<polyline fill="none" stroke="black" points="652,-378 682,-378 "/>
<path fill="none" stroke="black" d="M682,-378C688,-378 694,-384 694,-390"/>
<polyline fill="none" stroke="black" points="694,-390 694,-402 "/>
<path fill="none" stroke="black" d="M694,-402C694,-408 688,-414 682,-414"/>
<text text-anchor="middle" x="667" y="-392.3" font-family="Times,serif" font-size="14.00">2012</text>
</g>
<!-- year&#45;&#45;year2012 -->
<g id="edge22" class="edge"><title>year&#45;&#45;year2012</title>
<path fill="none" stroke="black" d="M581.025,-396C598.71,-396 622.021,-396 639.754,-396"/>
</g>
<!-- year2013 -->
<g id="node22" class="node"><title>year2013</title>
<polygon fill="white" stroke="white" points="682,-360 652,-360 640,-348 640,-336 652,-324 682,-324 694,-336 694,-348 682,-360"/>
<path fill="white" stroke="white" d="M652,-360C646,-360 640,-354 640,-348"/>
<path fill="white" stroke="white" d="M640,-336C640,-330 646,-324 652,-324"/>
<path fill="white" stroke="white" d="M682,-324C688,-324 694,-330 694,-336"/>
<path fill="white" stroke="white" d="M694,-348C694,-354 688,-360 682,-360"/>
<polyline fill="none" stroke="black" points="682,-360 652,-360 "/>
<path fill="none" stroke="black" d="M652,-360C646,-360 640,-354 640,-348"/>
<polyline fill="none" stroke="black" points="640,-348 640,-336 "/>
<path fill="none" stroke="black" d="M640,-336C640,-330 646,-324 652,-324"/>
<polyline fill="none" stroke="black" points="652,-324 682,-324 "/>
<path fill="none" stroke="black" d="M682,-324C688,-324 694,-330 694,-336"/>
<polyline fill="none" stroke="black" points="694,-336 694,-348 "/>
<path fill="none" stroke="black" d="M694,-348C694,-354 688,-360 682,-360"/>
<text text-anchor="middle" x="667" y="-338.3" font-family="Times,serif" font-size="14.00">2013</text>
</g>
<!-- year&#45;&#45;year2013 -->
<g id="edge23" class="edge"><title>year&#45;&#45;year2013</title>
<path fill="none" stroke="black" d="M576.402,-385.588C594.546,-376.762 620.627,-364.073 639.975,-354.661"/>
</g>
<!-- quarter -->
<g id="node11" class="node"><title>quarter</title>
<ellipse fill="lightyellow" stroke="black" cx="554" cy="-207" rx="42.4939" ry="18"/>
<text text-anchor="middle" x="554" y="-203.3" font-family="Times,serif" font-size="14.00">Квартал</text>
</g>
<!-- quarter1 -->
<g id="node23" class="node"><title>quarter1</title>
<polygon fill="white" stroke="white" points="682,-306 652,-306 640,-294 640,-282 652,-270 682,-270 694,-282 694,-294 682,-306"/>
<path fill="white" stroke="white" d="M652,-306C646,-306 640,-300 640,-294"/>
<path fill="white" stroke="white" d="M640,-282C640,-276 646,-270 652,-270"/>
<path fill="white" stroke="white" d="M682,-270C688,-270 694,-276 694,-282"/>
<path fill="white" stroke="white" d="M694,-294C694,-300 688,-306 682,-306"/>
<polyline fill="none" stroke="black" points="682,-306 652,-306 "/>
<path fill="none" stroke="black" d="M652,-306C646,-306 640,-300 640,-294"/>
<polyline fill="none" stroke="black" points="640,-294 640,-282 "/>
<path fill="none" stroke="black" d="M640,-282C640,-276 646,-270 652,-270"/>
<polyline fill="none" stroke="black" points="652,-270 682,-270 "/>
<path fill="none" stroke="black" d="M682,-270C688,-270 694,-276 694,-282"/>
<polyline fill="none" stroke="black" points="694,-282 694,-294 "/>
<path fill="none" stroke="black" d="M694,-294C694,-300 688,-306 682,-306"/>
<text text-anchor="middle" x="667" y="-284.3" font-family="Times,serif" font-size="14.00">1</text>
</g>
<!-- quarter&#45;&#45;quarter1 -->
<g id="edge26" class="edge"><title>quarter&#45;&#45;quarter1</title>
<path fill="none" stroke="black" d="M576.14,-222.426C594.633,-235.921 621.517,-255.539 641.058,-269.799"/>
</g>
<!-- quarter2 -->
<g id="node24" class="node"><title>quarter2</title>
<polygon fill="white" stroke="white" points="682,-252 652,-252 640,-240 640,-228 652,-216 682,-216 694,-228 694,-240 682,-252"/>
<path fill="white" stroke="white" d="M652,-252C646,-252 640,-246 640,-240"/>
<path fill="white" stroke="white" d="M640,-228C640,-222 646,-216 652,-216"/>
<path fill="white" stroke="white" d="M682,-216C688,-216 694,-222 694,-228"/>
<path fill="white" stroke="white" d="M694,-240C694,-246 688,-252 682,-252"/>
<polyline fill="none" stroke="black" points="682,-252 652,-252 "/>
<path fill="none" stroke="black" d="M652,-252C646,-252 640,-246 640,-240"/>
<polyline fill="none" stroke="black" points="640,-240 640,-228 "/>
<path fill="none" stroke="black" d="M640,-228C640,-222 646,-216 652,-216"/>
<polyline fill="none" stroke="black" points="652,-216 682,-216 "/>
<path fill="none" stroke="black" d="M682,-216C688,-216 694,-222 694,-228"/>
<polyline fill="none" stroke="black" points="694,-228 694,-240 "/>
<path fill="none" stroke="black" d="M694,-240C694,-246 688,-252 682,-252"/>
<text text-anchor="middle" x="667" y="-230.3" font-family="Times,serif" font-size="14.00">2</text>
</g>
<!-- quarter&#45;&#45;quarter2 -->
<g id="edge27" class="edge"><title>quarter&#45;&#45;quarter2</title>
<path fill="none" stroke="black" d="M591.039,-215.766C606.991,-219.646 625.4,-224.124 639.982,-227.671"/>
</g>
<!-- quarter3 -->
<g id="node25" class="node"><title>quarter3</title>
<polygon fill="white" stroke="white" points="682,-198 652,-198 640,-186 640,-174 652,-162 682,-162 694,-174 694,-186 682,-198"/>
<path fill="white" stroke="white" d="M652,-198C646,-198 640,-192 640,-186"/>
<path fill="white" stroke="white" d="M640,-174C640,-168 646,-162 652,-162"/>
<path fill="white" stroke="white" d="M682,-162C688,-162 694,-168 694,-174"/>
<path fill="white" stroke="white" d="M694,-186C694,-192 688,-198 682,-198"/>
<polyline fill="none" stroke="black" points="682,-198 652,-198 "/>
<path fill="none" stroke="black" d="M652,-198C646,-198 640,-192 640,-186"/>
<polyline fill="none" stroke="black" points="640,-186 640,-174 "/>
<path fill="none" stroke="black" d="M640,-174C640,-168 646,-162 652,-162"/>
<polyline fill="none" stroke="black" points="652,-162 682,-162 "/>
<path fill="none" stroke="black" d="M682,-162C688,-162 694,-168 694,-174"/>
<polyline fill="none" stroke="black" points="694,-174 694,-186 "/>
<path fill="none" stroke="black" d="M694,-186C694,-192 688,-198 682,-198"/>
<text text-anchor="middle" x="667" y="-176.3" font-family="Times,serif" font-size="14.00">3</text>
</g>
<!-- quarter&#45;&#45;quarter3 -->
<g id="edge28" class="edge"><title>quarter&#45;&#45;quarter3</title>
<path fill="none" stroke="black" d="M591.039,-198.234C606.991,-194.354 625.4,-189.876 639.982,-186.329"/>
</g>
<!-- quarter4 -->
<g id="node26" class="node"><title>quarter4</title>
<polygon fill="white" stroke="white" points="682,-144 652,-144 640,-132 640,-120 652,-108 682,-108 694,-120 694,-132 682,-144"/>
<path fill="white" stroke="white" d="M652,-144C646,-144 640,-138 640,-132"/>
<path fill="white" stroke="white" d="M640,-120C640,-114 646,-108 652,-108"/>
<path fill="white" stroke="white" d="M682,-108C688,-108 694,-114 694,-120"/>
<path fill="white" stroke="white" d="M694,-132C694,-138 688,-144 682,-144"/>
<polyline fill="none" stroke="black" points="682,-144 652,-144 "/>
<path fill="none" stroke="black" d="M652,-144C646,-144 640,-138 640,-132"/>
<polyline fill="none" stroke="black" points="640,-132 640,-120 "/>
<path fill="none" stroke="black" d="M640,-120C640,-114 646,-108 652,-108"/>
<polyline fill="none" stroke="black" points="652,-108 682,-108 "/>
<path fill="none" stroke="black" d="M682,-108C688,-108 694,-114 694,-120"/>
<polyline fill="none" stroke="black" points="694,-120 694,-132 "/>
<path fill="none" stroke="black" d="M694,-132C694,-138 688,-144 682,-144"/>
<text text-anchor="middle" x="667" y="-122.3" font-family="Times,serif" font-size="14.00">4</text>
</g>
<!-- quarter&#45;&#45;quarter4 -->
<g id="edge29" class="edge"><title>quarter&#45;&#45;quarter4</title>
<path fill="none" stroke="black" d="M576.14,-191.574C594.633,-178.079 621.517,-158.461 641.058,-144.201"/>
</g>
<!-- v7&#45;&#45;v7part -->
<g id="edge40" class="edge"><title>v7&#45;&#45;v7part</title>
<path fill="none" stroke="black" stroke-dasharray="5,2" d="M246.403,-197.2C257.845,-199.021 271.187,-201.143 282.523,-202.947"/>
</g>
<!-- v7rpt&#45;&#45;year -->
<g id="edge46" class="edge"><title>v7rpt&#45;&#45;year</title>
<path fill="none" stroke="black" stroke-dasharray="5,2" d="M465.471,-225.155C469.284,-227.798 472.882,-230.744 476,-234 517.139,-276.956 539.753,-345.992 548.585,-378.28"/>
</g>
<!-- v7rpt&#45;&#45;quarter -->
<g id="edge47" class="edge"><title>v7rpt&#45;&#45;quarter</title>
<path fill="none" stroke="black" stroke-dasharray="5,2" d="M466.558,-207C481.012,-207 497.214,-207 511.651,-207"/>
</g>
<!-- v8&#45;&#45;v8part -->
<g id="edge43" class="edge"><title>v8&#45;&#45;v8part</title>
<path fill="none" stroke="black" stroke-dasharray="5,2" d="M246.403,-108.1C257.845,-106.409 271.187,-104.438 282.523,-102.764"/>
</g>
<!-- v8platf&#45;&#45;os -->
<g id="edge49" class="edge"><title>v8platf&#45;&#45;os</title>
<path fill="none" stroke="black" stroke-dasharray="5,2" d="M466.205,-90.3084C486.522,-86.0228 510.364,-80.9935 527.914,-77.2916"/>
</g>
</g>
</svg>
