<?xml version="1.0" encoding="UTF-8" standalone="no"?>
<!DOCTYPE svg PUBLIC "-//W3C//DTD SVG 1.1//EN"
 "http://www.w3.org/Graphics/SVG/1.1/DTD/svg11.dtd">
<!-- Generated by graphviz version 2.28.0 (20130109.1153)
 -->
<!-- Title: WorkFlow Pages: 1 -->
<svg width="458pt" height="138pt"
 viewBox="0.00 0.00 458.00 138.00" xmlns="http://www.w3.org/2000/svg" xmlns:xlink="http://www.w3.org/1999/xlink">
<g id="graph1" class="graph" transform="scale(1 1) rotate(0) translate(4 134)">
<title>WorkFlow</title>
<polygon fill="white" stroke="white" points="-4,5 -4,-134 455,-134 455,5 -4,5"/>
<!-- ones -->
<g id="node1" class="node"><title>ones</title>
<polygon fill="#f0f0f0" stroke="#f0f0f0" points="42.6667,-56.5 31.3333,-56.5 25,-50.1667 25,-43.8333 31.3333,-37.5 42.6667,-37.5 49,-43.8333 49,-50.1667 42.6667,-56.5"/>
<path fill="#f0f0f0" stroke="#f0f0f0" d="M31.3333,-56.5C28.1667,-56.5 25,-53.3333 25,-50.1667"/>
<path fill="#f0f0f0" stroke="#f0f0f0" d="M25,-43.8333C25,-40.6667 28.1667,-37.5 31.3333,-37.5"/>
<path fill="#f0f0f0" stroke="#f0f0f0" d="M42.6667,-37.5C45.8333,-37.5 49,-40.6667 49,-43.8333"/>
<path fill="#f0f0f0" stroke="#f0f0f0" d="M49,-50.1667C49,-53.3333 45.8333,-56.5 42.6667,-56.5"/>
<polyline fill="none" stroke="black" points="42.6667,-56.5 31.3333,-56.5 "/>
<path fill="none" stroke="black" d="M31.3333,-56.5C28.1667,-56.5 25,-53.3333 25,-50.1667"/>
<polyline fill="none" stroke="black" points="25,-50.1667 25,-43.8333 "/>
<path fill="none" stroke="black" d="M25,-43.8333C25,-40.6667 28.1667,-37.5 31.3333,-37.5"/>
<polyline fill="none" stroke="black" points="31.3333,-37.5 42.6667,-37.5 "/>
<path fill="none" stroke="black" d="M42.6667,-37.5C45.8333,-37.5 49,-40.6667 49,-43.8333"/>
<polyline fill="none" stroke="black" points="49,-43.8333 49,-50.1667 "/>
<path fill="none" stroke="black" d="M49,-50.1667C49,-53.3333 45.8333,-56.5 42.6667,-56.5"/>
<text text-anchor="middle" x="37" y="-43.3" font-family="Times,serif" font-size="14.00">1C</text>
</g>
<!-- impex -->
<g id="node2" class="node"><title>impex</title>
<polygon fill="#f0f0f0" stroke="#f0f0f0" points="265.667,-75.5 172.333,-75.5 166,-69.1667 166,-62.8333 172.333,-56.5 265.667,-56.5 272,-62.8333 272,-69.1667 265.667,-75.5"/>
<path fill="#f0f0f0" stroke="#f0f0f0" d="M172.333,-75.5C169.167,-75.5 166,-72.3333 166,-69.1667"/>
<path fill="#f0f0f0" stroke="#f0f0f0" d="M166,-62.8333C166,-59.6667 169.167,-56.5 172.333,-56.5"/>
<path fill="#f0f0f0" stroke="#f0f0f0" d="M265.667,-56.5C268.833,-56.5 272,-59.6667 272,-62.8333"/>
<path fill="#f0f0f0" stroke="#f0f0f0" d="M272,-69.1667C272,-72.3333 268.833,-75.5 265.667,-75.5"/>
<polyline fill="none" stroke="black" points="265.667,-75.5 172.333,-75.5 "/>
<path fill="none" stroke="black" d="M172.333,-75.5C169.167,-75.5 166,-72.3333 166,-69.1667"/>
<polyline fill="none" stroke="black" points="166,-69.1667 166,-62.8333 "/>
<path fill="none" stroke="black" d="M166,-62.8333C166,-59.6667 169.167,-56.5 172.333,-56.5"/>
<polyline fill="none" stroke="black" points="172.333,-56.5 265.667,-56.5 "/>
<path fill="none" stroke="black" d="M265.667,-56.5C268.833,-56.5 272,-59.6667 272,-62.8333"/>
<polyline fill="none" stroke="black" points="272,-62.8333 272,-69.1667 "/>
<path fill="none" stroke="black" d="M272,-69.1667C272,-72.3333 268.833,-75.5 265.667,-75.5"/>
<text text-anchor="middle" x="219" y="-62.3" font-family="Times,serif" font-size="14.00">\master...impex...</text>
</g>
<!-- ones&#45;&gt;impex -->
<g id="edge2" class="edge"><title>ones&#45;&gt;impex</title>
<path fill="none" stroke="black" d="M49.3842,-51.3325C60.1756,-55.2079 76.9316,-60.6311 92,-63 112.618,-66.2413 135.364,-67.4837 155.79,-67.7668"/>
<polygon fill="black" stroke="black" points="155.9,-71.2675 165.923,-67.8331 155.946,-64.2676 155.9,-71.2675"/>
<text text-anchor="middle" x="120" y="-70.8" font-family="Times,serif" font-size="14.00">платежка</text>
</g>
<!-- sbis -->
<g id="node4" class="node"><title>sbis</title>
<polygon fill="#f0f0f0" stroke="#f0f0f0" points="234.167,-18.5 203.833,-18.5 197.5,-12.1667 197.5,-5.83333 203.833,0.5 234.167,0.5 240.5,-5.83333 240.5,-12.1667 234.167,-18.5"/>
<path fill="#f0f0f0" stroke="#f0f0f0" d="M203.833,-18.5C200.667,-18.5 197.5,-15.3333 197.5,-12.1667"/>
<path fill="#f0f0f0" stroke="#f0f0f0" d="M197.5,-5.83333C197.5,-2.66667 200.667,0.5 203.833,0.5"/>
<path fill="#f0f0f0" stroke="#f0f0f0" d="M234.167,0.5C237.333,0.5 240.5,-2.66667 240.5,-5.83333"/>
<path fill="#f0f0f0" stroke="#f0f0f0" d="M240.5,-12.1667C240.5,-15.3333 237.333,-18.5 234.167,-18.5"/>
<polyline fill="none" stroke="black" points="234.167,-18.5 203.833,-18.5 "/>
<path fill="none" stroke="black" d="M203.833,-18.5C200.667,-18.5 197.5,-15.3333 197.5,-12.1667"/>
<polyline fill="none" stroke="black" points="197.5,-12.1667 197.5,-5.83333 "/>
<path fill="none" stroke="black" d="M197.5,-5.83333C197.5,-2.66667 200.667,0.5 203.833,0.5"/>
<polyline fill="none" stroke="black" points="203.833,0.5 234.167,0.5 "/>
<path fill="none" stroke="black" d="M234.167,0.5C237.333,0.5 240.5,-2.66667 240.5,-5.83333"/>
<polyline fill="none" stroke="black" points="240.5,-5.83333 240.5,-12.1667 "/>
<path fill="none" stroke="black" d="M240.5,-12.1667C240.5,-15.3333 237.333,-18.5 234.167,-18.5"/>
<text text-anchor="middle" x="219" y="-5.3" font-family="Times,serif" font-size="14.00">СБиС</text>
</g>
<!-- ones&#45;&gt;sbis -->
<g id="edge10" class="edge"><title>ones&#45;&gt;sbis</title>
<path fill="none" stroke="black" d="M49.2104,-40.7895C59.879,-35.1801 76.5519,-27.1831 92,-23 123.601,-14.4429 161.019,-11.1034 186.825,-9.80708"/>
<polygon fill="black" stroke="black" points="187.281,-13.2909 197.122,-9.36737 186.982,-6.29726 187.281,-13.2909"/>
<text text-anchor="middle" x="120" y="-26.8" font-family="Times,serif" font-size="14.00">хрень</text>
</g>
<!-- impex&#45;&gt;ones -->
<g id="edge8" class="edge"><title>impex&#45;&gt;ones</title>
<path fill="none" stroke="black" d="M194.771,-56.7403C181.344,-51.8873 163.991,-46.4537 148,-44 123.399,-40.2252 116.879,-43.3094 92,-44 81.2253,-44.2991 69.2553,-44.9332 59.3287,-45.5417"/>
<polygon fill="black" stroke="black" points="58.9154,-42.061 49.162,-46.1986 59.3669,-49.0464 58.9154,-42.061"/>
<text text-anchor="middle" x="120" y="-47.8" font-family="Times,serif" font-size="14.00">выписка</text>
</g>
<!-- kb -->
<g id="node3" class="node"><title>kb</title>
<polygon fill="#f0f0f0" stroke="#f0f0f0" points="443.167,-75.5 370.833,-75.5 364.5,-69.1667 364.5,-62.8333 370.833,-56.5 443.167,-56.5 449.5,-62.8333 449.5,-69.1667 443.167,-75.5"/>
<path fill="#f0f0f0" stroke="#f0f0f0" d="M370.833,-75.5C367.667,-75.5 364.5,-72.3333 364.5,-69.1667"/>
<path fill="#f0f0f0" stroke="#f0f0f0" d="M364.5,-62.8333C364.5,-59.6667 367.667,-56.5 370.833,-56.5"/>
<path fill="#f0f0f0" stroke="#f0f0f0" d="M443.167,-56.5C446.333,-56.5 449.5,-59.6667 449.5,-62.8333"/>
<path fill="#f0f0f0" stroke="#f0f0f0" d="M449.5,-69.1667C449.5,-72.3333 446.333,-75.5 443.167,-75.5"/>
<polyline fill="none" stroke="black" points="443.167,-75.5 370.833,-75.5 "/>
<path fill="none" stroke="black" d="M370.833,-75.5C367.667,-75.5 364.5,-72.3333 364.5,-69.1667"/>
<polyline fill="none" stroke="black" points="364.5,-69.1667 364.5,-62.8333 "/>
<path fill="none" stroke="black" d="M364.5,-62.8333C364.5,-59.6667 367.667,-56.5 370.833,-56.5"/>
<polyline fill="none" stroke="black" points="370.833,-56.5 443.167,-56.5 "/>
<path fill="none" stroke="black" d="M443.167,-56.5C446.333,-56.5 449.5,-59.6667 449.5,-62.8333"/>
<polyline fill="none" stroke="black" points="449.5,-62.8333 449.5,-69.1667 "/>
<path fill="none" stroke="black" d="M449.5,-69.1667C449.5,-72.3333 446.333,-75.5 443.167,-75.5"/>
<text text-anchor="middle" x="407" y="-62.3" font-family="Times,serif" font-size="14.00">Клиент&#45;Банк</text>
</g>
<!-- impex&#45;&gt;kb -->
<g id="edge4" class="edge"><title>impex&#45;&gt;kb</title>
<path fill="none" stroke="black" d="M272.306,-66C297.899,-66 328.613,-66 354.145,-66"/>
<polygon fill="black" stroke="black" points="354.377,-69.5001 364.376,-66 354.376,-62.5001 354.377,-69.5001"/>
<text text-anchor="middle" x="318" y="-69.8" font-family="Times,serif" font-size="14.00">платежка</text>
</g>
<!-- kb&#45;&gt;impex -->
<g id="edge6" class="edge"><title>kb&#45;&gt;impex</title>
<path fill="none" stroke="black" d="M382.46,-56.7037C371.555,-52.8784 358.31,-48.9025 346,-47 321.403,-43.1985 314.671,-43.7113 290,-47 279.217,-48.4374 267.74,-51.0685 257.265,-53.9238"/>
<polygon fill="black" stroke="black" points="256.233,-50.5785 247.585,-56.6985 258.162,-57.3075 256.233,-50.5785"/>
<text text-anchor="middle" x="318" y="-50.8" font-family="Times,serif" font-size="14.00">выписка</text>
</g>
<!-- cxml -->
<g id="node5" class="node"><title>cxml</title>
<polygon fill="#f0f0f0" stroke="#f0f0f0" points="67.6667,-93.5 6.33333,-93.5 0,-87.1667 0,-80.8333 6.33333,-74.5 67.6667,-74.5 74,-80.8333 74,-87.1667 67.6667,-93.5"/>
<path fill="#f0f0f0" stroke="#f0f0f0" d="M6.33333,-93.5C3.16667,-93.5 0,-90.3333 0,-87.1667"/>
<path fill="#f0f0f0" stroke="#f0f0f0" d="M0,-80.8333C0,-77.6667 3.16667,-74.5 6.33333,-74.5"/>
<path fill="#f0f0f0" stroke="#f0f0f0" d="M67.6667,-74.5C70.8333,-74.5 74,-77.6667 74,-80.8333"/>
<path fill="#f0f0f0" stroke="#f0f0f0" d="M74,-87.1667C74,-90.3333 70.8333,-93.5 67.6667,-93.5"/>
<polyline fill="none" stroke="black" points="67.6667,-93.5 6.33333,-93.5 "/>
<path fill="none" stroke="black" d="M6.33333,-93.5C3.16667,-93.5 0,-90.3333 0,-87.1667"/>
<polyline fill="none" stroke="black" points="0,-87.1667 0,-80.8333 "/>
<path fill="none" stroke="black" d="M0,-80.8333C0,-77.6667 3.16667,-74.5 6.33333,-74.5"/>
<polyline fill="none" stroke="black" points="6.33333,-74.5 67.6667,-74.5 "/>
<path fill="none" stroke="black" d="M67.6667,-74.5C70.8333,-74.5 74,-77.6667 74,-80.8333"/>
<polyline fill="none" stroke="black" points="74,-80.8333 74,-87.1667 "/>
<path fill="none" stroke="black" d="M74,-87.1667C74,-90.3333 70.8333,-93.5 67.6667,-93.5"/>
<text text-anchor="middle" x="37" y="-80.3" font-family="Times,serif" font-size="14.00">CheckXML</text>
</g>
<!-- email -->
<g id="node6" class="node"><title>email</title>
<polygon fill="#f0f0f0" stroke="#f0f0f0" points="58.1667,-130.5 15.8333,-130.5 9.5,-124.167 9.5,-117.833 15.8333,-111.5 58.1667,-111.5 64.5,-117.833 64.5,-124.167 58.1667,-130.5"/>
<path fill="#f0f0f0" stroke="#f0f0f0" d="M15.8333,-130.5C12.6667,-130.5 9.5,-127.333 9.5,-124.167"/>
<path fill="#f0f0f0" stroke="#f0f0f0" d="M9.5,-117.833C9.5,-114.667 12.6667,-111.5 15.8333,-111.5"/>
<path fill="#f0f0f0" stroke="#f0f0f0" d="M58.1667,-111.5C61.3333,-111.5 64.5,-114.667 64.5,-117.833"/>
<path fill="#f0f0f0" stroke="#f0f0f0" d="M64.5,-124.167C64.5,-127.333 61.3333,-130.5 58.1667,-130.5"/>
<polyline fill="none" stroke="black" points="58.1667,-130.5 15.8333,-130.5 "/>
<path fill="none" stroke="black" d="M15.8333,-130.5C12.6667,-130.5 9.5,-127.333 9.5,-124.167"/>
<polyline fill="none" stroke="black" points="9.5,-124.167 9.5,-117.833 "/>
<path fill="none" stroke="black" d="M9.5,-117.833C9.5,-114.667 12.6667,-111.5 15.8333,-111.5"/>
<polyline fill="none" stroke="black" points="15.8333,-111.5 58.1667,-111.5 "/>
<path fill="none" stroke="black" d="M58.1667,-111.5C61.3333,-111.5 64.5,-114.667 64.5,-117.833"/>
<polyline fill="none" stroke="black" points="64.5,-117.833 64.5,-124.167 "/>
<path fill="none" stroke="black" d="M64.5,-124.167C64.5,-127.333 61.3333,-130.5 58.1667,-130.5"/>
<text text-anchor="middle" x="37" y="-117.3" font-family="Times,serif" font-size="14.00">E&#45;почта</text>
</g>
</g>
</svg>
