<?xml version="1.0" encoding="UTF-8" standalone="no"?>
<!DOCTYPE svg PUBLIC "-//W3C//DTD SVG 1.1//EN"
 "http://www.w3.org/Graphics/SVG/1.1/DTD/svg11.dtd">
<!-- Generated by graphviz version 2.28.0 (20120228.1926)
 -->
<!-- Title: DasArchive Pages: 1 -->
<svg width="722pt" height="679pt"
 viewBox="0.00 0.00 722.00 679.00" xmlns="http://www.w3.org/2000/svg" xmlns:xlink="http://www.w3.org/1999/xlink">
<g id="graph1" class="graph" transform="scale(1 1) rotate(0) translate(4 675)">
<title>DasArchive</title>
<polygon fill="white" stroke="white" points="-4,5 -4,-675 719,-675 719,5 -4,5"/>
<!-- n0 -->
<g id="node2" class="node"><title>n0</title>
<ellipse fill="grey" stroke="black" cx="42" cy="-99" rx="20.5982" ry="20.5982"/>
<text text-anchor="middle" x="42" y="-95.3" font-family="Times,serif" font-size="14.00">1C</text>
</g>
<!-- ftype -->
<g id="node32" class="node"><title>ftype</title>
<ellipse fill="none" stroke="black" cx="155" cy="-99" rx="28.6953" ry="18"/>
<text text-anchor="middle" x="155" y="-95.3" font-family="Times,serif" font-size="14.00">ftype</text>
</g>
<!-- n0&#45;&#45;ftype -->
<g id="edge8" class="edge"><title>n0&#45;&#45;ftype</title>
<path fill="none" stroke="black" d="M62.8446,-99C80.4297,-99 106.297,-99 125.988,-99"/>
</g>
<!-- os -->
<g id="node5" class="node"><title>os</title>
<ellipse fill="lightgreen" stroke="black" cx="42" cy="-181" rx="27" ry="18"/>
<text text-anchor="middle" x="42" y="-177.3" font-family="Times,serif" font-size="14.00">ОС</text>
</g>
<!-- windows -->
<g id="node28" class="node"><title>windows</title>
<polygon fill="white" stroke="white" points="177.5,-239 132.5,-239 120.5,-227 120.5,-215 132.5,-203 177.5,-203 189.5,-215 189.5,-227 177.5,-239"/>
<path fill="white" stroke="white" d="M132.5,-239C126.5,-239 120.5,-233 120.5,-227"/>
<path fill="white" stroke="white" d="M120.5,-215C120.5,-209 126.5,-203 132.5,-203"/>
<path fill="white" stroke="white" d="M177.5,-203C183.5,-203 189.5,-209 189.5,-215"/>
<path fill="white" stroke="white" d="M189.5,-227C189.5,-233 183.5,-239 177.5,-239"/>
<polyline fill="none" stroke="black" points="177.5,-239 132.5,-239 "/>
<path fill="none" stroke="black" d="M132.5,-239C126.5,-239 120.5,-233 120.5,-227"/>
<polyline fill="none" stroke="black" points="120.5,-227 120.5,-215 "/>
<path fill="none" stroke="black" d="M120.5,-215C120.5,-209 126.5,-203 132.5,-203"/>
<polyline fill="none" stroke="black" points="132.5,-203 177.5,-203 "/>
<path fill="none" stroke="black" d="M177.5,-203C183.5,-203 189.5,-209 189.5,-215"/>
<polyline fill="none" stroke="black" points="189.5,-215 189.5,-227 "/>
<path fill="none" stroke="black" d="M189.5,-227C189.5,-233 183.5,-239 177.5,-239"/>
<text text-anchor="middle" x="155" y="-217.3" font-family="Times,serif" font-size="14.00">Windows</text>
</g>
<!-- os&#45;&#45;windows -->
<g id="edge35" class="edge"><title>os&#45;&#45;windows</title>
<path fill="none" stroke="black" d="M65.9993,-189.288C81.7476,-194.963 102.886,-202.581 120.499,-208.927"/>
</g>
<!-- linux -->
<g id="node29" class="node"><title>linux</title>
<polygon fill="white" stroke="white" points="170,-185 140,-185 128,-173 128,-161 140,-149 170,-149 182,-161 182,-173 170,-185"/>
<path fill="white" stroke="white" d="M140,-185C134,-185 128,-179 128,-173"/>
<path fill="white" stroke="white" d="M128,-161C128,-155 134,-149 140,-149"/>
<path fill="white" stroke="white" d="M170,-149C176,-149 182,-155 182,-161"/>
<path fill="white" stroke="white" d="M182,-173C182,-179 176,-185 170,-185"/>
<polyline fill="none" stroke="black" points="170,-185 140,-185 "/>
<path fill="none" stroke="black" d="M140,-185C134,-185 128,-179 128,-173"/>
<polyline fill="none" stroke="black" points="128,-173 128,-161 "/>
<path fill="none" stroke="black" d="M128,-161C128,-155 134,-149 140,-149"/>
<polyline fill="none" stroke="black" points="140,-149 170,-149 "/>
<path fill="none" stroke="black" d="M170,-149C176,-149 182,-155 182,-161"/>
<polyline fill="none" stroke="black" points="182,-161 182,-173 "/>
<path fill="none" stroke="black" d="M182,-173C182,-179 176,-185 170,-185"/>
<text text-anchor="middle" x="155" y="-163.3" font-family="Times,serif" font-size="14.00">Linux</text>
</g>
<!-- os&#45;&#45;linux -->
<g id="edge36" class="edge"><title>os&#45;&#45;linux</title>
<path fill="none" stroke="black" d="M68.7446,-177.753C86.4208,-175.524 109.814,-172.573 127.624,-170.327"/>
</g>
<!-- onesver -->
<g id="node7" class="node"><title>onesver</title>
<ellipse fill="lightyellow" stroke="black" cx="355" cy="-99" rx="38.1938" ry="18"/>
<text text-anchor="middle" x="355" y="-95.3" font-family="Times,serif" font-size="14.00">Версия</text>
</g>
<!-- v7 -->
<g id="node14" class="node"><title>v7</title>
<polygon fill="white" stroke="white" points="472,-144 442,-144 430,-132 430,-120 442,-108 472,-108 484,-120 484,-132 472,-144"/>
<path fill="white" stroke="white" d="M442,-144C436,-144 430,-138 430,-132"/>
<path fill="white" stroke="white" d="M430,-120C430,-114 436,-108 442,-108"/>
<path fill="white" stroke="white" d="M472,-108C478,-108 484,-114 484,-120"/>
<path fill="white" stroke="white" d="M484,-132C484,-138 478,-144 472,-144"/>
<polyline fill="none" stroke="black" points="472,-144 442,-144 "/>
<path fill="none" stroke="black" d="M442,-144C436,-144 430,-138 430,-132"/>
<polyline fill="none" stroke="black" points="430,-132 430,-120 "/>
<path fill="none" stroke="black" d="M430,-120C430,-114 436,-108 442,-108"/>
<polyline fill="none" stroke="black" points="442,-108 472,-108 "/>
<path fill="none" stroke="black" d="M472,-108C478,-108 484,-114 484,-120"/>
<polyline fill="none" stroke="black" points="484,-120 484,-132 "/>
<path fill="none" stroke="black" d="M484,-132C484,-138 478,-144 472,-144"/>
<text text-anchor="middle" x="457" y="-122.3" font-family="Times,serif" font-size="14.00">7.7</text>
</g>
<!-- onesver&#45;&#45;v7 -->
<g id="edge11" class="edge"><title>onesver&#45;&#45;v7</title>
<path fill="none" stroke="black" d="M388.744,-107.841C402.073,-111.44 417.266,-115.542 429.836,-118.936"/>
</g>
<!-- v8 -->
<g id="node17" class="node"><title>v8</title>
<polygon fill="white" stroke="white" points="472,-90 442,-90 430,-78 430,-66 442,-54 472,-54 484,-66 484,-78 472,-90"/>
<path fill="white" stroke="white" d="M442,-90C436,-90 430,-84 430,-78"/>
<path fill="white" stroke="white" d="M430,-66C430,-60 436,-54 442,-54"/>
<path fill="white" stroke="white" d="M472,-54C478,-54 484,-60 484,-66"/>
<path fill="white" stroke="white" d="M484,-78C484,-84 478,-90 472,-90"/>
<polyline fill="none" stroke="black" points="472,-90 442,-90 "/>
<path fill="none" stroke="black" d="M442,-90C436,-90 430,-84 430,-78"/>
<polyline fill="none" stroke="black" points="430,-78 430,-66 "/>
<path fill="none" stroke="black" d="M430,-66C430,-60 436,-54 442,-54"/>
<polyline fill="none" stroke="black" points="442,-54 472,-54 "/>
<path fill="none" stroke="black" d="M472,-54C478,-54 484,-60 484,-66"/>
<polyline fill="none" stroke="black" points="484,-66 484,-78 "/>
<path fill="none" stroke="black" d="M484,-78C484,-84 478,-90 472,-90"/>
<text text-anchor="middle" x="457" y="-68.3" font-family="Times,serif" font-size="14.00">8.x</text>
</g>
<!-- onesver&#45;&#45;v8 -->
<g id="edge12" class="edge"><title>onesver&#45;&#45;v8</title>
<path fill="none" stroke="black" d="M388.744,-90.1592C402.073,-86.5604 417.266,-82.4581 429.836,-79.0642"/>
</g>
<!-- v7part -->
<g id="node8" class="node"><title>v7part</title>
<ellipse fill="lightyellow" stroke="black" cx="547" cy="-126" rx="27" ry="18"/>
<text text-anchor="middle" x="547" y="-122.3" font-family="Times,serif" font-size="14.00">Тип</text>
</g>
<!-- v7cfg -->
<g id="node15" class="node"><title>v7cfg</title>
<polygon fill="white" stroke="white" points="701.5,-198 622.5,-198 610.5,-186 610.5,-174 622.5,-162 701.5,-162 713.5,-174 713.5,-186 701.5,-198"/>
<path fill="white" stroke="white" d="M622.5,-198C616.5,-198 610.5,-192 610.5,-186"/>
<path fill="white" stroke="white" d="M610.5,-174C610.5,-168 616.5,-162 622.5,-162"/>
<path fill="white" stroke="white" d="M701.5,-162C707.5,-162 713.5,-168 713.5,-174"/>
<path fill="white" stroke="white" d="M713.5,-186C713.5,-192 707.5,-198 701.5,-198"/>
<polyline fill="none" stroke="black" points="701.5,-198 622.5,-198 "/>
<path fill="none" stroke="black" d="M622.5,-198C616.5,-198 610.5,-192 610.5,-186"/>
<polyline fill="none" stroke="black" points="610.5,-186 610.5,-174 "/>
<path fill="none" stroke="black" d="M610.5,-174C610.5,-168 616.5,-162 622.5,-162"/>
<polyline fill="none" stroke="black" points="622.5,-162 701.5,-162 "/>
<path fill="none" stroke="black" d="M701.5,-162C707.5,-162 713.5,-168 713.5,-174"/>
<polyline fill="none" stroke="black" points="713.5,-174 713.5,-186 "/>
<path fill="none" stroke="black" d="M713.5,-186C713.5,-192 707.5,-198 701.5,-198"/>
<text text-anchor="middle" x="662" y="-176.3" font-family="Times,serif" font-size="14.00">Конфигурация</text>
</g>
<!-- v7part&#45;&#45;v7cfg -->
<g id="edge15" class="edge"><title>v7part&#45;&#45;v7cfg</title>
<path fill="none" stroke="black" d="M569.52,-136.284C584.633,-143.506 605.249,-153.358 623.085,-161.881"/>
</g>
<!-- v7rpt -->
<g id="node16" class="node"><title>v7rpt</title>
<polygon fill="white" stroke="white" points="692.5,-144 631.5,-144 619.5,-132 619.5,-120 631.5,-108 692.5,-108 704.5,-120 704.5,-132 692.5,-144"/>
<path fill="white" stroke="white" d="M631.5,-144C625.5,-144 619.5,-138 619.5,-132"/>
<path fill="white" stroke="white" d="M619.5,-120C619.5,-114 625.5,-108 631.5,-108"/>
<path fill="white" stroke="white" d="M692.5,-108C698.5,-108 704.5,-114 704.5,-120"/>
<path fill="white" stroke="white" d="M704.5,-132C704.5,-138 698.5,-144 692.5,-144"/>
<polyline fill="none" stroke="black" points="692.5,-144 631.5,-144 "/>
<path fill="none" stroke="black" d="M631.5,-144C625.5,-144 619.5,-138 619.5,-132"/>
<polyline fill="none" stroke="black" points="619.5,-132 619.5,-120 "/>
<path fill="none" stroke="black" d="M619.5,-120C619.5,-114 625.5,-108 631.5,-108"/>
<polyline fill="none" stroke="black" points="631.5,-108 692.5,-108 "/>
<path fill="none" stroke="black" d="M692.5,-108C698.5,-108 704.5,-114 704.5,-120"/>
<polyline fill="none" stroke="black" points="704.5,-120 704.5,-132 "/>
<path fill="none" stroke="black" d="M704.5,-132C704.5,-138 698.5,-144 692.5,-144"/>
<text text-anchor="middle" x="662" y="-122.3" font-family="Times,serif" font-size="14.00">Отчетность</text>
</g>
<!-- v7part&#45;&#45;v7rpt -->
<g id="edge16" class="edge"><title>v7part&#45;&#45;v7rpt</title>
<path fill="none" stroke="black" d="M574.208,-126C587.639,-126 604.312,-126 619.444,-126"/>
</g>
<!-- v8part -->
<g id="node9" class="node"><title>v8part</title>
<ellipse fill="lightyellow" stroke="black" cx="547" cy="-72" rx="27" ry="18"/>
<text text-anchor="middle" x="547" y="-68.3" font-family="Times,serif" font-size="14.00">Тип</text>
</g>
<!-- v8platf -->
<g id="node18" class="node"><title>v8platf</title>
<polygon fill="white" stroke="white" points="692,-90 632,-90 620,-78 620,-66 632,-54 692,-54 704,-66 704,-78 692,-90"/>
<path fill="white" stroke="white" d="M632,-90C626,-90 620,-84 620,-78"/>
<path fill="white" stroke="white" d="M620,-66C620,-60 626,-54 632,-54"/>
<path fill="white" stroke="white" d="M692,-54C698,-54 704,-60 704,-66"/>
<path fill="white" stroke="white" d="M704,-78C704,-84 698,-90 692,-90"/>
<polyline fill="none" stroke="black" points="692,-90 632,-90 "/>
<path fill="none" stroke="black" d="M632,-90C626,-90 620,-84 620,-78"/>
<polyline fill="none" stroke="black" points="620,-78 620,-66 "/>
<path fill="none" stroke="black" d="M620,-66C620,-60 626,-54 632,-54"/>
<polyline fill="none" stroke="black" points="632,-54 692,-54 "/>
<path fill="none" stroke="black" d="M692,-54C698,-54 704,-60 704,-66"/>
<polyline fill="none" stroke="black" points="704,-66 704,-78 "/>
<path fill="none" stroke="black" d="M704,-78C704,-84 698,-90 692,-90"/>
<text text-anchor="middle" x="662" y="-68.3" font-family="Times,serif" font-size="14.00">Платформа</text>
</g>
<!-- v8part&#45;&#45;v8platf -->
<g id="edge19" class="edge"><title>v8part&#45;&#45;v8platf</title>
<path fill="none" stroke="black" d="M574.208,-72C587.77,-72 604.636,-72 619.885,-72"/>
</g>
<!-- v8cfg -->
<g id="node19" class="node"><title>v8cfg</title>
<polygon fill="white" stroke="white" points="701.5,-36 622.5,-36 610.5,-24 610.5,-12 622.5,-0 701.5,-0 713.5,-12 713.5,-24 701.5,-36"/>
<path fill="white" stroke="white" d="M622.5,-36C616.5,-36 610.5,-30 610.5,-24"/>
<path fill="white" stroke="white" d="M610.5,-12C610.5,-6 616.5,-0 622.5,-0"/>
<path fill="white" stroke="white" d="M701.5,-0C707.5,-0 713.5,-6 713.5,-12"/>
<path fill="white" stroke="white" d="M713.5,-24C713.5,-30 707.5,-36 701.5,-36"/>
<polyline fill="none" stroke="black" points="701.5,-36 622.5,-36 "/>
<path fill="none" stroke="black" d="M622.5,-36C616.5,-36 610.5,-30 610.5,-24"/>
<polyline fill="none" stroke="black" points="610.5,-24 610.5,-12 "/>
<path fill="none" stroke="black" d="M610.5,-12C610.5,-6 616.5,-0 622.5,-0"/>
<polyline fill="none" stroke="black" points="622.5,-0 701.5,-0 "/>
<path fill="none" stroke="black" d="M701.5,-0C707.5,-0 713.5,-6 713.5,-12"/>
<polyline fill="none" stroke="black" points="713.5,-12 713.5,-24 "/>
<path fill="none" stroke="black" d="M713.5,-24C713.5,-30 707.5,-36 701.5,-36"/>
<text text-anchor="middle" x="662" y="-14.3" font-family="Times,serif" font-size="14.00">Конфигурация</text>
</g>
<!-- v8part&#45;&#45;v8cfg -->
<g id="edge20" class="edge"><title>v8part&#45;&#45;v8cfg</title>
<path fill="none" stroke="black" d="M569.52,-61.7159C584.633,-54.4941 605.249,-44.6419 623.085,-36.1185"/>
</g>
<!-- year -->
<g id="node10" class="node"><title>year</title>
<ellipse fill="lightyellow" stroke="black" cx="42" cy="-356" rx="27" ry="18"/>
<text text-anchor="middle" x="42" y="-352.3" font-family="Times,serif" font-size="14.00">Год</text>
</g>
<!-- year2010 -->
<g id="node20" class="node"><title>year2010</title>
<polygon fill="white" stroke="white" points="170,-455 140,-455 128,-443 128,-431 140,-419 170,-419 182,-431 182,-443 170,-455"/>
<path fill="white" stroke="white" d="M140,-455C134,-455 128,-449 128,-443"/>
<path fill="white" stroke="white" d="M128,-431C128,-425 134,-419 140,-419"/>
<path fill="white" stroke="white" d="M170,-419C176,-419 182,-425 182,-431"/>
<path fill="white" stroke="white" d="M182,-443C182,-449 176,-455 170,-455"/>
<polyline fill="none" stroke="black" points="170,-455 140,-455 "/>
<path fill="none" stroke="black" d="M140,-455C134,-455 128,-449 128,-443"/>
<polyline fill="none" stroke="black" points="128,-443 128,-431 "/>
<path fill="none" stroke="black" d="M128,-431C128,-425 134,-419 140,-419"/>
<polyline fill="none" stroke="black" points="140,-419 170,-419 "/>
<path fill="none" stroke="black" d="M170,-419C176,-419 182,-425 182,-431"/>
<polyline fill="none" stroke="black" points="182,-431 182,-443 "/>
<path fill="none" stroke="black" d="M182,-443C182,-449 176,-455 170,-455"/>
<text text-anchor="middle" x="155" y="-433.3" font-family="Times,serif" font-size="14.00">2010</text>
</g>
<!-- year&#45;&#45;year2010 -->
<g id="edge23" class="edge"><title>year&#45;&#45;year2010</title>
<path fill="none" stroke="black" d="M60.8341,-369.014C79.3417,-382.52 108.43,-403.746 129.178,-418.887"/>
</g>
<!-- year2011 -->
<g id="node21" class="node"><title>year2011</title>
<polygon fill="white" stroke="white" points="170,-401 140,-401 128,-389 128,-377 140,-365 170,-365 182,-377 182,-389 170,-401"/>
<path fill="white" stroke="white" d="M140,-401C134,-401 128,-395 128,-389"/>
<path fill="white" stroke="white" d="M128,-377C128,-371 134,-365 140,-365"/>
<path fill="white" stroke="white" d="M170,-365C176,-365 182,-371 182,-377"/>
<path fill="white" stroke="white" d="M182,-389C182,-395 176,-401 170,-401"/>
<polyline fill="none" stroke="black" points="170,-401 140,-401 "/>
<path fill="none" stroke="black" d="M140,-401C134,-401 128,-395 128,-389"/>
<polyline fill="none" stroke="black" points="128,-389 128,-377 "/>
<path fill="none" stroke="black" d="M128,-377C128,-371 134,-365 140,-365"/>
<polyline fill="none" stroke="black" points="140,-365 170,-365 "/>
<path fill="none" stroke="black" d="M170,-365C176,-365 182,-371 182,-377"/>
<polyline fill="none" stroke="black" points="182,-377 182,-389 "/>
<path fill="none" stroke="black" d="M182,-389C182,-395 176,-401 170,-401"/>
<text text-anchor="middle" x="155" y="-379.3" font-family="Times,serif" font-size="14.00">2011</text>
</g>
<!-- year&#45;&#45;year2011 -->
<g id="edge24" class="edge"><title>year&#45;&#45;year2011</title>
<path fill="none" stroke="black" d="M67.6345,-361.992C85.5181,-366.342 109.671,-372.217 127.888,-376.648"/>
</g>
<!-- year2012 -->
<g id="node22" class="node"><title>year2012</title>
<polygon fill="white" stroke="white" points="170,-347 140,-347 128,-335 128,-323 140,-311 170,-311 182,-323 182,-335 170,-347"/>
<path fill="white" stroke="white" d="M140,-347C134,-347 128,-341 128,-335"/>
<path fill="white" stroke="white" d="M128,-323C128,-317 134,-311 140,-311"/>
<path fill="white" stroke="white" d="M170,-311C176,-311 182,-317 182,-323"/>
<path fill="white" stroke="white" d="M182,-335C182,-341 176,-347 170,-347"/>
<polyline fill="none" stroke="black" points="170,-347 140,-347 "/>
<path fill="none" stroke="black" d="M140,-347C134,-347 128,-341 128,-335"/>
<polyline fill="none" stroke="black" points="128,-335 128,-323 "/>
<path fill="none" stroke="black" d="M128,-323C128,-317 134,-311 140,-311"/>
<polyline fill="none" stroke="black" points="140,-311 170,-311 "/>
<path fill="none" stroke="black" d="M170,-311C176,-311 182,-317 182,-323"/>
<polyline fill="none" stroke="black" points="182,-323 182,-335 "/>
<path fill="none" stroke="black" d="M182,-335C182,-341 176,-347 170,-347"/>
<text text-anchor="middle" x="155" y="-325.3" font-family="Times,serif" font-size="14.00">2012</text>
</g>
<!-- year&#45;&#45;year2012 -->
<g id="edge25" class="edge"><title>year&#45;&#45;year2012</title>
<path fill="none" stroke="black" d="M67.6345,-350.008C85.5181,-345.658 109.671,-339.783 127.888,-335.352"/>
</g>
<!-- year2013 -->
<g id="node23" class="node"><title>year2013</title>
<polygon fill="white" stroke="white" points="170,-293 140,-293 128,-281 128,-269 140,-257 170,-257 182,-269 182,-281 170,-293"/>
<path fill="white" stroke="white" d="M140,-293C134,-293 128,-287 128,-281"/>
<path fill="white" stroke="white" d="M128,-269C128,-263 134,-257 140,-257"/>
<path fill="white" stroke="white" d="M170,-257C176,-257 182,-263 182,-269"/>
<path fill="white" stroke="white" d="M182,-281C182,-287 176,-293 170,-293"/>
<polyline fill="none" stroke="black" points="170,-293 140,-293 "/>
<path fill="none" stroke="black" d="M140,-293C134,-293 128,-287 128,-281"/>
<polyline fill="none" stroke="black" points="128,-281 128,-269 "/>
<path fill="none" stroke="black" d="M128,-269C128,-263 134,-257 140,-257"/>
<polyline fill="none" stroke="black" points="140,-257 170,-257 "/>
<path fill="none" stroke="black" d="M170,-257C176,-257 182,-263 182,-269"/>
<polyline fill="none" stroke="black" points="182,-269 182,-281 "/>
<path fill="none" stroke="black" d="M182,-281C182,-287 176,-293 170,-293"/>
<text text-anchor="middle" x="155" y="-271.3" font-family="Times,serif" font-size="14.00">2013</text>
</g>
<!-- year&#45;&#45;year2013 -->
<g id="edge26" class="edge"><title>year&#45;&#45;year2013</title>
<path fill="none" stroke="black" d="M60.8341,-342.986C79.3417,-329.48 108.43,-308.254 129.178,-293.113"/>
</g>
<!-- quarter -->
<g id="node11" class="node"><title>quarter</title>
<ellipse fill="lightyellow" stroke="black" cx="42" cy="-572" rx="42.4939" ry="18"/>
<text text-anchor="middle" x="42" y="-568.3" font-family="Times,serif" font-size="14.00">Квартал</text>
</g>
<!-- quarter1 -->
<g id="node24" class="node"><title>quarter1</title>
<polygon fill="white" stroke="white" points="170,-671 140,-671 128,-659 128,-647 140,-635 170,-635 182,-647 182,-659 170,-671"/>
<path fill="white" stroke="white" d="M140,-671C134,-671 128,-665 128,-659"/>
<path fill="white" stroke="white" d="M128,-647C128,-641 134,-635 140,-635"/>
<path fill="white" stroke="white" d="M170,-635C176,-635 182,-641 182,-647"/>
<path fill="white" stroke="white" d="M182,-659C182,-665 176,-671 170,-671"/>
<polyline fill="none" stroke="black" points="170,-671 140,-671 "/>
<path fill="none" stroke="black" d="M140,-671C134,-671 128,-665 128,-659"/>
<polyline fill="none" stroke="black" points="128,-659 128,-647 "/>
<path fill="none" stroke="black" d="M128,-647C128,-641 134,-635 140,-635"/>
<polyline fill="none" stroke="black" points="140,-635 170,-635 "/>
<path fill="none" stroke="black" d="M170,-635C176,-635 182,-641 182,-647"/>
<polyline fill="none" stroke="black" points="182,-647 182,-659 "/>
<path fill="none" stroke="black" d="M182,-659C182,-665 176,-671 170,-671"/>
<text text-anchor="middle" x="155" y="-649.3" font-family="Times,serif" font-size="14.00">1</text>
</g>
<!-- quarter&#45;&#45;quarter1 -->
<g id="edge29" class="edge"><title>quarter&#45;&#45;quarter1</title>
<path fill="none" stroke="black" d="M64.1395,-587.426C82.6326,-600.921 109.517,-620.539 129.058,-634.799"/>
</g>
<!-- quarter2 -->
<g id="node25" class="node"><title>quarter2</title>
<polygon fill="white" stroke="white" points="170,-617 140,-617 128,-605 128,-593 140,-581 170,-581 182,-593 182,-605 170,-617"/>
<path fill="white" stroke="white" d="M140,-617C134,-617 128,-611 128,-605"/>
<path fill="white" stroke="white" d="M128,-593C128,-587 134,-581 140,-581"/>
<path fill="white" stroke="white" d="M170,-581C176,-581 182,-587 182,-593"/>
<path fill="white" stroke="white" d="M182,-605C182,-611 176,-617 170,-617"/>
<polyline fill="none" stroke="black" points="170,-617 140,-617 "/>
<path fill="none" stroke="black" d="M140,-617C134,-617 128,-611 128,-605"/>
<polyline fill="none" stroke="black" points="128,-605 128,-593 "/>
<path fill="none" stroke="black" d="M128,-593C128,-587 134,-581 140,-581"/>
<polyline fill="none" stroke="black" points="140,-581 170,-581 "/>
<path fill="none" stroke="black" d="M170,-581C176,-581 182,-587 182,-593"/>
<polyline fill="none" stroke="black" points="182,-593 182,-605 "/>
<path fill="none" stroke="black" d="M182,-605C182,-611 176,-617 170,-617"/>
<text text-anchor="middle" x="155" y="-595.3" font-family="Times,serif" font-size="14.00">2</text>
</g>
<!-- quarter&#45;&#45;quarter2 -->
<g id="edge30" class="edge"><title>quarter&#45;&#45;quarter2</title>
<path fill="none" stroke="black" d="M79.0385,-580.766C94.9909,-584.646 113.4,-589.124 127.982,-592.671"/>
</g>
<!-- quarter3 -->
<g id="node26" class="node"><title>quarter3</title>
<polygon fill="white" stroke="white" points="170,-563 140,-563 128,-551 128,-539 140,-527 170,-527 182,-539 182,-551 170,-563"/>
<path fill="white" stroke="white" d="M140,-563C134,-563 128,-557 128,-551"/>
<path fill="white" stroke="white" d="M128,-539C128,-533 134,-527 140,-527"/>
<path fill="white" stroke="white" d="M170,-527C176,-527 182,-533 182,-539"/>
<path fill="white" stroke="white" d="M182,-551C182,-557 176,-563 170,-563"/>
<polyline fill="none" stroke="black" points="170,-563 140,-563 "/>
<path fill="none" stroke="black" d="M140,-563C134,-563 128,-557 128,-551"/>
<polyline fill="none" stroke="black" points="128,-551 128,-539 "/>
<path fill="none" stroke="black" d="M128,-539C128,-533 134,-527 140,-527"/>
<polyline fill="none" stroke="black" points="140,-527 170,-527 "/>
<path fill="none" stroke="black" d="M170,-527C176,-527 182,-533 182,-539"/>
<polyline fill="none" stroke="black" points="182,-539 182,-551 "/>
<path fill="none" stroke="black" d="M182,-551C182,-557 176,-563 170,-563"/>
<text text-anchor="middle" x="155" y="-541.3" font-family="Times,serif" font-size="14.00">3</text>
</g>
<!-- quarter&#45;&#45;quarter3 -->
<g id="edge31" class="edge"><title>quarter&#45;&#45;quarter3</title>
<path fill="none" stroke="black" d="M79.0385,-563.234C94.9909,-559.354 113.4,-554.876 127.982,-551.329"/>
</g>
<!-- quarter4 -->
<g id="node27" class="node"><title>quarter4</title>
<polygon fill="white" stroke="white" points="170,-509 140,-509 128,-497 128,-485 140,-473 170,-473 182,-485 182,-497 170,-509"/>
<path fill="white" stroke="white" d="M140,-509C134,-509 128,-503 128,-497"/>
<path fill="white" stroke="white" d="M128,-485C128,-479 134,-473 140,-473"/>
<path fill="white" stroke="white" d="M170,-473C176,-473 182,-479 182,-485"/>
<path fill="white" stroke="white" d="M182,-497C182,-503 176,-509 170,-509"/>
<polyline fill="none" stroke="black" points="170,-509 140,-509 "/>
<path fill="none" stroke="black" d="M140,-509C134,-509 128,-503 128,-497"/>
<polyline fill="none" stroke="black" points="128,-497 128,-485 "/>
<path fill="none" stroke="black" d="M128,-485C128,-479 134,-473 140,-473"/>
<polyline fill="none" stroke="black" points="140,-473 170,-473 "/>
<path fill="none" stroke="black" d="M170,-473C176,-473 182,-479 182,-485"/>
<polyline fill="none" stroke="black" points="182,-485 182,-497 "/>
<path fill="none" stroke="black" d="M182,-497C182,-503 176,-509 170,-509"/>
<text text-anchor="middle" x="155" y="-487.3" font-family="Times,serif" font-size="14.00">4</text>
</g>
<!-- quarter&#45;&#45;quarter4 -->
<g id="edge32" class="edge"><title>quarter&#45;&#45;quarter4</title>
<path fill="none" stroke="black" d="M64.1395,-556.574C82.6326,-543.079 109.517,-523.461 129.058,-509.201"/>
</g>
<!-- ones -->
<g id="node13" class="node"><title>ones</title>
<polygon fill="white" stroke="white" points="268,-117 238,-117 226,-105 226,-93 238,-81 268,-81 280,-93 280,-105 268,-117"/>
<path fill="white" stroke="white" d="M238,-117C232,-117 226,-111 226,-105"/>
<path fill="white" stroke="white" d="M226,-93C226,-87 232,-81 238,-81"/>
<path fill="white" stroke="white" d="M268,-81C274,-81 280,-87 280,-93"/>
<path fill="white" stroke="white" d="M280,-105C280,-111 274,-117 268,-117"/>
<polyline fill="none" stroke="black" points="268,-117 238,-117 "/>
<path fill="none" stroke="black" d="M238,-117C232,-117 226,-111 226,-105"/>
<polyline fill="none" stroke="black" points="226,-105 226,-93 "/>
<path fill="none" stroke="black" d="M226,-93C226,-87 232,-81 238,-81"/>
<polyline fill="none" stroke="black" points="238,-81 268,-81 "/>
<path fill="none" stroke="black" d="M268,-81C274,-81 280,-87 280,-93"/>
<polyline fill="none" stroke="black" points="280,-93 280,-105 "/>
<path fill="none" stroke="black" d="M280,-105C280,-111 274,-117 268,-117"/>
<text text-anchor="middle" x="253" y="-95.3" font-family="Times,serif" font-size="14.00">1С</text>
</g>
<!-- ones&#45;&#45;onesver -->
<g id="edge40" class="edge"><title>ones&#45;&#45;onesver</title>
<path fill="none" stroke="black" stroke-dasharray="5,2" d="M280.013,-99C291.124,-99 304.306,-99 316.444,-99"/>
</g>
<!-- v7&#45;&#45;v7part -->
<g id="edge43" class="edge"><title>v7&#45;&#45;v7part</title>
<path fill="none" stroke="black" stroke-dasharray="5,2" d="M484.403,-126C495.642,-126 508.715,-126 519.919,-126"/>
</g>
<!-- v8&#45;&#45;v8part -->
<g id="edge46" class="edge"><title>v8&#45;&#45;v8part</title>
<path fill="none" stroke="black" stroke-dasharray="5,2" d="M484.403,-72C495.642,-72 508.715,-72 519.919,-72"/>
</g>
<!-- ftype&#45;&#45;ones -->
<g id="edge49" class="edge"><title>ftype&#45;&#45;ones</title>
<path fill="none" stroke="black" d="M183.767,-99C197.057,-99 212.881,-99 225.942,-99"/>
</g>
</g>
</svg>
