<?xml version="1.0" encoding="UTF-8" standalone="no"?>
<!DOCTYPE svg PUBLIC "-//W3C//DTD SVG 1.0//EN" "http://www.w3.org/TR/2001/PR-SVG-20010719/DTD/svg10.dtd">
<svg width="14cm" height="10cm" viewBox="14 -1 272 186" xmlns="http://www.w3.org/2000/svg" xmlns:xlink="http://www.w3.org/1999/xlink">
  <g>
    <ellipse style="fill: #ffffff" cx="40" cy="24" rx="6" ry="6"/>
    <ellipse style="fill: none; fill-opacity:0; stroke-width: 2; stroke: #000000" cx="40" cy="24" rx="6" ry="6"/>
    <line style="fill: none; fill-opacity:0; stroke-width: 2; stroke: #000000" x1="16" y1="36" x2="64" y2="36"/>
    <line style="fill: none; fill-opacity:0; stroke-width: 2; stroke: #000000" x1="40" y1="30" x2="40" y2="60"/>
    <line style="fill: none; fill-opacity:0; stroke-width: 2; stroke: #000000" x1="40" y1="60" x2="16" y2="86"/>
    <line style="fill: none; fill-opacity:0; stroke-width: 2; stroke: #000000" x1="40" y1="60" x2="64" y2="86"/>
    <text font-size="12.7998" style="fill: #000000;text-anchor:middle;font-family:sans-serif;font-style:normal;font-weight:normal" x="40" y="109.9">
      <tspan x="40" y="109.9">odmin</tspan>
    </text>
  </g>
  <g>
    <ellipse style="fill: #ffffff" cx="260" cy="84" rx="6" ry="6"/>
    <ellipse style="fill: none; fill-opacity:0; stroke-width: 2; stroke: #000000" cx="260" cy="84" rx="6" ry="6"/>
    <line style="fill: none; fill-opacity:0; stroke-width: 2; stroke: #000000" x1="236" y1="96" x2="284" y2="96"/>
    <line style="fill: none; fill-opacity:0; stroke-width: 2; stroke: #000000" x1="260" y1="90" x2="260" y2="120"/>
    <line style="fill: none; fill-opacity:0; stroke-width: 2; stroke: #000000" x1="260" y1="120" x2="236" y2="146"/>
    <line style="fill: none; fill-opacity:0; stroke-width: 2; stroke: #000000" x1="260" y1="120" x2="284" y2="146"/>
    <text font-size="12.7998" style="fill: #000000;text-anchor:middle;font-family:sans-serif;font-style:normal;font-weight:normal" x="260" y="169.9">
      <tspan x="260" y="169.9">user</tspan>
    </text>
  </g>
  <g>
    <ellipse style="fill: #ffffff" cx="142.525" cy="28.35" rx="42.525" ry="28.35"/>
    <ellipse style="fill: none; fill-opacity:0; stroke-width: 2; stroke: #000000" cx="142.525" cy="28.35" rx="42.525" ry="28.35"/>
    <text font-size="12.8" style="fill: #000000;text-anchor:middle;font-family:sans-serif;font-style:normal;font-weight:normal" x="142.525" y="24.25">
      <tspan x="142.525" y="24.25">CRUD</tspan>
      <tspan x="142.525" y="40.25">tags</tspan>
    </text>
  </g>
  <g>
    <ellipse style="fill: #ffffff" cx="153.45" cy="152" rx="53.45" ry="32"/>
    <ellipse style="fill: none; fill-opacity:0; stroke-width: 2; stroke: #000000" cx="153.45" cy="152" rx="53.45" ry="32"/>
    <text font-size="12.8" style="fill: #000000;text-anchor:middle;font-family:sans-serif;font-style:normal;font-weight:normal" x="153.45" y="147.9">
      <tspan x="153.45" y="147.9">Retrieve</tspan>
      <tspan x="153.45" y="163.9">entries</tspan>
    </text>
  </g>
  <g>
    <ellipse style="fill: #ffffff" cx="146.175" cy="90.7833" rx="46.175" ry="30.7833"/>
    <ellipse style="fill: none; fill-opacity:0; stroke-width: 2; stroke: #000000" cx="146.175" cy="90.7833" rx="46.175" ry="30.7833"/>
    <text font-size="12.8" style="fill: #000000;text-anchor:middle;font-family:sans-serif;font-style:normal;font-weight:normal" x="146.175" y="86.6833">
      <tspan x="146.175" y="86.6833">CRUD</tspan>
      <tspan x="146.175" y="102.683">entries</tspan>
    </text>
  </g>
  <g>
    <line style="fill: none; fill-opacity:0; stroke-width: 2; stroke: #000000" x1="65.9942" y1="51.9755" x2="89.7066" y2="44.6553"/>
    <polygon style="fill: #000000" points="96.8729,42.4431 88.7927,50.1703 89.7066,44.6553 85.843,40.6152 "/>
    <polygon style="fill: none; fill-opacity:0; stroke-width: 2; stroke: #000000" points="96.8729,42.4431 88.7927,50.1703 89.7066,44.6553 85.843,40.6152 "/>
  </g>
  <g>
    <line style="fill: none; fill-opacity:0; stroke-width: 2; stroke: #000000" x1="234.1" y1="113.352" x2="202.764" y2="105.309"/>
    <polygon style="fill: #000000" points="195.499,103.444 206.428,101.087 202.764,105.309 203.942,110.773 "/>
    <polygon style="fill: none; fill-opacity:0; stroke-width: 2; stroke: #000000" points="195.499,103.444 206.428,101.087 202.764,105.309 203.942,110.773 "/>
  </g>
  <g>
    <line style="fill: none; fill-opacity:0; stroke-width: 2; stroke: #000000" x1="234.091" y1="127.781" x2="217.227" y2="132.846"/>
    <polygon style="fill: #000000" points="210.044,135.003 218.183,127.338 217.227,132.846 221.059,136.916 "/>
    <polygon style="fill: none; fill-opacity:0; stroke-width: 2; stroke: #000000" points="210.044,135.003 218.183,127.338 217.227,132.846 221.059,136.916 "/>
  </g>
</svg>
